NotoKufiArabic.glyphspackage
{
glyphname = commareversed;
layers = (
{
layerId = "15908E2C-AB74-4DC1-B0E7-8741EE8F4DA5";
paths = (
{
closed = 1;
nodes = (
"67 34 OFFCURVE",
"103 -57 OFFCURVE",
"135 -129 CURVE",
"200 -129 LINE",
"181 -53 OFFCURVE",
"160 46 OFFCURVE",
"150 116 CURVE",
"56 116 LINE",
"49 105 LINE"
);
}
);
userData = {
com.schriftgestaltung.Glyphs.category = Punctuation;
com.schriftgestaltung.Glyphs.subCategory = Other;
};
width = 241;
},
{
layerId = "410295A1-92BC-4707-ABFC-13885E60878B";
paths = (
{
closed = 1;
nodes = (
"89 30 OFFCURVE",
"111 -60 OFFCURVE",
"139 -129 CURVE",
"161 -129 LINE",
"132 -32 OFFCURVE",
"116 40 OFFCURVE",
"105 116 CURVE",
"77 116 LINE",
"74 104 LINE"
);
}
);
userData = {
com.schriftgestaltung.Glyphs.category = Punctuation;
com.schriftgestaltung.Glyphs.subCategory = Other;
};
width = 199;
},
{
layerId = "307C4A58-79B8-4138-817C-FBEE21722E1A";
paths = (
{
closed = 1;
nodes = (
"79 34 OFFCURVE",
"114 -56 OFFCURVE",
"147 -129 CURVE",
"254 -129 LINE",
"235 -50 OFFCURVE",
"215 47 OFFCURVE",
"205 116 CURVE",
"68 116 LINE",
"61 105 LINE"
);
}
);
userData = {
com.schriftgestaltung.Glyphs.category = Punctuation;
com.schriftgestaltung.Glyphs.subCategory = Other;
};
width = 285;
},
{
associatedMasterId = "410295A1-92BC-4707-ABFC-13885E60878B";
layerId = m004;
paths = (
{
closed = 1;
nodes = (
"89 30 OFFCURVE",
"111 -60 OFFCURVE",
"139 -129 CURVE",
"161 -129 LINE",
"132 -32 OFFCURVE",
"116 40 OFFCURVE",
"105 116 CURVE",
"77 116 LINE",
"74 104 LINE"
);
}
);
userData = {
com.schriftgestaltung.Glyphs.category = Punctuation;
com.schriftgestaltung.Glyphs.subCategory = Other;
};
width = 199;
},
{
layerId = "DCD2D043-4E01-4B5D-9248-443A06E88532";
paths = (
{
closed = 1;
nodes = (
"77 63 OFFCURVE",
"112 -65 OFFCURVE",
"145 -139 CURVE",
"281 -139 LINE",
"262 -48 OFFCURVE",
"242 66 OFFCURVE",
"233 146 CURVE",
"66 146 LINE",
"59 135 LINE"
);
}
);
userData = {
com.schriftgestaltung.Glyphs.category = Punctuation;
com.schriftgestaltung.Glyphs.subCategory = Other;
};
width = 309;
}
);
unicode = 2E41;
}
{
glyphname = "fullstop-ar";
layers = (
{
layerId = "307C4A58-79B8-4138-817C-FBEE21722E1A";
paths = (
{
closed = 1;
nodes = (
"120 120 LINE SMOOTH",
"117 120 OFFCURVE",
"116 119 OFFCURVE",
"115 116 CURVE SMOOTH",
"65 5 LINE SMOOTH",
"64 2 OFFCURVE",
"67 0 OFFCURVE",
"70 0 CURVE SMOOTH",
"251 0 LINE SMOOTH",
"254 0 OFFCURVE",
"255 2 OFFCURVE",
"256 5 CURVE SMOOTH",
"306 116 LINE SMOOTH",
"307 119 OFFCURVE",
"304 120 OFFCURVE",
"301 120 CURVE SMOOTH"
);
}
);
userData = {
assembly = "NPUSHB[ ]	/* 10 values pushed */
2 13 8 12 6 11 70 89 6 18 
SVTCA[0]	/* SetFreedomAndProjectionVectorToAxis */
MIAP[1]	/* MoveIndirectAbsPt */
CALL[ ]	/* CallFunction */
SRP1[ ]	/* SetRefPoint1 */
SVTCA[1]	/* SetFreedomAndProjectionVectorToAxis */
SHP[1]	/* ShiftPointByLastPoint */
SRP1[ ]	/* SetRefPoint1 */
SHP[1]	/* ShiftPointByLastPoint */
IUP[1]	/* InterpolateUntPts */
IUP[0]	/* InterpolateUntPts */";
};
width = 371;
},
{
layerId = "15908E2C-AB74-4DC1-B0E7-8741EE8F4DA5";
paths = (
{
closed = 1;
nodes = (
"105 78 LINE SMOOTH",
"102 78 OFFCURVE",
"101 77 OFFCURVE",
"100 74 CURVE SMOOTH",
"65 5 LINE SMOOTH",
"64 2 OFFCURVE",
"67 0 OFFCURVE",
"70 0 CURVE SMOOTH",
"251 0 LINE SMOOTH",
"254 0 OFFCURVE",
"255 2 OFFCURVE",
"256 5 CURVE SMOOTH",
"291 74 LINE SMOOTH",
"292 77 OFFCURVE",
"289 78 OFFCURVE",
"286 78 CURVE SMOOTH"
);
}
);
userData = {
assembly = "NPUSHB[ ]	/* 10 values pushed */
3 13 9 12 6 11 70 89 6 18 
SVTCA[0]	/* SetFreedomAndProjectionVectorToAxis */
MIAP[1]	/* MoveIndirectAbsPt */
CALL[ ]	/* CallFunction */
SRP1[ ]	/* SetRefPoint1 */
SVTCA[1]	/* SetFreedomAndProjectionVectorToAxis */
SHP[1]	/* ShiftPointByLastPoint */
SRP1[ ]	/* SetRefPoint1 */
SHP[1]	/* ShiftPointByLastPoint */
IUP[1]	/* InterpolateUntPts */
IUP[0]	/* InterpolateUntPts */";
};
width = 356;
},
{
layerId = "410295A1-92BC-4707-ABFC-13885E60878B";
paths = (
{
closed = 1;
nodes = (
"77 24 LINE SMOOTH",
"74 24 OFFCURVE",
"73 22 OFFCURVE",
"72 20 CURVE SMOOTH",
"65 5 LINE SMOOTH",
"64 3 OFFCURVE",
"67 0 OFFCURVE",
"70 0 CURVE SMOOTH",
"251 0 LINE SMOOTH",
"254 0 OFFCURVE",
"255 3 OFFCURVE",
"256 5 CURVE SMOOTH",
"263 20 LINE SMOOTH",
"264 22 OFFCURVE",
"261 24 OFFCURVE",
"258 24 CURVE SMOOTH"
);
}
);
width = 328;
},
{
layerId = "DCD2D043-4E01-4B5D-9248-443A06E88532";
paths = (
{
closed = 1;
nodes = (
"130 148 LINE SMOOTH",
"127 148 OFFCURVE",
"126 147 OFFCURVE",
"125 144 CURVE SMOOTH",
"65 5 LINE SMOOTH",
"64 2 OFFCURVE",
"67 0 OFFCURVE",
"70 0 CURVE SMOOTH",
"251 0 LINE SMOOTH",
"254 0 OFFCURVE",
"255 2 OFFCURVE",
"256 5 CURVE SMOOTH",
"316 144 LINE SMOOTH",
"317 147 OFFCURVE",
"314 148 OFFCURVE",
"311 148 CURVE SMOOTH"
);
}
);
width = 381;
}
);
leftMetricsKey = "=65";
note = uni06D4;
rightMetricsKey = "=65";
unicode = 06D4;
}
{
glyphname = "hizb-ar";
layers = (
{
layerId = "307C4A58-79B8-4138-817C-FBEE21722E1A";
paths = (
{
closed = 1;
nodes = (
"909 518 LINE",
"909 732 LINE",
"694 732 LINE",
"542 884 LINE",
"391 732 LINE",
"176 732 LINE",
"176 518 LINE",
"24 366 LINE",
"176 214 LINE",
"176 0 LINE",
"391 0 LINE",
"542 -152 LINE",
"694 0 LINE",
"909 0 LINE",
"909 214 LINE",
"1060 366 LINE"
);
},
{
closed = 1;
nodes = (
"354 37 LINE",
"213 37 LINE",
"213 178 LINE"
);
},
{
closed = 1;
nodes = (
"213 555 LINE",
"213 696 LINE",
"354 696 LINE"
);
},
{
closed = 1;
nodes = (
"730 696 LINE",
"872 696 LINE",
"872 555 LINE"
);
},
{
closed = 1;
nodes = (
"730 37 LINE",
"872 178 LINE",
"872 37 LINE"
);
},
{
closed = 1;
nodes = (
"642 0 LINE",
"542 -100 LINE",
"442 0 LINE"
);
},
{
closed = 1;
nodes = (
"176 266 LINE",
"76 366 LINE",
"176 466 LINE"
);
},
{
closed = 1;
nodes = (
"442 732 LINE",
"542 833 LINE",
"642 732 LINE"
);
},
{
closed = 1;
nodes = (
"872 229 LINE",
"679 37 LINE",
"406 37 LINE",
"213 229 LINE",
"213 503 LINE",
"406 696 LINE",
"679 696 LINE",
"872 503 LINE"
);
},
{
closed = 1;
nodes = (
"909 266 LINE",
"909 466 LINE",
"1008 366 LINE"
);
},
{
closed = 1;
nodes = (
"648 425 OFFCURVE",
"601 472 OFFCURVE",
"542 472 CURVE SMOOTH",
"485 472 OFFCURVE",
"436 425 OFFCURVE",
"436 366 CURVE SMOOTH",
"436 307 OFFCURVE",
"485 260 OFFCURVE",
"542 260 CURVE SMOOTH",
"601 260 OFFCURVE",
"648 307 OFFCURVE",
"648 366 CURVE SMOOTH"
);
},
{
closed = 1;
nodes = (
"612 327 OFFCURVE",
"581 296 OFFCURVE",
"542 296 CURVE SMOOTH",
"503 296 OFFCURVE",
"473 327 OFFCURVE",
"473 366 CURVE SMOOTH",
"473 405 OFFCURVE",
"503 436 OFFCURVE",
"542 436 CURVE SMOOTH",
"581 436 OFFCURVE",
"612 405 OFFCURVE",
"612 366 CURVE SMOOTH"
);
}
);
userData = {
assembly = "NPUSHB[ ]	/* 74 values pushed */
45 0 46 14 2 2 44 22 25 48 60 35 29 66 54 41 21 17 17 33 9 6 32 8 8 6 54 29 60 25 0 7 73 72 39 36 36 14 20 10 10 23 63 8 32 0 45 51 32 45 57 69 14 57 69 69 57 14 3 6 35 12 42 28 28 29 4 6 25 2 2 17 6 18 
SVTCA[0]	/* SetFreedomAndProjectionVectorToAxis */
MIAP[1]	/* MoveIndirectAbsPt */
MDRP[01101]	/* MoveDirectRelPt */
SHP[1]	/* ShiftPointByLastPoint */
MDAP[1]	/* MoveDirectAbsPt */
MDRP[01101]	/* MoveDirectRelPt */
SRP0[ ]	/* SetRefPoint0 */
MDRP[01110]	/* MoveDirectRelPt */
SHP[0]	/* ShiftPointByLastPoint */
SHP[1]	/* ShiftPointByLastPoint */
MDAP[1]	/* MoveDirectAbsPt */
MDRP[01101]	/* MoveDirectRelPt */
MDAP[1]	/* MoveDirectAbsPt */
SHP[1]	/* ShiftPointByLastPoint */
SRP2[ ]	/* SetRefPoint2 */
SLOOP[ ]	/* SetLoopVariable */
IP[ ]	/* InterpolatePts */
MDAP[1]	/* MoveDirectAbsPt */
MDAP[1]	/* MoveDirectAbsPt */
MDAP[1]	/* MoveDirectAbsPt */
SRP1[ ]	/* SetRefPoint1 */
SRP2[ ]	/* SetRefPoint2 */
IP[ ]	/* InterpolatePts */
IP[ ]	/* InterpolatePts */
SHP[1]	/* ShiftPointByLastPoint */
SRP1[ ]	/* SetRefPoint1 */
SHP[1]	/* ShiftPointByLastPoint */
SRP1[ ]	/* SetRefPoint1 */
SHP[1]	/* ShiftPointByLastPoint */
SHP[0]	/* ShiftPointByLastPoint */
MDRP[01101]	/* MoveDirectRelPt */
SHP[1]	/* ShiftPointByLastPoint */
MDAP[1]	/* MoveDirectAbsPt */
MDRP[01101]	/* MoveDirectRelPt */
SRP1[ ]	/* SetRefPoint1 */
SHP[1]	/* ShiftPointByLastPoint */
MDAP[1]	/* MoveDirectAbsPt */
MDRP[01101]	/* MoveDirectRelPt */
SRP1[ ]	/* SetRefPoint1 */
SRP2[ ]	/* SetRefPoint2 */
SVTCA[1]	/* SetFreedomAndProjectionVectorToAxis */
SLOOP[ ]	/* SetLoopVariable */
IP[ ]	/* InterpolatePts */
SRP1[ ]	/* SetRefPoint1 */
SHP[1]	/* ShiftPointByLastPoint */
SRP1[ ]	/* SetRefPoint1 */
SHP[1]	/* ShiftPointByLastPoint */
SHP[1]	/* ShiftPointByLastPoint */
SHP[1]	/* ShiftPointByLastPoint */
SRP1[ ]	/* SetRefPoint1 */
SHP[1]	/* ShiftPointByLastPoint */
SHP[1]	/* ShiftPointByLastPoint */
SRP1[ ]	/* SetRefPoint1 */
SHP[1]	/* ShiftPointByLastPoint */
SRP1[ ]	/* SetRefPoint1 */
SHP[1]	/* ShiftPointByLastPoint */
SRP1[ ]	/* SetRefPoint1 */
SHP[1]	/* ShiftPointByLastPoint */
SRP1[ ]	/* SetRefPoint1 */
SHP[1]	/* ShiftPointByLastPoint */
SHP[1]	/* ShiftPointByLastPoint */
SHP[1]	/* ShiftPointByLastPoint */
SRP1[ ]	/* SetRefPoint1 */
SHP[1]	/* ShiftPointByLastPoint */
SHP[1]	/* ShiftPointByLastPoint */
SRP1[ ]	/* SetRefPoint1 */
SHP[1]	/* ShiftPointByLastPoint */
IUP[1]	/* InterpolateUntPts */
IUP[0]	/* InterpolateUntPts */";
};
width = 1084;
},
{
layerId = "15908E2C-AB74-4DC1-B0E7-8741EE8F4DA5";
paths = (
{
closed = 1;
nodes = (
"909 518 LINE",
"909 732 LINE",
"694 732 LINE",
"542 884 LINE",
"391 732 LINE",
"176 732 LINE",
"176 518 LINE",
"24 366 LINE",
"176 214 LINE",
"176 0 LINE",
"391 0 LINE",
"542 -152 LINE",
"694 0 LINE",
"909 0 LINE",
"909 214 LINE",
"1060 366 LINE"
);
},
{
closed = 1;
nodes = (
"354 37 LINE",
"213 37 LINE",
"213 178 LINE"
);
},
{
closed = 1;
nodes = (
"213 555 LINE",
"213 696 LINE",
"354 696 LINE"
);
},
{
closed = 1;
nodes = (
"730 696 LINE",
"872 696 LINE",
"872 555 LINE"
);
},
{
closed = 1;
nodes = (
"730 37 LINE",
"872 178 LINE",
"872 37 LINE"
);
},
{
closed = 1;
nodes = (
"642 0 LINE",
"542 -100 LINE",
"442 0 LINE"
);
},
{
closed = 1;
nodes = (
"176 266 LINE",
"76 366 LINE",
"176 466 LINE"
);
},
{
closed = 1;
nodes = (
"442 732 LINE",
"542 833 LINE",
"642 732 LINE"
);
},
{
closed = 1;
nodes = (
"872 229 LINE",
"679 37 LINE",
"406 37 LINE",
"213 229 LINE",
"213 503 LINE",
"406 696 LINE",
"679 696 LINE",
"872 503 LINE"
);
},
{
closed = 1;
nodes = (
"909 266 LINE",
"909 466 LINE",
"1008 366 LINE"
);
},
{
closed = 1;
nodes = (
"648 425 OFFCURVE",
"601 472 OFFCURVE",
"542 472 CURVE SMOOTH",
"485 472 OFFCURVE",
"436 425 OFFCURVE",
"436 366 CURVE SMOOTH",
"436 307 OFFCURVE",
"485 260 OFFCURVE",
"542 260 CURVE SMOOTH",
"601 260 OFFCURVE",
"648 307 OFFCURVE",
"648 366 CURVE SMOOTH"
);
},
{
closed = 1;
nodes = (
"612 327 OFFCURVE",
"581 296 OFFCURVE",
"542 296 CURVE SMOOTH",
"503 296 OFFCURVE",
"473 327 OFFCURVE",
"473 366 CURVE SMOOTH",
"473 405 OFFCURVE",
"503 436 OFFCURVE",
"542 436 CURVE SMOOTH",
"581 436 OFFCURVE",
"612 405 OFFCURVE",
"612 366 CURVE SMOOTH"
);
}
);
userData = {
assembly = "NPUSHB[ ]	/* 74 values pushed */
45 0 46 14 2 2 44 22 25 48 60 35 29 66 54 41 21 17 17 33 9 6 32 8 8 6 54 29 60 25 0 7 73 72 39 36 36 14 20 10 10 23 63 8 32 0 45 51 32 45 57 69 14 57 69 69 57 14 3 6 35 12 42 28 28 29 4 6 25 2 2 17 6 18 
SVTCA[0]	/* SetFreedomAndProjectionVectorToAxis */
MIAP[1]	/* MoveIndirectAbsPt */
MDRP[01101]	/* MoveDirectRelPt */
SHP[1]	/* ShiftPointByLastPoint */
MDAP[1]	/* MoveDirectAbsPt */
MDRP[01101]	/* MoveDirectRelPt */
SRP0[ ]	/* SetRefPoint0 */
MDRP[01110]	/* MoveDirectRelPt */
SHP[0]	/* ShiftPointByLastPoint */
SHP[1]	/* ShiftPointByLastPoint */
MDAP[1]	/* MoveDirectAbsPt */
MDRP[01101]	/* MoveDirectRelPt */
MDAP[1]	/* MoveDirectAbsPt */
SHP[1]	/* ShiftPointByLastPoint */
SRP2[ ]	/* SetRefPoint2 */
SLOOP[ ]	/* SetLoopVariable */
IP[ ]	/* InterpolatePts */
MDAP[1]	/* MoveDirectAbsPt */
MDAP[1]	/* MoveDirectAbsPt */
MDAP[1]	/* MoveDirectAbsPt */
SRP1[ ]	/* SetRefPoint1 */
SRP2[ ]	/* SetRefPoint2 */
IP[ ]	/* InterpolatePts */
IP[ ]	/* InterpolatePts */
SHP[1]	/* ShiftPointByLastPoint */
SRP1[ ]	/* SetRefPoint1 */
SHP[1]	/* ShiftPointByLastPoint */
SRP1[ ]	/* SetRefPoint1 */
SHP[1]	/* ShiftPointByLastPoint */
SHP[0]	/* ShiftPointByLastPoint */
MDRP[01101]	/* MoveDirectRelPt */
SHP[1]	/* ShiftPointByLastPoint */
MDAP[1]	/* MoveDirectAbsPt */
MDRP[01101]	/* MoveDirectRelPt */
SRP1[ ]	/* SetRefPoint1 */
SHP[1]	/* ShiftPointByLastPoint */
MDAP[1]	/* MoveDirectAbsPt */
MDRP[01101]	/* MoveDirectRelPt */
SRP1[ ]	/* SetRefPoint1 */
SRP2[ ]	/* SetRefPoint2 */
SVTCA[1]	/* SetFreedomAndProjectionVectorToAxis */
SLOOP[ ]	/* SetLoopVariable */
IP[ ]	/* InterpolatePts */
SRP1[ ]	/* SetRefPoint1 */
SHP[1]	/* ShiftPointByLastPoint */
SRP1[ ]	/* SetRefPoint1 */
SHP[1]	/* ShiftPointByLastPoint */
SHP[1]	/* ShiftPointByLastPoint */
SHP[1]	/* ShiftPointByLastPoint */
SRP1[ ]	/* SetRefPoint1 */
SHP[1]	/* ShiftPointByLastPoint */
SHP[1]	/* ShiftPointByLastPoint */
SRP1[ ]	/* SetRefPoint1 */
SHP[1]	/* ShiftPointByLastPoint */
SRP1[ ]	/* SetRefPoint1 */
SHP[1]	/* ShiftPointByLastPoint */
SRP1[ ]	/* SetRefPoint1 */
SHP[1]	/* ShiftPointByLastPoint */
SRP1[ ]	/* SetRefPoint1 */
SHP[1]	/* ShiftPointByLastPoint */
SHP[1]	/* ShiftPointByLastPoint */
SHP[1]	/* ShiftPointByLastPoint */
SRP1[ ]	/* SetRefPoint1 */
SHP[1]	/* ShiftPointByLastPoint */
SHP[1]	/* ShiftPointByLastPoint */
SRP1[ ]	/* SetRefPoint1 */
SHP[1]	/* ShiftPointByLastPoint */
IUP[1]	/* InterpolateUntPts */
IUP[0]	/* InterpolateUntPts */";
};
width = 1084;
},
{
layerId = "410295A1-92BC-4707-ABFC-13885E60878B";
paths = (
{
closed = 1;
nodes = (
"909 518 LINE",
"909 732 LINE",
"694 732 LINE",
"542 884 LINE",
"391 732 LINE",
"176 732 LINE",
"176 518 LINE",
"24 366 LINE",
"176 214 LINE",
"176 0 LINE",
"391 0 LINE",
"542 -152 LINE",
"694 0 LINE",
"909 0 LINE",
"909 214 LINE",
"1060 366 LINE"
);
},
{
closed = 1;
nodes = (
"354 37 LINE",
"213 37 LINE",
"213 178 LINE"
);
},
{
closed = 1;
nodes = (
"213 555 LINE",
"213 696 LINE",
"354 696 LINE"
);
},
{
closed = 1;
nodes = (
"730 696 LINE",
"872 696 LINE",
"872 555 LINE"
);
},
{
closed = 1;
nodes = (
"730 37 LINE",
"872 178 LINE",
"872 37 LINE"
);
},
{
closed = 1;
nodes = (
"642 0 LINE",
"542 -100 LINE",
"442 0 LINE"
);
},
{
closed = 1;
nodes = (
"176 266 LINE",
"76 366 LINE",
"176 466 LINE"
);
},
{
closed = 1;
nodes = (
"442 732 LINE",
"542 833 LINE",
"642 732 LINE"
);
},
{
closed = 1;
nodes = (
"872 229 LINE",
"679 37 LINE",
"406 37 LINE",
"213 229 LINE",
"213 503 LINE",
"406 696 LINE",
"679 696 LINE",
"872 503 LINE"
);
},
{
closed = 1;
nodes = (
"909 266 LINE",
"909 466 LINE",
"1008 366 LINE"
);
},
{
closed = 1;
nodes = (
"648 425 OFFCURVE",
"601 472 OFFCURVE",
"542 472 CURVE SMOOTH",
"485 472 OFFCURVE",
"436 425 OFFCURVE",
"436 366 CURVE SMOOTH",
"436 307 OFFCURVE",
"485 260 OFFCURVE",
"542 260 CURVE SMOOTH",
"601 260 OFFCURVE",
"648 307 OFFCURVE",
"648 366 CURVE SMOOTH"
);
},
{
closed = 1;
nodes = (
"612 327 OFFCURVE",
"581 296 OFFCURVE",
"542 296 CURVE SMOOTH",
"503 296 OFFCURVE",
"473 327 OFFCURVE",
"473 366 CURVE SMOOTH",
"473 405 OFFCURVE",
"503 436 OFFCURVE",
"542 436 CURVE SMOOTH",
"581 436 OFFCURVE",
"612 405 OFFCURVE",
"612 366 CURVE SMOOTH"
);
}
);
width = 1084;
},
{
layerId = "DCD2D043-4E01-4B5D-9248-443A06E88532";
paths = (
{
closed = 1;
nodes = (
"909 518 LINE",
"909 732 LINE",
"694 732 LINE",
"542 884 LINE",
"391 732 LINE",
"176 732 LINE",
"176 518 LINE",
"24 366 LINE",
"176 214 LINE",
"176 0 LINE",
"391 0 LINE",
"542 -152 LINE",
"694 0 LINE",
"909 0 LINE",
"909 214 LINE",
"1060 366 LINE"
);
},
{
closed = 1;
nodes = (
"354 37 LINE",
"213 37 LINE",
"213 178 LINE"
);
},
{
closed = 1;
nodes = (
"213 555 LINE",
"213 696 LINE",
"354 696 LINE"
);
},
{
closed = 1;
nodes = (
"730 696 LINE",
"872 696 LINE",
"872 555 LINE"
);
},
{
closed = 1;
nodes = (
"730 37 LINE",
"872 178 LINE",
"872 37 LINE"
);
},
{
closed = 1;
nodes = (
"642 0 LINE",
"542 -100 LINE",
"442 0 LINE"
);
},
{
closed = 1;
nodes = (
"176 266 LINE",
"76 366 LINE",
"176 466 LINE"
);
},
{
closed = 1;
nodes = (
"442 732 LINE",
"542 833 LINE",
"642 732 LINE"
);
},
{
closed = 1;
nodes = (
"872 229 LINE",
"679 37 LINE",
"406 37 LINE",
"213 229 LINE",
"213 503 LINE",
"406 696 LINE",
"679 696 LINE",
"872 503 LINE"
);
},
{
closed = 1;
nodes = (
"909 266 LINE",
"909 466 LINE",
"1008 366 LINE"
);
},
{
closed = 1;
nodes = (
"648 425 OFFCURVE",
"601 472 OFFCURVE",
"542 472 CURVE SMOOTH",
"485 472 OFFCURVE",
"436 425 OFFCURVE",
"436 366 CURVE SMOOTH",
"436 307 OFFCURVE",
"485 260 OFFCURVE",
"542 260 CURVE SMOOTH",
"601 260 OFFCURVE",
"648 307 OFFCURVE",
"648 366 CURVE SMOOTH"
);
},
{
closed = 1;
nodes = (
"612 327 OFFCURVE",
"581 296 OFFCURVE",
"542 296 CURVE SMOOTH",
"503 296 OFFCURVE",
"473 327 OFFCURVE",
"473 366 CURVE SMOOTH",
"473 405 OFFCURVE",
"503 436 OFFCURVE",
"542 436 CURVE SMOOTH",
"581 436 OFFCURVE",
"612 405 OFFCURVE",
"612 366 CURVE SMOOTH"
);
}
);
width = 1084;
}
);
note = uni06DE;
unicode = 06DE;
}
{
glyphname = "jazm-ar";
layers = (
{
anchors = (
{
name = _top.far;
position = "{100, 759}";
},
{
name = top.near;
position = "{100, 1007}";
}
);
layerId = "307C4A58-79B8-4138-817C-FBEE21722E1A";
paths = (
{
closed = 1;
nodes = (
"124 807 OFFCURVE",
"183 900 OFFCURVE",
"201 988 CURVE",
"0 988 LINE",
"0 908 LINE",
"60 908 LINE",
"60 928 LINE",
"114 928 LINE",
"91 892 OFFCURVE",
"55 867 OFFCURVE",
"0 867 CURVE",
"0 807 LINE"
);
}
);
userData = {
assembly = "NPUSHB[ ]	/* 10 values pushed */
12 47 17 63 17 2 17 22 6 23 
SVTCA[0]	/* SetFreedomAndProjectionVectorToAxis */
MDAP[1]	/* MoveDirectAbsPt */
MDRP[01101]	/* MoveDirectRelPt */
SHP[0]	/* ShiftPointByLastPoint */
MDRP[11101]	/* MoveDirectRelPt */
DELTAP1[ ]	/* DeltaExceptionP1 */
MDRP[01101]	/* MoveDirectRelPt */
IUP[1]	/* InterpolateUntPts */
IUP[0]	/* InterpolateUntPts */";
};
width = 201;
},
{
anchors = (
{
name = _top.far;
position = "{101, 759}";
},
{
name = top.near;
position = "{101, 1003}";
}
);
layerId = "15908E2C-AB74-4DC1-B0E7-8741EE8F4DA5";
paths = (
{
closed = 1;
nodes = (
"124 819 OFFCURVE",
"183 906 OFFCURVE",
"201 988 CURVE",
"0 988 LINE",
"0 916 LINE",
"52 916 LINE",
"52 936 LINE",
"125 936 LINE",
"101 898 OFFCURVE",
"61 871 OFFCURVE",
"0 871 CURVE",
"0 819 LINE"
);
}
);
userData = {
assembly = "NPUSHB[ ]	/* 10 values pushed */
11 47 16 63 16 2 16 21 6 22 
SVTCA[0]	/* SetFreedomAndProjectionVectorToAxis */
MDAP[1]	/* MoveDirectAbsPt */
MDRP[01101]	/* MoveDirectRelPt */
SHP[0]	/* ShiftPointByLastPoint */
MDRP[11100]	/* MoveDirectRelPt */
DELTAP1[ ]	/* DeltaExceptionP1 */
MDRP[01101]	/* MoveDirectRelPt */
IUP[1]	/* InterpolateUntPts */
IUP[0]	/* InterpolateUntPts */";
};
width = 201;
},
{
anchors = (
{
name = _top.far;
position = "{102, 779}";
},
{
name = top.near;
position = "{98, 1019}";
}
);
layerId = "410295A1-92BC-4707-ABFC-13885E60878B";
paths = (
{
closed = 1;
nodes = (
"124 819 OFFCURVE",
"183 906 OFFCURVE",
"201 988 CURVE",
"0 988 LINE",
"0 936 LINE",
"22 936 LINE",
"22 966 LINE",
"172 966 LINE",
"150 900 OFFCURVE",
"97 841 OFFCURVE",
"0 841 CURVE",
"0 819 LINE"
);
}
);
width = 201;
},
{
anchors = (
{
name = _top.far;
position = "{101, 759}";
},
{
name = top.near;
position = "{101, 1010}";
}
);
layerId = "DCD2D043-4E01-4B5D-9248-443A06E88532";
paths = (
{
closed = 1;
nodes = (
"124 786 OFFCURVE",
"183 890 OFFCURVE",
"201 988 CURVE",
"0 988 LINE",
"0 900 LINE",
"68 900 LINE",
"68 920 LINE",
"107 920 LINE",
"84 880 OFFCURVE",
"50 854 OFFCURVE",
"0 854 CURVE",
"0 786 LINE"
);
}
);
width = 201;
}
);
leftMetricsKey = "=0";
note = uni06E1;
rightMetricsKey = "=0";
unicode = 06E1;
}
{
glyphname = "kafRing-ar";
layers = (
{
anchors = (
{
name = bottom;
position = "{391, -78}";
},
{
name = top.far;
position = "{342, 732}";
},
{
name = top.near;
position = "{342, 732}";
}
);
layerId = "307C4A58-79B8-4138-817C-FBEE21722E1A";
paths = (
{
closed = 1;
nodes = (
"717 488 OFFCURVE",
"761 530 OFFCURVE",
"761 594 CURVE SMOOTH",
"761 637 OFFCURVE",
"739 669 OFFCURVE",
"706 685 CURVE",
"727 696 OFFCURVE",
"746 703 OFFCURVE",
"762 708 CURVE",
"707 842 LINE",
"559 789 OFFCURVE",
"422 651 OFFCURVE",
"334 463 CURVE",
"334 355 LINE",
"504 355 LINE SMOOTH",
"605 355 OFFCURVE",
"663 311 OFFCURVE",
"663 230 CURVE SMOOTH",
"663 120 LINE",
"308 120 LINE SMOOTH",
"251 120 OFFCURVE",
"214 159 OFFCURVE",
"214 223 CURVE SMOOTH",
"214 257 OFFCURVE",
"219 301 OFFCURVE",
"229 354 CURVE",
"97 354 LINE",
"76 305 OFFCURVE",
"65 254 OFFCURVE",
"65 201 CURVE SMOOTH",
"65 76 OFFCURVE",
"140 0 OFFCURVE",
"264 0 CURVE SMOOTH",
"812 0 LINE",
"812 249 LINE SMOOTH",
"812 397 OFFCURVE",
"715 475 OFFCURVE",
"527 475 CURVE SMOOTH",
"489 475 LINE",
"511 508 OFFCURVE",
"530 534 OFFCURVE",
"546 552 CURVE",
"561 511 OFFCURVE",
"598 488 OFFCURVE",
"649 488 CURVE SMOOTH"
);
},
{
closed = 1;
nodes = (
"620 549 OFFCURVE",
"605 565 OFFCURVE",
"605 593 CURVE SMOOTH",
"605 620 OFFCURVE",
"622 637 OFFCURVE",
"649 637 CURVE SMOOTH",
"674 637 OFFCURVE",
"693 620 OFFCURVE",
"693 593 CURVE SMOOTH",
"693 565 OFFCURVE",
"674 549 OFFCURVE",
"649 549 CURVE SMOOTH"
);
}
);
userData = {
assembly = "NPUSHB[ ]	/* 59 values pushed */
24 9 38 44 50 3 5 29 19 14 14 29 3 44 33 9 6 54 53 35 47 3 3 32 41 0 0 16 0 2 9 4 0 6 64 29 6 6 27 70 89 0 6 1 12 3 6 17 6 17 11 32 1 11 22 70 89 11 18 
SVTCA[0]	/* SetFreedomAndProjectionVectorToAxis */
MIAP[1]	/* MoveIndirectAbsPt */
CALL[ ]	/* CallFunction */
SVTCA[0]	/* SetFreedomAndProjectionVectorToAxis */
RTG[ ]	/* RoundToGrid */
MIAP[1]	/* MoveIndirectAbsPt */
SRP2[ ]	/* SetRefPoint2 */
IP[ ]	/* InterpolatePts */
IP[ ]	/* InterpolatePts */
MDAP[1]	/* MoveDirectAbsPt */
MDAP[1]	/* MoveDirectAbsPt */
SDS[ ]	/* SetDeltaShiftInGState */
SDB[ ]	/* SetDeltaBaseInGState */
DELTAP1[ ]	/* DeltaExceptionP1 */
CALL[ ]	/* CallFunction */
SRP1[ ]	/* SetRefPoint1 */
SVTCA[0]	/* SetFreedomAndProjectionVectorToAxis */
SHP[1]	/* ShiftPointByLastPoint */
SMD[ ]	/* SetMinimumDistance */
RTG[ ]	/* RoundToGrid */
SRP0[ ]	/* SetRefPoint0 */
MDRP[01110]	/* MoveDirectRelPt */
SDS[ ]	/* SetDeltaShiftInGState */
SDB[ ]	/* SetDeltaBaseInGState */
DELTAP1[ ]	/* DeltaExceptionP1 */
SHP[0]	/* ShiftPointByLastPoint */
SRP1[ ]	/* SetRefPoint1 */
SLOOP[ ]	/* SetLoopVariable */
IP[ ]	/* InterpolatePts */
SRP1[ ]	/* SetRefPoint1 */
SRP2[ ]	/* SetRefPoint2 */
SVTCA[1]	/* SetFreedomAndProjectionVectorToAxis */
SLOOP[ ]	/* SetLoopVariable */
IP[ ]	/* InterpolatePts */
SRP1[ ]	/* SetRefPoint1 */
SHP[1]	/* ShiftPointByLastPoint */
SRP1[ ]	/* SetRefPoint1 */
SHP[1]	/* ShiftPointByLastPoint */
SRP1[ ]	/* SetRefPoint1 */
SHP[1]	/* ShiftPointByLastPoint */
SRP1[ ]	/* SetRefPoint1 */
SHP[1]	/* ShiftPointByLastPoint */
SRP1[ ]	/* SetRefPoint1 */
SHP[1]	/* ShiftPointByLastPoint */
IUP[1]	/* InterpolateUntPts */
IUP[0]	/* InterpolateUntPts */";
};
width = 887;
},
{
anchors = (
{
name = bottom;
position = "{391, -78}";
},
{
name = top.far;
position = "{342, 732}";
},
{
name = top.near;
position = "{342, 732}";
}
);
layerId = "15908E2C-AB74-4DC1-B0E7-8741EE8F4DA5";
paths = (
{
closed = 1;
nodes = (
"646 513 OFFCURVE",
"689 556 OFFCURVE",
"689 619 CURVE SMOOTH",
"689 666 OFFCURVE",
"665 699 OFFCURVE",
"626 714 CURVE",
"637 719 OFFCURVE",
"654 727 OFFCURVE",
"678 738 CURVE",
"646 814 LINE",
"506 761 OFFCURVE",
"359 624 OFFCURVE",
"294 489 CURVE",
"294 407 LINE",
"464 407 LINE SMOOTH",
"589 407 OFFCURVE",
"648 362 OFFCURVE",
"648 262 CURVE SMOOTH",
"648 78 LINE",
"249 78 LINE SMOOTH",
"188 78 OFFCURVE",
"150 120 OFFCURVE",
"150 189 CURVE SMOOTH",
"150 217 OFFCURVE",
"155 259 OFFCURVE",
"165 314 CURVE",
"85 314 LINE",
"73 269 OFFCURVE",
"65 214 OFFCURVE",
"65 179 CURVE SMOOTH",
"65 64 OFFCURVE",
"131 0 OFFCURVE",
"252 0 CURVE SMOOTH",
"733 0 LINE",
"733 277 LINE SMOOTH",
"733 410 OFFCURVE",
"639 485 OFFCURVE",
"464 485 CURVE SMOOTH",
"377 485 LINE",
"395 522 OFFCURVE",
"425 561 OFFCURVE",
"468 602 CURVE",
"475 545 OFFCURVE",
"517 513 OFFCURVE",
"577 513 CURVE SMOOTH"
);
},
{
closed = 1;
nodes = (
"541 563 OFFCURVE",
"522 583 OFFCURVE",
"522 618 CURVE SMOOTH",
"522 654 OFFCURVE",
"545 673 OFFCURVE",
"577 673 CURVE SMOOTH",
"609 673 OFFCURVE",
"632 654 OFFCURVE",
"632 618 CURVE SMOOTH",
"632 583 OFFCURVE",
"609 563 OFFCURVE",
"577 563 CURVE SMOOTH"
);
}
);
userData = {
assembly = "NPUSHB[ ]	/* 55 values pushed */
25 9 46 40 52 3 5 30 20 14 14 30 3 35 40 9 6 56 55 43 3 49 37 4 0 34 1 18 18 5 11 11 23 70 89 11 18 0 0 16 0 2 9 4 0 5 64 30 5 5 29 70 89 5 15 
SVTCA[0]	/* SetFreedomAndProjectionVectorToAxis */
MIAP[1]	/* MoveIndirectAbsPt */
CALL[ ]	/* CallFunction */
SRP1[ ]	/* SetRefPoint1 */
SVTCA[0]	/* SetFreedomAndProjectionVectorToAxis */
SHP[1]	/* ShiftPointByLastPoint */
SMD[ ]	/* SetMinimumDistance */
RTG[ ]	/* RoundToGrid */
SRP0[ ]	/* SetRefPoint0 */
MDRP[01110]	/* MoveDirectRelPt */
SDS[ ]	/* SetDeltaShiftInGState */
SDB[ ]	/* SetDeltaBaseInGState */
DELTAP1[ ]	/* DeltaExceptionP1 */
MIAP[1]	/* MoveIndirectAbsPt */
CALL[ ]	/* CallFunction */
SRP1[ ]	/* SetRefPoint1 */
SRP2[ ]	/* SetRefPoint2 */
SVTCA[0]	/* SetFreedomAndProjectionVectorToAxis */
IP[ ]	/* InterpolatePts */
RTG[ ]	/* RoundToGrid */
MDAP[1]	/* MoveDirectAbsPt */
MIAP[1]	/* MoveIndirectAbsPt */
SRP2[ ]	/* SetRefPoint2 */
SLOOP[ ]	/* SetLoopVariable */
IP[ ]	/* InterpolatePts */
SRP1[ ]	/* SetRefPoint1 */
SRP2[ ]	/* SetRefPoint2 */
SVTCA[1]	/* SetFreedomAndProjectionVectorToAxis */
SLOOP[ ]	/* SetLoopVariable */
IP[ ]	/* InterpolatePts */
SRP1[ ]	/* SetRefPoint1 */
SHP[1]	/* ShiftPointByLastPoint */
SRP1[ ]	/* SetRefPoint1 */
SHP[1]	/* ShiftPointByLastPoint */
SRP1[ ]	/* SetRefPoint1 */
SHP[1]	/* ShiftPointByLastPoint */
SRP1[ ]	/* SetRefPoint1 */
SHP[1]	/* ShiftPointByLastPoint */
SRP1[ ]	/* SetRefPoint1 */
SHP[1]	/* ShiftPointByLastPoint */
IUP[1]	/* InterpolateUntPts */
IUP[0]	/* InterpolateUntPts */";
};
width = 808;
},
{
anchors = (
{
name = bottom;
position = "{391, -78}";
},
{
name = top.far;
position = "{342, 732}";
},
{
name = top.near;
position = "{342, 732}";
}
);
layerId = "410295A1-92BC-4707-ABFC-13885E60878B";
paths = (
{
closed = 1;
nodes = (
"545 569 OFFCURVE",
"581 602 OFFCURVE",
"581 649 CURVE SMOOTH",
"581 691 OFFCURVE",
"556 720 OFFCURVE",
"517 726 CURVE",
"543 741 OFFCURVE",
"570 753 OFFCURVE",
"595 763 CURVE",
"586 786 LINE",
"449 733 OFFCURVE",
"314 618 OFFCURVE",
"255 494 CURVE",
"255 470 LINE",
"431 470 LINE SMOOTH",
"566 470 OFFCURVE",
"631 416 OFFCURVE",
"631 252 CURVE SMOOTH",
"631 24 LINE",
"202 24 LINE SMOOTH",
"124 24 OFFCURVE",
"89 70 OFFCURVE",
"89 158 CURVE SMOOTH",
"89 197 OFFCURVE",
"93 237 OFFCURVE",
"103 274 CURVE",
"80 274 LINE",
"69 233 OFFCURVE",
"65 195 OFFCURVE",
"65 157 CURVE SMOOTH",
"65 49 OFFCURVE",
"116 0 OFFCURVE",
"203 0 CURVE SMOOTH",
"655 0 LINE",
"655 254 LINE SMOOTH",
"655 431 OFFCURVE",
"577 494 OFFCURVE",
"431 494 CURVE SMOOTH",
"281 494 LINE",
"305 550 OFFCURVE",
"358 610 OFFCURVE",
"423 662 CURVE",
"413 604 OFFCURVE",
"449 569 OFFCURVE",
"501 569 CURVE SMOOTH"
);
},
{
closed = 1;
nodes = (
"465 593 OFFCURVE",
"443 613 OFFCURVE",
"443 650 CURVE SMOOTH",
"443 686 OFFCURVE",
"469 707 OFFCURVE",
"500 707 CURVE SMOOTH",
"531 707 OFFCURVE",
"557 686 OFFCURVE",
"557 650 CURVE SMOOTH",
"557 615 OFFCURVE",
"531 593 OFFCURVE",
"500 593 CURVE SMOOTH"
);
}
);
width = 729;
},
{
anchors = (
{
name = bottom;
position = "{391, -78}";
},
{
name = top.far;
position = "{342, 732}";
},
{
name = top.near;
position = "{342, 732}";
}
);
layerId = "DCD2D043-4E01-4B5D-9248-443A06E88532";
paths = (
{
closed = 1;
nodes = (
"761 487 OFFCURVE",
"810 530 OFFCURVE",
"810 596 CURVE SMOOTH",
"810 636 OFFCURVE",
"790 668 OFFCURVE",
"760 685 CURVE",
"793 700 OFFCURVE",
"814 707 OFFCURVE",
"827 711 CURVE",
"748 866 LINE",
"588 815 OFFCURVE",
"405 621 OFFCURVE",
"361 446 CURVE",
"361 320 LINE",
"531 320 LINE SMOOTH",
"616 320 OFFCURVE",
"673 277 OFFCURVE",
"673 209 CURVE SMOOTH",
"673 148 LINE",
"347 148 LINE SMOOTH",
"293 148 OFFCURVE",
"257 185 OFFCURVE",
"257 246 CURVE SMOOTH",
"257 284 OFFCURVE",
"262 329 OFFCURVE",
"272 381 CURVE",
"105 381 LINE",
"78 329 OFFCURVE",
"65 280 OFFCURVE",
"65 216 CURVE SMOOTH",
"65 83 OFFCURVE",
"146 0 OFFCURVE",
"272 0 CURVE SMOOTH",
"865 0 LINE",
"865 230 LINE SMOOTH",
"865 388 OFFCURVE",
"766 468 OFFCURVE",
"569 468 CURVE SMOOTH",
"536 468 LINE",
"543 488 OFFCURVE",
"571 532 OFFCURVE",
"599 555 CURVE",
"613 514 OFFCURVE",
"654 487 OFFCURVE",
"701 487 CURVE SMOOTH"
);
},
{
closed = 1;
nodes = (
"677 559 OFFCURVE",
"661 572 OFFCURVE",
"661 595 CURVE SMOOTH",
"661 616 OFFCURVE",
"675 632 OFFCURVE",
"698 632 CURVE SMOOTH",
"719 632 OFFCURVE",
"735 616 OFFCURVE",
"735 595 CURVE SMOOTH",
"735 572 OFFCURVE",
"719 559 OFFCURVE",
"698 559 CURVE SMOOTH"
);
}
);
width = 939.66667;
}
);
note = uni06AB;
unicode = 06AB;
}
{
glyphname = "kafswash-ar";
layers = (
{
anchors = (
{
name = bottom;
position = "{586, -78}";
},
{
name = top.far;
position = "{459, 684}";
},
{
name = top.near;
position = "{459, 684}";
}
);
layerId = "307C4A58-79B8-4138-817C-FBEE21722E1A";
paths = (
{
closed = 1;
nodes = (
"1080 0 LINE",
"1080 139 LINE SMOOTH",
"1080 287 OFFCURVE",
"984 365 OFFCURVE",
"795 365 CURVE SMOOTH",
"395 365 LINE",
"440 436 OFFCURVE",
"553 512 OFFCURVE",
"668 547 CURVE",
"613 681 LINE",
"444 621 OFFCURVE",
"311 504 OFFCURVE",
"240 353 CURVE",
"240 245 LINE",
"772 245 LINE SMOOTH",
"873 245 OFFCURVE",
"931 202 OFFCURVE",
"931 121 CURVE",
"931 120 LINE",
"360 120 LINE SMOOTH",
"251 120 OFFCURVE",
"145 131 OFFCURVE",
"41 152 CURVE",
"20 64 LINE",
"113 24 OFFCURVE",
"267 0 OFFCURVE",
"408 0 CURVE SMOOTH"
);
}
);
width = 1155;
},
{
anchors = (
{
name = bottom;
position = "{586, -78}";
},
{
name = top.far;
position = "{459, 684}";
},
{
name = top.near;
position = "{459, 684}";
}
);
layerId = "15908E2C-AB74-4DC1-B0E7-8741EE8F4DA5";
paths = (
{
closed = 1;
nodes = (
"1058 0 LINE",
"1058 121 LINE SMOOTH",
"1058 254 OFFCURVE",
"964 329 OFFCURVE",
"789 329 CURVE SMOOTH",
"334 329 LINE",
"381 422 OFFCURVE",
"511 531 OFFCURVE",
"635 582 CURVE",
"603 658 LINE",
"466 605 OFFCURVE",
"316 470 OFFCURVE",
"251 333 CURVE",
"251 251 LINE",
"789 251 LINE SMOOTH",
"913 251 OFFCURVE",
"973 206 OFFCURVE",
"973 106 CURVE SMOOTH",
"973 78 LINE",
"311 78 LINE SMOOTH",
"168 78 OFFCURVE",
"122 85 OFFCURVE",
"30 108 CURVE",
"20 63 LINE",
"93 31 OFFCURVE",
"256 0 OFFCURVE",
"379 0 CURVE SMOOTH"
);
}
);
width = 1133;
},
{
anchors = (
{
name = bottom;
position = "{586, -78}";
},
{
name = top.far;
position = "{459, 684}";
},
{
name = top.near;
position = "{459, 684}";
}
);
layerId = "410295A1-92BC-4707-ABFC-13885E60878B";
paths = (
{
closed = 1;
nodes = (
"1036 0 LINE",
"1036 103 LINE SMOOTH",
"1036 241 OFFCURVE",
"953 293 OFFCURVE",
"805 293 CURVE SMOOTH",
"286 293 LINE",
"339 413 OFFCURVE",
"471 548 OFFCURVE",
"601 613 CURVE",
"593 636 LINE",
"457 571 OFFCURVE",
"324 431 OFFCURVE",
"262 295 CURVE",
"262 269 LINE",
"806 269 LINE SMOOTH",
"951 269 OFFCURVE",
"1012 217 OFFCURVE",
"1012 103 CURVE SMOOTH",
"1012 24 LINE",
"262 24 LINE SMOOTH",
"152 24 OFFCURVE",
"67 44 OFFCURVE",
"22 64 CURVE",
"17 53 LINE",
"95 15 OFFCURVE",
"164 0 OFFCURVE",
"275 0 CURVE SMOOTH"
);
}
);
width = 1111;
},
{
anchors = (
{
name = bottom;
position = "{586, -78}";
},
{
name = top.far;
position = "{459, 734}";
},
{
name = top.near;
position = "{459, 734}";
}
);
layerId = "DCD2D043-4E01-4B5D-9248-443A06E88532";
paths = (
{
closed = 1;
nodes = (
"1095 0 LINE",
"1095 151 LINE SMOOTH",
"1095 309 OFFCURVE",
"998 389 OFFCURVE",
"799 389 CURVE SMOOTH",
"436 389 LINE",
"480 445 OFFCURVE",
"581 500 OFFCURVE",
"690 524 CURVE",
"620 696 LINE",
"429 632 OFFCURVE",
"307 526 OFFCURVE",
"233 366 CURVE",
"233 241 LINE",
"761 241 LINE SMOOTH",
"859 241 OFFCURVE",
"903 199 OFFCURVE",
"903 161 CURVE SMOOTH",
"903 148 LINE",
"393 148 LINE SMOOTH",
"307 148 OFFCURVE",
"160 161 OFFCURVE",
"48 181 CURVE",
"20 65 LINE",
"127 19 OFFCURVE",
"274 0 OFFCURVE",
"427 0 CURVE SMOOTH"
);
}
);
width = 1169.66667;
}
);
note = uni06AA;
unicode = 06AA;
}
{
glyphname = "maddalong-ar";
layers = (
{
anchors = (
{
name = _top.far;
position = "{0, 547}";
},
{
name = top.near;
position = "{2, 634}";
}
);
layerId = "307C4A58-79B8-4138-817C-FBEE21722E1A";
paths = (
{
closed = 1;
nodes = (
"-62 547 LINE",
"-57 572 OFFCURVE",
"-50 582 OFFCURVE",
"-36 582 CURVE SMOOTH",
"-30 582 OFFCURVE",
"-18 576 OFFCURVE",
"0 564 CURVE SMOOTH",
"16 553 OFFCURVE",
"29 547 OFFCURVE",
"38 547 CURVE SMOOTH",
"69 547 OFFCURVE",
"87 579 OFFCURVE",
"92 629 CURVE",
"65 629 LINE",
"60 604 OFFCURVE",
"53 594 OFFCURVE",
"38 594 CURVE SMOOTH",
"32 594 OFFCURVE",
"22 600 OFFCURVE",
"5 612 CURVE SMOOTH",
"-12 624 OFFCURVE",
"-26 629 OFFCURVE",
"-36 629 CURVE SMOOTH",
"-67 629 OFFCURVE",
"-84 595 OFFCURVE",
"-89 547 CURVE"
);
}
);
userData = {
assembly = "PUSHB[ ]	/* 6 values pushed */
7 18 11 3 21 14 
SVTCA[0]	/* SetFreedomAndProjectionVectorToAxis */
MDAP[1]	/* MoveDirectAbsPt */
SHP[1]	/* ShiftPointByLastPoint */
MDRP[01101]	/* MoveDirectRelPt */
SHP[0]	/* ShiftPointByLastPoint */
IP[ ]	/* InterpolatePts */
IP[ ]	/* InterpolatePts */
IUP[1]	/* InterpolateUntPts */
IUP[0]	/* InterpolateUntPts */";
};
width = 0;
},
{
anchors = (
{
name = _top.far;
position = "{0, 556}";
},
{
name = top.near;
position = "{1, 629}";
}
);
layerId = "15908E2C-AB74-4DC1-B0E7-8741EE8F4DA5";
paths = (
{
closed = 1;
nodes = (
"-58 553 LINE",
"-53 576 OFFCURVE",
"-47 584 OFFCURVE",
"-33 584 CURVE SMOOTH",
"-25 584 OFFCURVE",
"-16 580 OFFCURVE",
"0 570 CURVE SMOOTH",
"16 560 OFFCURVE",
"28 555 OFFCURVE",
"39 555 CURVE SMOOTH",
"65 555 OFFCURVE",
"80 582 OFFCURVE",
"84 625 CURVE",
"60 625 LINE",
"55 602 OFFCURVE",
"51 594 OFFCURVE",
"40 594 CURVE SMOOTH",
"31 594 OFFCURVE",
"21 599 OFFCURVE",
"4 610 CURVE SMOOTH",
"-10 619 OFFCURVE",
"-24 623 OFFCURVE",
"-33 623 CURVE SMOOTH",
"-61 623 OFFCURVE",
"-78 600 OFFCURVE",
"-82 553 CURVE"
);
}
);
userData = {
assembly = "NPUSHB[ ]	/* 10 values pushed */
6 17 13 10 10 2 13 20 20 13 
SVTCA[0]	/* SetFreedomAndProjectionVectorToAxis */
MDAP[1]	/* MoveDirectAbsPt */
SHP[1]	/* ShiftPointByLastPoint */
MDAP[1]	/* MoveDirectAbsPt */
SRP0[ ]	/* SetRefPoint0 */
MDRP[01101]	/* MoveDirectRelPt */
SHP[0]	/* ShiftPointByLastPoint */
MDAP[1]	/* MoveDirectAbsPt */
SRP1[ ]	/* SetRefPoint1 */
IP[ ]	/* InterpolatePts */
IP[ ]	/* InterpolatePts */
IUP[1]	/* InterpolateUntPts */
IUP[0]	/* InterpolateUntPts */";
};
width = 0;
},
{
anchors = (
{
name = _top.far;
position = "{0, 562}";
},
{
name = top.near;
position = "{0, 629}";
}
);
layerId = "410295A1-92BC-4707-ABFC-13885E60878B";
paths = (
{
closed = 1;
nodes = (
"-55 559 LINE",
"-51 582 OFFCURVE",
"-45 588 OFFCURVE",
"-31 588 CURVE SMOOTH",
"-23 588 OFFCURVE",
"-14 585 OFFCURVE",
"0 578 CURVE SMOOTH",
"13 571 OFFCURVE",
"25 565 OFFCURVE",
"37 565 CURVE SMOOTH",
"57 565 OFFCURVE",
"71 586 OFFCURVE",
"71 621 CURVE",
"56 621 LINE",
"52 598 OFFCURVE",
"48 592 OFFCURVE",
"36 592 CURVE SMOOTH",
"28 592 OFFCURVE",
"17 598 OFFCURVE",
"6 604 CURVE SMOOTH",
"-9 612 OFFCURVE",
"-20 615 OFFCURVE",
"-30 615 CURVE SMOOTH",
"-50 615 OFFCURVE",
"-66 604 OFFCURVE",
"-70 559 CURVE"
);
}
);
width = 0;
},
{
anchors = (
{
name = _top.far;
position = "{0, 534}";
},
{
name = top.near;
position = "{3, 644}";
}
);
layerId = "DCD2D043-4E01-4B5D-9248-443A06E88532";
paths = (
{
closed = 1;
nodes = (
"-65 544 LINE",
"-60 571 OFFCURVE",
"-52 581 OFFCURVE",
"-40 581 CURVE SMOOTH",
"-31 581 OFFCURVE",
"-17 574 OFFCURVE",
"0 562 CURVE SMOOTH",
"17 550 OFFCURVE",
"30 542 OFFCURVE",
"44 542 CURVE SMOOTH",
"77 542 OFFCURVE",
"91 574 OFFCURVE",
"97 632 CURVE",
"68 632 LINE",
"63 605 OFFCURVE",
"55 595 OFFCURVE",
"42 595 CURVE SMOOTH",
"32 595 OFFCURVE",
"23 600 OFFCURVE",
"6 613 CURVE SMOOTH",
"-12 627 OFFCURVE",
"-27 632 OFFCURVE",
"-38 632 CURVE SMOOTH",
"-76 632 OFFCURVE",
"-88 594 OFFCURVE",
"-94 544 CURVE"
);
}
);
width = 0;
}
);
note = uni06E4;
unicode = 06E4;
}
{
glyphname = "seenabove-ar";
layers = (
{
anchors = (
{
name = _top.near;
position = "{317, 938}";
}
);
layerId = "307C4A58-79B8-4138-817C-FBEE21722E1A";
paths = (
{
closed = 1;
nodes = (
"505 1045 LINE",
"505 1243 LINE",
"445 1243 LINE",
"445 1093 LINE",
"420 1093 LINE SMOOTH",
"400 1093 OFFCURVE",
"388 1099 OFFCURVE",
"375 1116 CURVE",
"376 1122 OFFCURVE",
"377 1128 OFFCURVE",
"377 1135 CURVE SMOOTH",
"377 1212 LINE",
"317 1212 LINE",
"317 1140 LINE SMOOTH",
"317 1111 OFFCURVE",
"308 1093 OFFCURVE",
"279 1093 CURVE SMOOTH",
"245 1093 LINE",
"245 1212 LINE",
"185 1212 LINE",
"185 1061 LINE SMOOTH",
"185 1018 OFFCURVE",
"165 997 OFFCURVE",
"125 997 CURVE SMOOTH",
"113 997 LINE SMOOTH",
"81 997 OFFCURVE",
"60 1022 OFFCURVE",
"60 1061 CURVE SMOOTH",
"60 1084 OFFCURVE",
"64 1114 OFFCURVE",
"73 1150 CURVE",
"21 1150 LINE",
"7 1122 OFFCURVE",
"0 1092 OFFCURVE",
"0 1061 CURVE SMOOTH",
"0 993 OFFCURVE",
"41 949 OFFCURVE",
"109 949 CURVE SMOOTH",
"127 949 LINE SMOOTH",
"200 949 OFFCURVE",
"239 981 OFFCURVE",
"244 1045 CURVE",
"292 1045 LINE SMOOTH",
"321 1045 OFFCURVE",
"344 1055 OFFCURVE",
"359 1075 CURVE",
"378 1055 OFFCURVE",
"399 1045 OFFCURVE",
"421 1045 CURVE SMOOTH"
);
}
);
userData = {
assembly = "NPUSHB[ ]	/* 18 values pushed */
16 12 12 20 0 39 30 0 0 30 39 3 24 5 5 14 35 24 
SVTCA[0]	/* SetFreedomAndProjectionVectorToAxis */
MDAP[1]	/* MoveDirectAbsPt */
MDRP[01101]	/* MoveDirectRelPt */
MDRP[01100]	/* MoveDirectRelPt */
SHP[0]	/* ShiftPointByLastPoint */
MDAP[1]	/* MoveDirectAbsPt */
SRP1[ ]	/* SetRefPoint1 */
SLOOP[ ]	/* SetLoopVariable */
IP[ ]	/* InterpolatePts */
MDAP[1]	/* MoveDirectAbsPt */
MDAP[1]	/* MoveDirectAbsPt */
MDAP[1]	/* MoveDirectAbsPt */
SRP0[ ]	/* SetRefPoint0 */
MDRP[01101]	/* MoveDirectRelPt */
SHP[1]	/* ShiftPointByLastPoint */
MDAP[1]	/* MoveDirectAbsPt */
MDRP[01101]	/* MoveDirectRelPt */
IUP[1]	/* InterpolateUntPts */
IUP[0]	/* InterpolateUntPts */";
};
width = 505;
},
{
anchors = (
{
name = _top.near;
position = "{263, 908}";
}
);
layerId = "15908E2C-AB74-4DC1-B0E7-8741EE8F4DA5";
paths = (
{
closed = 1;
nodes = (
"436 1021 LINE",
"436 1215 LINE",
"402 1215 LINE",
"402 1053 LINE",
"378 1053 LINE SMOOTH",
"351 1053 OFFCURVE",
"337 1063 OFFCURVE",
"326 1083 CURVE",
"326 1087 OFFCURVE",
"326 1092 OFFCURVE",
"326 1096 CURVE",
"326 1184 LINE",
"292 1184 LINE",
"292 1099 LINE SMOOTH",
"292 1072 OFFCURVE",
"279 1053 OFFCURVE",
"252 1053 CURVE SMOOTH",
"208 1053 LINE",
"208 1184 LINE",
"174 1184 LINE",
"174 1020 LINE SMOOTH",
"174 977 OFFCURVE",
"154 957 OFFCURVE",
"107 957 CURVE SMOOTH",
"88 957 LINE SMOOTH",
"52 957 OFFCURVE",
"36 985 OFFCURVE",
"36 1028 CURVE SMOOTH",
"36 1069 OFFCURVE",
"40 1100 OFFCURVE",
"49 1122 CURVE",
"16 1122 LINE",
"5 1097 OFFCURVE",
"0 1065 OFFCURVE",
"0 1028 CURVE SMOOTH",
"0 961 OFFCURVE",
"32 925 OFFCURVE",
"80 925 CURVE SMOOTH",
"109 925 LINE SMOOTH",
"175 925 OFFCURVE",
"208 957 OFFCURVE",
"208 1021 CURVE",
"255 1021 LINE SMOOTH",
"280 1021 OFFCURVE",
"300 1030 OFFCURVE",
"313 1049 CURVE",
"330 1030 OFFCURVE",
"352 1021 OFFCURVE",
"378 1021 CURVE SMOOTH"
);
}
);
userData = {
assembly = "NPUSHB[ ]	/* 23 values pushed */
25 25 32 27 4 4 36 0 112 0 128 0 2 32 14 0 0 14 32 3 39 20 7 
SVTCA[0]	/* SetFreedomAndProjectionVectorToAxis */
MDAP[1]	/* MoveDirectAbsPt */
MDRP[01101]	/* MoveDirectRelPt */
MDRP[01100]	/* MoveDirectRelPt */
SLOOP[ ]	/* SetLoopVariable */
IP[ ]	/* InterpolatePts */
MDAP[1]	/* MoveDirectAbsPt */
MDAP[1]	/* MoveDirectAbsPt */
MDAP[1]	/* MoveDirectAbsPt */
DELTAP1[ ]	/* DeltaExceptionP1 */
SRP0[ ]	/* SetRefPoint0 */
MDRP[01101]	/* MoveDirectRelPt */
SHP[1]	/* ShiftPointByLastPoint */
MDAP[1]	/* MoveDirectAbsPt */
MDRP[01101]	/* MoveDirectRelPt */
SRP1[ ]	/* SetRefPoint1 */
SHP[1]	/* ShiftPointByLastPoint */
MDAP[1]	/* MoveDirectAbsPt */
IUP[1]	/* InterpolateUntPts */
IUP[0]	/* InterpolateUntPts */";
};
width = 436;
},
{
anchors = (
{
name = _top.near;
position = "{230, 461}";
}
);
layerId = "410295A1-92BC-4707-ABFC-13885E60878B";
paths = (
{
closed = 1;
nodes = (
"368 587 LINE",
"368 777 LINE",
"350 777 LINE",
"350 605 LINE",
"337 605 LINE SMOOTH",
"308 605 OFFCURVE",
"292 618 OFFCURVE",
"282 630 CURVE",
"283 636 OFFCURVE",
"283 642 OFFCURVE",
"283 647 CURVE",
"283 746 LINE",
"265 746 LINE",
"265 648 LINE SMOOTH",
"265 625 OFFCURVE",
"248 605 OFFCURVE",
"225 605 CURVE SMOOTH",
"182 605 LINE",
"182 746 LINE",
"164 746 LINE",
"164 585 LINE SMOOTH",
"164 529 OFFCURVE",
"144 509 OFFCURVE",
"102 509 CURVE SMOOTH",
"76 509 LINE SMOOTH",
"25 509 OFFCURVE",
"18 545 OFFCURVE",
"18 592 CURVE SMOOTH",
"18 626 OFFCURVE",
"24 654 OFFCURVE",
"32 684 CURVE",
"14 684 LINE",
"6 654 OFFCURVE",
"0 626 OFFCURVE",
"0 592 CURVE SMOOTH",
"0 526 OFFCURVE",
"18 491 OFFCURVE",
"76 491 CURVE SMOOTH",
"102 491 LINE SMOOTH",
"155 491 OFFCURVE",
"182 519 OFFCURVE",
"182 587 CURVE",
"219 587 LINE SMOOTH",
"242 587 OFFCURVE",
"260 595 OFFCURVE",
"273 613 CURVE",
"287 596 OFFCURVE",
"308 587 OFFCURVE",
"336 587 CURVE SMOOTH"
);
}
);
width = 368;
},
{
anchors = (
{
name = _top.near;
position = "{360, 888}";
}
);
layerId = "DCD2D043-4E01-4B5D-9248-443A06E88532";
paths = (
{
closed = 1;
nodes = (
"551 981 LINE",
"551 1182 LINE",
"474 1182 LINE",
"474 1040 LINE",
"448 1040 LINE SMOOTH",
"430 1040 OFFCURVE",
"423 1043 OFFCURVE",
"408 1058 CURVE",
"410 1065 OFFCURVE",
"411 1072 OFFCURVE",
"411 1081 CURVE",
"411 1151 LINE",
"334 1151 LINE",
"334 1087 LINE SMOOTH",
"334 1056 OFFCURVE",
"328 1040 OFFCURVE",
"297 1040 CURVE SMOOTH",
"270 1040 LINE",
"270 1151 LINE",
"193 1151 LINE",
"193 1008 LINE SMOOTH",
"193 966 OFFCURVE",
"173 944 OFFCURVE",
"137 944 CURVE SMOOTH",
"130 944 LINE SMOOTH",
"101 944 OFFCURVE",
"76 967 OFFCURVE",
"76 1008 CURVE SMOOTH",
"76 1032 OFFCURVE",
"81 1055 OFFCURVE",
"89 1089 CURVE",
"25 1089 LINE",
"8 1059 OFFCURVE",
"0 1030 OFFCURVE",
"0 1003 CURVE SMOOTH",
"0 934 OFFCURVE",
"47 885 OFFCURVE",
"129 885 CURVE SMOOTH",
"139 885 LINE SMOOTH",
"217 885 OFFCURVE",
"260 917 OFFCURVE",
"268 981 CURVE",
"317 981 LINE SMOOTH",
"349 981 OFFCURVE",
"373 991 OFFCURVE",
"390 1012 CURVE",
"407 991 OFFCURVE",
"423 981 OFFCURVE",
"450 981 CURVE SMOOTH"
);
}
);
width = 551;
}
);
leftMetricsKey = "=0";
note = uni06DC;
rightMetricsKey = "=0";
unicode = 06DC;
}
{
glyphname = "sukunoval-ar";
layers = (
{
anchors = (
{
name = _top.near;
position = "{123, 930}";
},
{
name = top.near;
position = "{125, 1250}";
}
);
layerId = "307C4A58-79B8-4138-817C-FBEE21722E1A";
paths = (
{
closed = 1;
nodes = (
"190 968 OFFCURVE",
"231 1019 OFFCURVE",
"231 1102 CURVE SMOOTH",
"231 1190 OFFCURVE",
"186 1251 OFFCURVE",
"123 1251 CURVE SMOOTH",
"60 1251 OFFCURVE",
"15 1190 OFFCURVE",
"15 1102 CURVE SMOOTH",
"15 1019 OFFCURVE",
"56 968 OFFCURVE",
"123 968 CURVE SMOOTH"
);
},
{
closed = 1;
nodes = (
"107 1060 OFFCURVE",
"94 1077 OFFCURVE",
"94 1108 CURVE SMOOTH",
"94 1138 OFFCURVE",
"107 1156 OFFCURVE",
"124 1156 CURVE SMOOTH",
"141 1156 OFFCURVE",
"154 1138 OFFCURVE",
"154 1108 CURVE SMOOTH",
"154 1077 OFFCURVE",
"141 1060 OFFCURVE",
"124 1060 CURVE SMOOTH"
);
}
);
userData = {
assembly = "PUSHB[ ]	/* 2 values pushed */
2 0 
SVTCA[0]	/* SetFreedomAndProjectionVectorToAxis */
MDAP[1]	/* MoveDirectAbsPt */
MDRP[01101]	/* MoveDirectRelPt */
IUP[1]	/* InterpolateUntPts */
IUP[0]	/* InterpolateUntPts */";
};
width = 248;
},
{
anchors = (
{
name = _top.near;
position = "{99, 970}";
},
{
name = top.near;
position = "{99, 1250}";
}
);
layerId = "15908E2C-AB74-4DC1-B0E7-8741EE8F4DA5";
paths = (
{
closed = 1;
nodes = (
"160 1008 OFFCURVE",
"183 1067 OFFCURVE",
"183 1131 CURVE SMOOTH",
"183 1194 OFFCURVE",
"160 1250 OFFCURVE",
"100 1250 CURVE SMOOTH",
"35 1250 OFFCURVE",
"15 1182 OFFCURVE",
"15 1125 CURVE SMOOTH",
"15 1066 OFFCURVE",
"37 1008 OFFCURVE",
"98 1008 CURVE SMOOTH"
);
},
{
closed = 1;
nodes = (
"66 1057 OFFCURVE",
"61 1103 OFFCURVE",
"61 1128 CURVE SMOOTH",
"61 1153 OFFCURVE",
"66 1200 OFFCURVE",
"99 1200 CURVE SMOOTH",
"133 1200 OFFCURVE",
"137 1153 OFFCURVE",
"137 1128 CURVE SMOOTH",
"137 1103 OFFCURVE",
"133 1057 OFFCURVE",
"99 1057 CURVE SMOOTH"
);
}
);
userData = {
assembly = "PUSHB[ ]	/* 2 values pushed */
2 0 
SVTCA[0]	/* SetFreedomAndProjectionVectorToAxis */
MDAP[1]	/* MoveDirectAbsPt */
MDRP[01101]	/* MoveDirectRelPt */
IUP[1]	/* InterpolateUntPts */
IUP[0]	/* InterpolateUntPts */";
};
width = 192;
},
{
anchors = (
{
name = _top.near;
position = "{98, 1025}";
},
{
name = top.near;
position = "{98, 1242}";
}
);
layerId = "410295A1-92BC-4707-ABFC-13885E60878B";
paths = (
{
closed = 1;
nodes = (
"142 1063 OFFCURVE",
"159 1107 OFFCURVE",
"159 1155 CURVE SMOOTH",
"159 1201 OFFCURVE",
"142 1242 OFFCURVE",
"99 1242 CURVE SMOOTH",
"52 1242 OFFCURVE",
"37 1192 OFFCURVE",
"37 1150 CURVE SMOOTH",
"37 1106 OFFCURVE",
"53 1063 OFFCURVE",
"97 1063 CURVE SMOOTH"
);
},
{
closed = 1;
nodes = (
"64 1080 OFFCURVE",
"59 1126 OFFCURVE",
"59 1151 CURVE SMOOTH",
"59 1176 OFFCURVE",
"64 1223 OFFCURVE",
"98 1223 CURVE SMOOTH",
"134 1223 OFFCURVE",
"138 1176 OFFCURVE",
"138 1151 CURVE SMOOTH",
"138 1126 OFFCURVE",
"134 1080 OFFCURVE",
"98 1080 CURVE SMOOTH"
);
}
);
width = 192;
},
{
anchors = (
{
name = _top.near;
position = "{150, 930}";
},
{
name = top.near;
position = "{153, 1250}";
}
);
layerId = "DCD2D043-4E01-4B5D-9248-443A06E88532";
paths = (
{
closed = 1;
nodes = (
"215 968 OFFCURVE",
"263 1029 OFFCURVE",
"263 1104 CURVE SMOOTH",
"263 1180 OFFCURVE",
"217 1250 OFFCURVE",
"153 1250 CURVE SMOOTH",
"85 1250 OFFCURVE",
"37 1180 OFFCURVE",
"37 1099 CURVE SMOOTH",
"37 1029 OFFCURVE",
"75 968 OFFCURVE",
"149 968 CURVE SMOOTH"
);
},
{
closed = 1;
nodes = (
"129 1052 OFFCURVE",
"116 1074 OFFCURVE",
"116 1107 CURVE SMOOTH",
"116 1135 OFFCURVE",
"128 1164 OFFCURVE",
"150 1164 CURVE SMOOTH",
"166 1164 OFFCURVE",
"184 1139 OFFCURVE",
"184 1104 CURVE SMOOTH",
"184 1072 OFFCURVE",
"169 1052 OFFCURVE",
"149 1052 CURVE SMOOTH"
);
}
);
width = 288;
}
);
note = uni06E0;
unicode = 06E0;
}
{
glyphname = "sukunround-ar";
layers = (
{
anchors = (
{
name = _top.far;
position = "{0, 488}";
},
{
name = _top2;
position = "{0, 488}";
},
{
name = top.far;
position = "{0, 640}";
},
{
name = top.near;
position = "{0, 640}";
}
);
layerId = "307C4A58-79B8-4138-817C-FBEE21722E1A";
paths = (
{
closed = 1;
nodes = (
"43 494 OFFCURVE",
"68 523 OFFCURVE",
"68 567 CURVE SMOOTH",
"68 612 OFFCURVE",
"43 640 OFFCURVE",
"0 640 CURVE SMOOTH",
"-43 640 OFFCURVE",
"-68 614 OFFCURVE",
"-68 567 CURVE SMOOTH",
"-68 520 OFFCURVE",
"-43 494 OFFCURVE",
"0 494 CURVE SMOOTH"
);
}
);
userData = {
assembly = "PUSHB[ ]	/* 2 values pushed */
6 0 
SVTCA[0]	/* SetFreedomAndProjectionVectorToAxis */
MDAP[1]	/* MoveDirectAbsPt */
MDRP[01101]	/* MoveDirectRelPt */
IUP[1]	/* InterpolateUntPts */
IUP[0]	/* InterpolateUntPts */";
};
width = 0;
},
{
anchors = (
{
name = _top.far;
position = "{0, 488}";
},
{
name = _top2;
position = "{0, 488}";
},
{
name = top.far;
position = "{0, 607}";
},
{
name = top.near;
position = "{0, 607}";
}
);
layerId = "15908E2C-AB74-4DC1-B0E7-8741EE8F4DA5";
paths = (
{
closed = 1;
nodes = (
"36 487 OFFCURVE",
"56 511 OFFCURVE",
"56 547 CURVE SMOOTH",
"56 583 OFFCURVE",
"36 607 OFFCURVE",
"0 607 CURVE SMOOTH",
"-35 607 OFFCURVE",
"-56 586 OFFCURVE",
"-56 547 CURVE SMOOTH",
"-56 508 OFFCURVE",
"-35 487 OFFCURVE",
"0 487 CURVE SMOOTH"
);
}
);
userData = {
assembly = "PUSHB[ ]	/* 2 values pushed */
6 0 
SVTCA[0]	/* SetFreedomAndProjectionVectorToAxis */
MDAP[1]	/* MoveDirectAbsPt */
MDRP[01101]	/* MoveDirectRelPt */
IUP[1]	/* InterpolateUntPts */
IUP[0]	/* InterpolateUntPts */";
};
width = 0;
},
{
anchors = (
{
name = _top.far;
position = "{0, 488}";
},
{
name = _top2;
position = "{0, 488}";
},
{
name = top.far;
position = "{0, 574}";
},
{
name = top.near;
position = "{0, 574}";
}
);
layerId = "410295A1-92BC-4707-ABFC-13885E60878B";
paths = (
{
closed = 1;
nodes = (
"14 502 OFFCURVE",
"26 509 OFFCURVE",
"26 530 CURVE SMOOTH",
"26 552 OFFCURVE",
"11 558 OFFCURVE",
"0 558 CURVE SMOOTH",
"-16 558 OFFCURVE",
"-26 550 OFFCURVE",
"-26 530 CURVE SMOOTH",
"-26 510 OFFCURVE",
"-16 502 OFFCURVE",
"0 502 CURVE SMOOTH"
);
}
);
width = 0;
},
{
anchors = (
{
name = _top.far;
position = "{0, 488}";
},
{
name = _top2;
position = "{0, 488}";
},
{
name = top.far;
position = "{0, 662}";
},
{
name = top.near;
position = "{0, 662}";
}
);
layerId = "DCD2D043-4E01-4B5D-9248-443A06E88532";
paths = (
{
closed = 1;
nodes = (
"47 499 OFFCURVE",
"76 531 OFFCURVE",
"76 580 CURVE SMOOTH",
"76 632 OFFCURVE",
"47 662 OFFCURVE",
"0 662 CURVE SMOOTH",
"-48 662 OFFCURVE",
"-76 632 OFFCURVE",
"-76 580 CURVE SMOOTH",
"-76 528 OFFCURVE",
"-48 499 OFFCURVE",
"0 499 CURVE SMOOTH"
);
}
);
width = 0;
}
);
note = uni06DF;
unicode = 06DF;
}
{
glyphname = "threedotsabove-ar";
layers = (
{
anchors = (
{
name = _stop;
position = "{122, 1048}";
}
);
layerId = "307C4A58-79B8-4138-817C-FBEE21722E1A";
paths = (
{
closed = 1;
nodes = (
"148 1225 OFFCURVE",
"167 1241 OFFCURVE",
"167 1274 CURVE SMOOTH",
"167 1309 OFFCURVE",
"148 1323 OFFCURVE",
"121 1323 CURVE SMOOTH",
"93 1323 OFFCURVE",
"75 1303 OFFCURVE",
"75 1274 CURVE SMOOTH",
"75 1241 OFFCURVE",
"97 1225 OFFCURVE",
"121 1225 CURVE SMOOTH"
);
},
{
closed = 1;
nodes = (
"84 1096 OFFCURVE",
"107 1115 OFFCURVE",
"107 1154 CURVE SMOOTH",
"107 1190 OFFCURVE",
"86 1212 OFFCURVE",
"53 1212 CURVE SMOOTH",
"21 1212 OFFCURVE",
"0 1190 OFFCURVE",
"0 1154 CURVE SMOOTH",
"0 1115 OFFCURVE",
"24 1096 OFFCURVE",
"53 1096 CURVE SMOOTH"
);
},
{
closed = 1;
nodes = (
"220 1096 OFFCURVE",
"243 1115 OFFCURVE",
"243 1154 CURVE SMOOTH",
"243 1194 OFFCURVE",
"220 1212 OFFCURVE",
"189 1212 CURVE SMOOTH",
"160 1212 OFFCURVE",
"136 1194 OFFCURVE",
"136 1154 CURVE SMOOTH",
"136 1115 OFFCURVE",
"160 1096 OFFCURVE",
"189 1096 CURVE SMOOTH"
);
}
);
width = 243;
},
{
anchors = (
{
name = _stop;
position = "{99, 1043}";
}
);
layerId = "15908E2C-AB74-4DC1-B0E7-8741EE8F4DA5";
paths = (
{
closed = 1;
nodes = (
"119 1190 OFFCURVE",
"136 1201 OFFCURVE",
"136 1229 CURVE SMOOTH",
"136 1256 OFFCURVE",
"119 1267 OFFCURVE",
"99 1267 CURVE SMOOTH",
"78 1267 OFFCURVE",
"63 1256 OFFCURVE",
"63 1229 CURVE SMOOTH",
"63 1203 OFFCURVE",
"75 1190 OFFCURVE",
"99 1190 CURVE SMOOTH"
);
},
{
closed = 1;
nodes = (
"60 1096 OFFCURVE",
"78 1107 OFFCURVE",
"78 1138 CURVE SMOOTH",
"78 1167 OFFCURVE",
"60 1180 OFFCURVE",
"39 1180 CURVE SMOOTH",
"16 1180 OFFCURVE",
"0 1167 OFFCURVE",
"0 1138 CURVE SMOOTH",
"0 1110 OFFCURVE",
"13 1096 OFFCURVE",
"39 1096 CURVE SMOOTH"
);
},
{
closed = 1;
nodes = (
"181 1096 OFFCURVE",
"199 1107 OFFCURVE",
"199 1138 CURVE SMOOTH",
"199 1167 OFFCURVE",
"181 1180 OFFCURVE",
"160 1180 CURVE SMOOTH",
"137 1180 OFFCURVE",
"121 1167 OFFCURVE",
"121 1138 CURVE SMOOTH",
"121 1110 OFFCURVE",
"134 1096 OFFCURVE",
"160 1096 CURVE SMOOTH"
);
}
);
width = 199;
},
{
anchors = (
{
name = _stop;
position = "{79, 1052}";
}
);
layerId = "410295A1-92BC-4707-ABFC-13885E60878B";
paths = (
{
closed = 1;
nodes = (
"93 1200 OFFCURVE",
"103 1208 OFFCURVE",
"103 1226 CURVE SMOOTH",
"103 1244 OFFCURVE",
"93 1251 OFFCURVE",
"79 1251 CURVE SMOOTH",
"65 1251 OFFCURVE",
"56 1244 OFFCURVE",
"56 1226 CURVE SMOOTH",
"56 1209 OFFCURVE",
"63 1200 OFFCURVE",
"79 1200 CURVE SMOOTH"
);
},
{
closed = 1;
nodes = (
"38 1104 OFFCURVE",
"49 1111 OFFCURVE",
"49 1130 CURVE SMOOTH",
"49 1148 OFFCURVE",
"38 1157 OFFCURVE",
"24 1157 CURVE SMOOTH",
"10 1157 OFFCURVE",
"0 1148 OFFCURVE",
"0 1130 CURVE SMOOTH",
"0 1113 OFFCURVE",
"9 1104 OFFCURVE",
"24 1104 CURVE SMOOTH"
);
},
{
closed = 1;
nodes = (
"148 1104 OFFCURVE",
"159 1111 OFFCURVE",
"159 1130 CURVE SMOOTH",
"159 1148 OFFCURVE",
"148 1157 OFFCURVE",
"135 1157 CURVE SMOOTH",
"120 1157 OFFCURVE",
"110 1148 OFFCURVE",
"110 1130 CURVE SMOOTH",
"110 1113 OFFCURVE",
"118 1104 OFFCURVE",
"135 1104 CURVE SMOOTH"
);
}
);
width = 159;
},
{
anchors = (
{
name = _stop;
position = "{158, 1048}";
}
);
layerId = "DCD2D043-4E01-4B5D-9248-443A06E88532";
paths = (
{
closed = 1;
nodes = (
"192 1249 OFFCURVE",
"214 1268 OFFCURVE",
"214 1309 CURVE SMOOTH",
"214 1351 OFFCURVE",
"191 1368 OFFCURVE",
"158 1368 CURVE SMOOTH",
"125 1368 OFFCURVE",
"103 1346 OFFCURVE",
"103 1309 CURVE SMOOTH",
"103 1268 OFFCURVE",
"129 1249 OFFCURVE",
"158 1249 CURVE SMOOTH"
);
},
{
closed = 1;
nodes = (
"101 1096 OFFCURVE",
"128 1118 OFFCURVE",
"128 1164 CURVE SMOOTH",
"128 1209 OFFCURVE",
"103 1234 OFFCURVE",
"63 1234 CURVE SMOOTH",
"26 1234 OFFCURVE",
"0 1209 OFFCURVE",
"0 1164 CURVE SMOOTH",
"0 1118 OFFCURVE",
"29 1096 OFFCURVE",
"63 1096 CURVE SMOOTH"
);
},
{
closed = 1;
nodes = (
"291 1096 OFFCURVE",
"318 1118 OFFCURVE",
"318 1164 CURVE SMOOTH",
"318 1212 OFFCURVE",
"290 1234 OFFCURVE",
"254 1234 CURVE SMOOTH",
"218 1234 OFFCURVE",
"190 1212 OFFCURVE",
"190 1164 CURVE SMOOTH",
"190 1118 OFFCURVE",
"218 1096 OFFCURVE",
"254 1096 CURVE SMOOTH"
);
}
);
width = 318;
}
);
leftMetricsKey = "=0";
note = uni06DB;
rightMetricsKey = "=0";
unicode = 06DB;
}
{
glyphname = "wawring-ar";
layers = (
{
anchors = (
{
name = bottom;
position = "{244, -342}";
},
{
name = top.far;
position = "{322, 586}";
},
{
name = top.near;
position = "{322, 586}";
}
);
layerId = "307C4A58-79B8-4138-817C-FBEE21722E1A";
paths = (
{
closed = 1;
nodes = (
"337 -352 LINE",
"468 -256 OFFCURVE",
"535 -141 OFFCURVE",
"535 -25 CURVE SMOOTH",
"535 495 LINE",
"383 495 LINE SMOOTH",
"201 495 OFFCURVE",
"65 403 OFFCURVE",
"65 233 CURVE SMOOTH",
"65 84 OFFCURVE",
"144 0 OFFCURVE",
"287 0 CURVE SMOOTH",
"385 0 LINE",
"385 -39 LINE",
"385 -41 OFFCURVE",
"385 -42 OFFCURVE",
"385 -44 CURVE",
"366 -31 OFFCURVE",
"342 -24 OFFCURVE",
"315 -24 CURVE SMOOTH",
"248 -24 OFFCURVE",
"206 -65 OFFCURVE",
"206 -129 CURVE SMOOTH",
"206 -184 OFFCURVE",
"236 -219 OFFCURVE",
"283 -230 CURVE",
"273 -239 OFFCURVE",
"263 -248 OFFCURVE",
"252 -257 CURVE"
);
},
{
closed = 1;
nodes = (
"317 120 LINE SMOOTH",
"250 120 OFFCURVE",
"218 157 OFFCURVE",
"218 237 CURVE SMOOTH",
"218 325 OFFCURVE",
"269 375 OFFCURVE",
"354 375 CURVE SMOOTH",
"386 375 LINE",
"386 120 LINE"
);
},
{
closed = 1;
nodes = (
"286 -173 OFFCURVE",
"271 -156 OFFCURVE",
"271 -129 CURVE SMOOTH",
"271 -101 OFFCURVE",
"288 -85 OFFCURVE",
"315 -85 CURVE SMOOTH",
"340 -85 OFFCURVE",
"359 -101 OFFCURVE",
"359 -129 CURVE SMOOTH",
"359 -156 OFFCURVE",
"340 -173 OFFCURVE",
"315 -173 CURVE SMOOTH"
);
}
);
userData = {
assembly = "NPUSHB[ ]	/* 40 values pushed */
29 18 42 8 36 24 14 14 0 0 4 8 18 4 45 46 22 26 70 89 22 15 5 33 33 3 39 11 15 64 15 32 70 89 15 18 0 3 1 3 
SVTCA[0]	/* SetFreedomAndProjectionVectorToAxis */
MDAP[1]	/* MoveDirectAbsPt */
DELTAP1[ ]	/* DeltaExceptionP1 */
MIAP[1]	/* MoveIndirectAbsPt */
CALL[ ]	/* CallFunction */
SVTCA[0]	/* SetFreedomAndProjectionVectorToAxis */
SMD[ ]	/* SetMinimumDistance */
RTG[ ]	/* RoundToGrid */
SRP0[ ]	/* SetRefPoint0 */
MDRP[11110]	/* MoveDirectRelPt */
MDRP[01101]	/* MoveDirectRelPt */
SRP2[ ]	/* SetRefPoint2 */
IP[ ]	/* InterpolatePts */
MDAP[1]	/* MoveDirectAbsPt */
SHP[1]	/* ShiftPointByLastPoint */
MIAP[1]	/* MoveIndirectAbsPt */
CALL[ ]	/* CallFunction */
SRP1[ ]	/* SetRefPoint1 */
SRP2[ ]	/* SetRefPoint2 */
SVTCA[1]	/* SetFreedomAndProjectionVectorToAxis */
SLOOP[ ]	/* SetLoopVariable */
IP[ ]	/* InterpolatePts */
SRP1[ ]	/* SetRefPoint1 */
SHP[1]	/* ShiftPointByLastPoint */
SRP1[ ]	/* SetRefPoint1 */
SHP[1]	/* ShiftPointByLastPoint */
SHP[1]	/* ShiftPointByLastPoint */
SRP1[ ]	/* SetRefPoint1 */
SHP[1]	/* ShiftPointByLastPoint */
SRP1[ ]	/* SetRefPoint1 */
SHP[1]	/* ShiftPointByLastPoint */
IUP[1]	/* InterpolateUntPts */
IUP[0]	/* InterpolateUntPts */";
};
width = 620;
},
{
anchors = (
{
name = bottom;
position = "{244, -342}";
},
{
name = top.far;
position = "{273, 566}";
},
{
name = top.near;
position = "{273, 566}";
}
);
layerId = "15908E2C-AB74-4DC1-B0E7-8741EE8F4DA5";
paths = (
{
closed = 1;
nodes = (
"314 -320 LINE",
"427 -221 OFFCURVE",
"476 -139 OFFCURVE",
"476 -44 CURVE SMOOTH",
"476 485 LINE",
"345 485 LINE SMOOTH",
"178 485 OFFCURVE",
"71 385 OFFCURVE",
"71 228 CURVE SMOOTH",
"71 80 OFFCURVE",
"151 0 OFFCURVE",
"294 0 CURVE SMOOTH",
"392 0 LINE",
"392 -50 LINE",
"392 -54 OFFCURVE",
"392 -57 OFFCURVE",
"391 -61 CURVE",
"373 -45 OFFCURVE",
"349 -37 OFFCURVE",
"319 -37 CURVE SMOOTH",
"255 -37 OFFCURVE",
"220 -71 OFFCURVE",
"220 -132 CURVE SMOOTH",
"220 -184 OFFCURVE",
"248 -216 OFFCURVE",
"296 -225 CURVE",
"284 -236 OFFCURVE",
"273 -246 OFFCURVE",
"259 -257 CURVE"
);
},
{
closed = 1;
nodes = (
"297 78 LINE SMOOTH",
"205 78 OFFCURVE",
"160 125 OFFCURVE",
"160 229 CURVE SMOOTH",
"160 341 OFFCURVE",
"229 407 OFFCURVE",
"348 407 CURVE SMOOTH",
"391 407 LINE",
"391 78 LINE"
);
},
{
closed = 1;
nodes = (
"290 -177 OFFCURVE",
"274 -160 OFFCURVE",
"274 -132 CURVE SMOOTH",
"274 -105 OFFCURVE",
"292 -87 OFFCURVE",
"319 -87 CURVE SMOOTH",
"343 -87 OFFCURVE",
"364 -100 OFFCURVE",
"364 -132 CURVE SMOOTH",
"364 -159 OFFCURVE",
"344 -177 OFFCURVE",
"319 -177 CURVE SMOOTH"
);
}
);
userData = {
assembly = "NPUSHB[ ]	/* 25 values pushed */
36 24 11 11 20 42 4 29 15 15 4 0 20 4 46 45 1 33 7 39 72 89 9 7 7 
PUSHW[ ]	/* 1 value pushed */
-64 
NPUSHB[ ]	/* 29 values pushed */
9 12 72 33 7 33 7 12 0 23 16 23 2 13 3 23 28 18 26 70 89 18 15 12 32 70 89 12 18 
SVTCA[0]	/* SetFreedomAndProjectionVectorToAxis */
MIAP[1]	/* MoveIndirectAbsPt */
CALL[ ]	/* CallFunction */
SVTCA[0]	/* SetFreedomAndProjectionVectorToAxis */
RTG[ ]	/* RoundToGrid */
MIAP[1]	/* MoveIndirectAbsPt */
CALL[ ]	/* CallFunction */
SVTCA[0]	/* SetFreedomAndProjectionVectorToAxis */
RTG[ ]	/* RoundToGrid */
MIAP[1]	/* MoveIndirectAbsPt */
SDS[ ]	/* SetDeltaShiftInGState */
SDB[ ]	/* SetDeltaBaseInGState */
DELTAP1[ ]	/* DeltaExceptionP1 */
SRP2[ ]	/* SetRefPoint2 */
IP[ ]	/* InterpolatePts */
IP[ ]	/* InterpolatePts */
MDAP[1]	/* MoveDirectAbsPt */
MDAP[1]	/* MoveDirectAbsPt */
CALL[ ]	/* CallFunction */
SRP2[ ]	/* SetRefPoint2 */
IP[ ]	/* InterpolatePts */
CALL[ ]	/* CallFunction */
SRP1[ ]	/* SetRefPoint1 */
SVTCA[0]	/* SetFreedomAndProjectionVectorToAxis */
SHP[1]	/* ShiftPointByLastPoint */
SRP1[ ]	/* SetRefPoint1 */
SRP2[ ]	/* SetRefPoint2 */
SVTCA[1]	/* SetFreedomAndProjectionVectorToAxis */
SLOOP[ ]	/* SetLoopVariable */
IP[ ]	/* InterpolatePts */
SRP1[ ]	/* SetRefPoint1 */
SHP[1]	/* ShiftPointByLastPoint */
SRP1[ ]	/* SetRefPoint1 */
SHP[1]	/* ShiftPointByLastPoint */
SRP1[ ]	/* SetRefPoint1 */
SHP[1]	/* ShiftPointByLastPoint */
SRP1[ ]	/* SetRefPoint1 */
SHP[1]	/* ShiftPointByLastPoint */
SHP[1]	/* ShiftPointByLastPoint */
IUP[1]	/* InterpolateUntPts */
IUP[0]	/* InterpolateUntPts */";
};
width = 561;
},
{
anchors = (
{
name = bottom;
position = "{239, -333}";
},
{
name = top.far;
position = "{241, 546}";
},
{
name = top.near;
position = "{241, 546}";
}
);
layerId = "410295A1-92BC-4707-ABFC-13885E60878B";
paths = (
{
closed = 1;
nodes = (
"283 -293 LINE",
"385 -217 OFFCURVE",
"415 -157 OFFCURVE",
"415 -63 CURVE SMOOTH",
"415 475 LINE",
"332 475 LINE SMOOTH",
"157 475 OFFCURVE",
"75 368 OFFCURVE",
"75 223 CURVE SMOOTH",
"75 76 OFFCURVE",
"154 0 OFFCURVE",
"293 0 CURVE SMOOTH",
"391 0 LINE",
"391 -77 LINE SMOOTH",
"391 -89 OFFCURVE",
"391 -98 OFFCURVE",
"389 -107 CURVE",
"376 -73 OFFCURVE",
"350 -60 OFFCURVE",
"323 -60 CURVE SMOOTH",
"278 -60 OFFCURVE",
"246 -95 OFFCURVE",
"246 -135 CURVE SMOOTH",
"246 -187 OFFCURVE",
"300 -224 OFFCURVE",
"353 -196 CURVE",
"323 -233 OFFCURVE",
"292 -256 OFFCURVE",
"269 -273 CURVE"
);
},
{
closed = 1;
nodes = (
"283 24 LINE SMOOTH",
"161 24 OFFCURVE",
"99 92 OFFCURVE",
"99 221 CURVE SMOOTH",
"99 371 OFFCURVE",
"186 451 OFFCURVE",
"314 451 CURVE SMOOTH",
"391 451 LINE",
"391 24 LINE"
);
},
{
closed = 1;
nodes = (
"291 -185 OFFCURVE",
"270 -164 OFFCURVE",
"270 -135 CURVE SMOOTH",
"270 -107 OFFCURVE",
"292 -82 OFFCURVE",
"323 -82 CURVE SMOOTH",
"347 -82 OFFCURVE",
"373 -101 OFFCURVE",
"373 -134 CURVE SMOOTH",
"373 -161 OFFCURVE",
"353 -185 OFFCURVE",
"320 -185 CURVE SMOOTH"
);
}
);
width = 502;
},
{
anchors = (
{
name = bottom;
position = "{358, -419}";
},
{
name = top.far;
position = "{369, 599}";
},
{
name = top.near;
position = "{369, 599}";
}
);
layerId = "DCD2D043-4E01-4B5D-9248-443A06E88532";
paths = (
{
closed = 1;
nodes = (
"329 -401 LINE",
"499 -312 OFFCURVE",
"588 -157 OFFCURVE",
"588 11 CURVE SMOOTH",
"588 502 LINE",
"422 502 LINE SMOOTH",
"222 502 OFFCURVE",
"61 415 OFFCURVE",
"61 236 CURVE SMOOTH",
"61 94 OFFCURVE",
"150 0 OFFCURVE",
"341 0 CURVE SMOOTH",
"398 0 LINE",
"398 -48 LINE",
"398 -50 OFFCURVE",
"398 -57 OFFCURVE",
"398 -62 CURVE",
"378 -41 OFFCURVE",
"352 -35 OFFCURVE",
"326 -35 CURVE SMOOTH",
"258 -35 OFFCURVE",
"211 -81 OFFCURVE",
"211 -147 CURVE SMOOTH",
"211 -204 OFFCURVE",
"242 -242 OFFCURVE",
"294 -251 CURVE",
"277 -265 OFFCURVE",
"255 -280 OFFCURVE",
"233 -294 CURVE"
);
},
{
closed = 1;
nodes = (
"352 148 LINE SMOOTH",
"289 148 OFFCURVE",
"251 184 OFFCURVE",
"251 242 CURVE SMOOTH",
"251 314 OFFCURVE",
"301 354 OFFCURVE",
"372 354 CURVE SMOOTH",
"399 354 LINE",
"399 148 LINE"
);
},
{
closed = 1;
nodes = (
"297 -190 OFFCURVE",
"283 -173 OFFCURVE",
"283 -147 CURVE SMOOTH",
"283 -118 OFFCURVE",
"300 -104 OFFCURVE",
"326 -104 CURVE SMOOTH",
"352 -104 OFFCURVE",
"370 -122 OFFCURVE",
"370 -147 CURVE SMOOTH",
"370 -174 OFFCURVE",
"352 -190 OFFCURVE",
"326 -190 CURVE SMOOTH"
);
}
);
width = 673;
}
);
note = uni06C4;
unicode = 06C4;
}
{
glyphname = "yehSmall-ar";
layers = (
{
anchors = (
{
name = bottom;
position = "{156, -73}";
},
{
name = top.far;
position = "{156, 272}";
},
{
name = top.near;
position = "{156, 272}";
}
);
layerId = "307C4A58-79B8-4138-817C-FBEE21722E1A";
paths = (
{
closed = 1;
nodes = (
"291 -15 LINE",
"291 33 LINE",
"104 33 LINE SMOOTH",
"88 33 OFFCURVE",
"80 39 OFFCURVE",
"80 51 CURVE SMOOTH",
"80 60 OFFCURVE",
"85 67 OFFCURVE",
"95 74 CURVE SMOOTH",
"104 80 OFFCURVE",
"122 88 OFFCURVE",
"147 97 CURVE SMOOTH",
"203 118 OFFCURVE",
"221 142 OFFCURVE",
"221 191 CURVE SMOOTH",
"221 207 LINE",
"161 207 LINE",
"161 193 LINE SMOOTH",
"161 158 OFFCURVE",
"153 150 OFFCURVE",
"100 129 CURVE SMOOTH",
"35 103 OFFCURVE",
"20 82 OFFCURVE",
"20 49 CURVE SMOOTH",
"20 6 OFFCURVE",
"53 -15 OFFCURVE",
"104 -15 CURVE SMOOTH"
);
}
);
width = 311;
},
{
anchors = (
{
name = bottom;
position = "{144, -73}";
},
{
name = top.far;
position = "{144, 252}";
},
{
name = top.near;
position = "{144, 252}";
}
);
layerId = "15908E2C-AB74-4DC1-B0E7-8741EE8F4DA5";
paths = (
{
closed = 1;
nodes = (
"267 -17 LINE",
"267 15 LINE",
"80 15 LINE SMOOTH",
"67 15 OFFCURVE",
"56 22 OFFCURVE",
"56 35 CURVE SMOOTH",
"56 45 OFFCURVE",
"60 53 OFFCURVE",
"68 60 CURVE SMOOTH",
"75 66 OFFCURVE",
"94 75 OFFCURVE",
"121 86 CURVE SMOOTH",
"178 110 OFFCURVE",
"197 126 OFFCURVE",
"197 175 CURVE SMOOTH",
"197 191 LINE",
"161 191 LINE",
"161 175 LINE SMOOTH",
"161 140 OFFCURVE",
"155 133 OFFCURVE",
"100 109 CURVE SMOOTH",
"37 82 OFFCURVE",
"20 66 OFFCURVE",
"20 35 CURVE SMOOTH",
"20 -1 OFFCURVE",
"45 -17 OFFCURVE",
"80 -17 CURVE SMOOTH"
);
}
);
width = 287;
},
{
anchors = (
{
name = bottom;
position = "{131, -73}";
},
{
name = top.far;
position = "{131, 232}";
},
{
name = top.near;
position = "{131, 232}";
}
);
layerId = "410295A1-92BC-4707-ABFC-13885E60878B";
paths = (
{
closed = 1;
nodes = (
"243 -15 LINE",
"243 -1 LINE",
"58 -1 LINE SMOOTH",
"44 -1 OFFCURVE",
"32 7 OFFCURVE",
"32 24 CURVE SMOOTH",
"32 34 OFFCURVE",
"36 42 OFFCURVE",
"46 50 CURVE SMOOTH",
"53 56 OFFCURVE",
"69 65 OFFCURVE",
"95 76 CURVE SMOOTH",
"156 102 OFFCURVE",
"173 115 OFFCURVE",
"173 163 CURVE SMOOTH",
"173 179 LINE",
"159 179 LINE",
"159 163 LINE SMOOTH",
"159 128 OFFCURVE",
"151 115 OFFCURVE",
"97 92 CURVE SMOOTH",
"38 67 OFFCURVE",
"18 53 OFFCURVE",
"18 22 CURVE SMOOTH",
"18 -4 OFFCURVE",
"37 -15 OFFCURVE",
"56 -15 CURVE SMOOTH"
);
}
);
width = 263;
},
{
anchors = (
{
name = bottom;
position = "{164, -73}";
},
{
name = top.far;
position = "{164, 272}";
},
{
name = top.near;
position = "{164, 272}";
}
);
layerId = "DCD2D043-4E01-4B5D-9248-443A06E88532";
paths = (
{
closed = 1;
nodes = (
"307 -15 LINE",
"307 44 LINE",
"120 44 LINE SMOOTH",
"103 44 OFFCURVE",
"96 50 OFFCURVE",
"96 60 CURVE SMOOTH",
"96 68 OFFCURVE",
"101 75 OFFCURVE",
"112 81 CURVE SMOOTH",
"124 88 OFFCURVE",
"141 95 OFFCURVE",
"164 103 CURVE SMOOTH",
"220 123 OFFCURVE",
"237 151 OFFCURVE",
"237 200 CURVE SMOOTH",
"237 216 LINE",
"161 216 LINE",
"161 204 LINE SMOOTH",
"161 169 OFFCURVE",
"151 161 OFFCURVE",
"100 141 CURVE SMOOTH",
"36 116 OFFCURVE",
"20 88 OFFCURVE",
"20 57 CURVE SMOOTH",
"20 6 OFFCURVE",
"57 -15 OFFCURVE",
"120 -15 CURVE SMOOTH"
);
}
);
width = 327;
}
);
note = uni06E6;
unicode = 06E6;
}
{
glyphname = "dotcirclebelow-ar";
layers = (
{
anchors = (
{
name = _bottom;
position = "{119, -60}";
},
{
name = bottom;
position = "{119, -286}";
}
);
layerId = "307C4A58-79B8-4138-817C-FBEE21722E1A";
paths = (
{
closed = 1;
nodes = (
"192 -289 OFFCURVE",
"241 -242 OFFCURVE",
"241 -173 CURVE SMOOTH",
"241 -104 OFFCURVE",
"189 -59 OFFCURVE",
"119 -59 CURVE SMOOTH",
"47 -59 OFFCURVE",
"0 -104 OFFCURVE",
"0 -174 CURVE SMOOTH",
"0 -244 OFFCURVE",
"47 -289 OFFCURVE",
"119 -289 CURVE SMOOTH"
);
},
{
closed = 1;
nodes = (
"57 -269 OFFCURVE",
"20 -232 OFFCURVE",
"20 -174 CURVE SMOOTH",
"20 -116 OFFCURVE",
"57 -79 OFFCURVE",
"119 -79 CURVE SMOOTH",
"179 -79 OFFCURVE",
"221 -116 OFFCURVE",
"221 -173 CURVE SMOOTH",
"221 -230 OFFCURVE",
"182 -269 OFFCURVE",
"119 -269 CURVE SMOOTH"
);
},
{
closed = 1;
nodes = (
"170 -251 OFFCURVE",
"202 -219 OFFCURVE",
"202 -173 CURVE SMOOTH",
"202 -127 OFFCURVE",
"168 -97 OFFCURVE",
"119 -97 CURVE SMOOTH",
"69 -97 OFFCURVE",
"39 -127 OFFCURVE",
"39 -174 CURVE SMOOTH",
"39 -221 OFFCURVE",
"69 -251 OFFCURVE",
"119 -251 CURVE SMOOTH"
);
}
);
width = 241;
},
{
anchors = (
{
name = _bottom;
position = "{119, -74}";
},
{
name = bottom;
position = "{119, -312}";
}
);
layerId = "15908E2C-AB74-4DC1-B0E7-8741EE8F4DA5";
paths = (
{
closed = 1;
nodes = (
"191 -304 OFFCURVE",
"241 -258 OFFCURVE",
"241 -188 CURVE SMOOTH",
"241 -119 OFFCURVE",
"191 -74 OFFCURVE",
"119 -74 CURVE SMOOTH",
"49 -74 OFFCURVE",
"0 -118 OFFCURVE",
"0 -189 CURVE SMOOTH",
"0 -260 OFFCURVE",
"47 -304 OFFCURVE",
"119 -304 CURVE SMOOTH"
);
},
{
closed = 1;
nodes = (
"57 -284 OFFCURVE",
"20 -248 OFFCURVE",
"20 -189 CURVE SMOOTH",
"20 -130 OFFCURVE",
"59 -94 OFFCURVE",
"119 -94 CURVE SMOOTH",
"181 -94 OFFCURVE",
"221 -131 OFFCURVE",
"221 -188 CURVE SMOOTH",
"221 -246 OFFCURVE",
"181 -284 OFFCURVE",
"119 -284 CURVE SMOOTH"
);
},
{
closed = 1;
nodes = (
"170 -266 OFFCURVE",
"202 -235 OFFCURVE",
"202 -188 CURVE SMOOTH",
"202 -142 OFFCURVE",
"170 -112 OFFCURVE",
"119 -112 CURVE SMOOTH",
"71 -112 OFFCURVE",
"39 -141 OFFCURVE",
"39 -189 CURVE SMOOTH",
"39 -237 OFFCURVE",
"69 -266 OFFCURVE",
"119 -266 CURVE SMOOTH"
);
}
);
width = 241;
},
{
anchors = (
{
name = _bottom;
position = "{90, -99}";
},
{
name = bottom;
position = "{90, -298}";
}
);
layerId = "410295A1-92BC-4707-ABFC-13885E60878B";
paths = (
{
closed = 1;
nodes = (
"143 -285 OFFCURVE",
"180 -251 OFFCURVE",
"180 -196 CURVE SMOOTH",
"180 -141 OFFCURVE",
"143 -107 OFFCURVE",
"90 -107 CURVE SMOOTH",
"37 -107 OFFCURVE",
"0 -141 OFFCURVE",
"0 -196 CURVE SMOOTH",
"0 -251 OFFCURVE",
"37 -285 OFFCURVE",
"90 -285 CURVE SMOOTH"
);
},
{
closed = 1;
nodes = (
"47 -265 OFFCURVE",
"20 -239 OFFCURVE",
"20 -196 CURVE SMOOTH",
"20 -153 OFFCURVE",
"47 -127 OFFCURVE",
"90 -127 CURVE SMOOTH",
"133 -127 OFFCURVE",
"160 -153 OFFCURVE",
"160 -196 CURVE SMOOTH",
"160 -239 OFFCURVE",
"133 -265 OFFCURVE",
"90 -265 CURVE SMOOTH"
);
},
{
closed = 1;
nodes = (
"125 -252 OFFCURVE",
"147 -231 OFFCURVE",
"147 -196 CURVE SMOOTH",
"147 -161 OFFCURVE",
"125 -140 OFFCURVE",
"90 -140 CURVE SMOOTH",
"55 -140 OFFCURVE",
"33 -161 OFFCURVE",
"33 -196 CURVE SMOOTH",
"33 -231 OFFCURVE",
"55 -252 OFFCURVE",
"90 -252 CURVE SMOOTH"
);
}
);
width = 180;
},
{
anchors = (
{
name = _bottom;
position = "{119, -37}";
},
{
name = bottom;
position = "{119, -289}";
}
);
layerId = "DCD2D043-4E01-4B5D-9248-443A06E88532";
paths = (
{
closed = 1;
nodes = (
"194 -271 OFFCURVE",
"241 -222 OFFCURVE",
"241 -155 CURVE SMOOTH",
"241 -86 OFFCURVE",
"188 -41 OFFCURVE",
"119 -41 CURVE SMOOTH",
"45 -41 OFFCURVE",
"0 -88 OFFCURVE",
"0 -156 CURVE SMOOTH",
"0 -225 OFFCURVE",
"46 -271 OFFCURVE",
"119 -271 CURVE SMOOTH"
);
},
{
closed = 1;
nodes = (
"58 -251 OFFCURVE",
"20 -213 OFFCURVE",
"20 -156 CURVE SMOOTH",
"20 -98 OFFCURVE",
"57 -61 OFFCURVE",
"119 -61 CURVE SMOOTH",
"178 -61 OFFCURVE",
"221 -98 OFFCURVE",
"221 -155 CURVE SMOOTH",
"221 -212 OFFCURVE",
"182 -251 OFFCURVE",
"119 -251 CURVE SMOOTH"
);
},
{
closed = 1;
nodes = (
"170 -233 OFFCURVE",
"202 -201 OFFCURVE",
"202 -155 CURVE SMOOTH",
"202 -109 OFFCURVE",
"167 -79 OFFCURVE",
"119 -79 CURVE SMOOTH",
"69 -79 OFFCURVE",
"39 -109 OFFCURVE",
"39 -156 CURVE SMOOTH",
"39 -202 OFFCURVE",
"70 -233 OFFCURVE",
"119 -233 CURVE SMOOTH"
);
}
);
width = 241;
}
);
leftMetricsKey = "=0";
note = uni065C;
rightMetricsKey = "=0";
unicode = 08D2;
}
{
glyphname = "fathaCurly-ar";
layers = (
{
anchors = (
{
name = _top.far;
position = "{127, 774}";
},
{
name = top.far;
position = "{127, 928}";
},
{
name = top.near;
position = "{127, 928}";
}
);
layerId = "307C4A58-79B8-4138-817C-FBEE21722E1A";
paths = (
{
closed = 1;
nodes = (
"54 781 OFFCURVE",
"61 797 OFFCURVE",
"74 802 CURVE SMOOTH",
"211 854 LINE SMOOTH",
"248 867 OFFCURVE",
"258 896 OFFCURVE",
"258 949 CURVE",
"209 954 LINE",
"209 920 OFFCURVE",
"197 912 OFFCURVE",
"188 909 CURVE SMOOTH",
"47 855 LINE SMOOTH",
"9 841 OFFCURVE",
"0 808 OFFCURVE",
"0 760 CURVE",
"51 755 LINE"
);
}
);
width = 258;
},
{
anchors = (
{
name = _top.far;
position = "{123, 781}";
},
{
name = top.far;
position = "{123, 918}";
},
{
name = top.near;
position = "{123, 918}";
}
);
layerId = "15908E2C-AB74-4DC1-B0E7-8741EE8F4DA5";
paths = (
{
closed = 1;
nodes = (
"47 776 OFFCURVE",
"48 791 OFFCURVE",
"73 801 CURVE SMOOTH",
"206 851 LINE SMOOTH",
"239 861 OFFCURVE",
"250 890 OFFCURVE",
"250 939 CURVE",
"205 943 LINE",
"204 933 OFFCURVE",
"205 905 OFFCURVE",
"180 896 CURVE SMOOTH",
"44 844 LINE SMOOTH",
"11 834 OFFCURVE",
"0 805 OFFCURVE",
"0 756 CURVE",
"46 752 LINE"
);
}
);
width = 250;
},
{
anchors = (
{
name = _top.far;
position = "{110, 781}";
},
{
name = top.far;
position = "{110, 908}";
},
{
name = top.near;
position = "{110, 908}";
}
);
layerId = "410295A1-92BC-4707-ABFC-13885E60878B";
paths = (
{
closed = 1;
nodes = (
"24 792 OFFCURVE",
"32 801 OFFCURVE",
"40 804 CURVE SMOOTH",
"184 859 LINE SMOOTH",
"198 864 OFFCURVE",
"214 879 OFFCURVE",
"216 908 CURVE",
"194 910 LINE",
"192 891 OFFCURVE",
"184 882 OFFCURVE",
"176 879 CURVE SMOOTH",
"32 824 LINE SMOOTH",
"18 819 OFFCURVE",
"2 804 OFFCURVE",
"0 775 CURVE",
"22 773 LINE"
);
}
);
width = 216;
},
{
anchors = (
{
name = _top.far;
position = "{127, 781}";
},
{
name = top.far;
position = "{127, 935}";
},
{
name = top.near;
position = "{127, 935}";
}
);
layerId = "DCD2D043-4E01-4B5D-9248-443A06E88532";
paths = (
{
closed = 1;
nodes = (
"58 778 OFFCURVE",
"64 794 OFFCURVE",
"77 799 CURVE SMOOTH",
"213 852 LINE SMOOTH",
"244 864 OFFCURVE",
"266 895 OFFCURVE",
"266 962 CURVE",
"215 966 LINE",
"213 938 OFFCURVE",
"200 919 OFFCURVE",
"181 912 CURVE SMOOTH",
"45 861 LINE SMOOTH",
"16 850 OFFCURVE",
"0 814 OFFCURVE",
"0 762 CURVE",
"56 757 LINE"
);
}
);
width = 266;
}
);
leftMetricsKey = "=0";
note = uni064E;
rightMetricsKey = "=0";
unicode = 08E4;
}
{
glyphname = "fathaRing-ar";
layers = (
{
anchors = (
{
name = _top.far;
position = "{157, 744}";
},
{
name = top.far;
position = "{157, 968}";
},
{
name = top.near;
position = "{157, 968}";
}
);
components = (
{
name = "sukun-ar";
transform = "{1, 0, 0, 1, 46, -70}";
}
);
layerId = "307C4A58-79B8-4138-817C-FBEE21722E1A";
paths = (
{
closed = 1;
nodes = (
"0 761 LINE",
"304 876 LINE",
"304 939 LINE",
"0 827 LINE"
);
}
);
userData = {
assembly = "PUSHB[ ]	/* 2 values pushed */
1 3 
SVTCA[0]	/* SetFreedomAndProjectionVectorToAxis */
MDAP[1]	/* MoveDirectAbsPt */
MDRP[01101]	/* MoveDirectRelPt */
IUP[1]	/* InterpolateUntPts */
IUP[0]	/* InterpolateUntPts */";
};
width = 304;
},
{
anchors = (
{
name = _top.far;
position = "{150, 741}";
},
{
name = top.far;
position = "{150, 968}";
},
{
name = top.near;
position = "{150, 968}";
}
);
components = (
{
name = "sukun-ar";
transform = "{1, 0, 0, 1, 39, -70}";
}
);
layerId = "15908E2C-AB74-4DC1-B0E7-8741EE8F4DA5";
paths = (
{
closed = 1;
nodes = (
"0 764 LINE",
"300 876 LINE",
"300 930 LINE",
"0 819 LINE"
);
}
);
userData = {
assembly = "PUSHB[ ]	/* 2 values pushed */
1 3 
SVTCA[0]	/* SetFreedomAndProjectionVectorToAxis */
MDAP[1]	/* MoveDirectAbsPt */
MDRP[01101]	/* MoveDirectRelPt */
IUP[1]	/* InterpolateUntPts */
IUP[0]	/* InterpolateUntPts */";
};
width = 300;
},
{
anchors = (
{
name = _top.far;
position = "{101, 761}";
},
{
name = top.far;
position = "{101, 938}";
},
{
name = top.near;
position = "{101, 938}";
}
);
components = (
{
name = "sukun-ar";
transform = "{1, 0, 0, 1, 21, -80}";
}
);
layerId = "410295A1-92BC-4707-ABFC-13885E60878B";
paths = (
{
closed = 1;
nodes = (
"0 793 LINE",
"204 870 LINE",
"204 892 LINE",
"0 816 LINE"
);
}
);
width = 204;
},
{
anchors = (
{
name = _top.far;
position = "{157, 731}";
},
{
name = top.far;
position = "{157, 975}";
},
{
name = top.near;
position = "{157, 975}";
}
);
components = (
{
name = "sukun-ar";
transform = "{1, 0, 0, 1, 47, -70}";
}
);
layerId = "DCD2D043-4E01-4B5D-9248-443A06E88532";
paths = (
{
closed = 1;
nodes = (
"0 757 LINE",
"314 875 LINE",
"314 946 LINE",
"0 829 LINE"
);
}
);
width = 314;
}
);
leftMetricsKey = "=0";
note = uni064E;
rightMetricsKey = "=0";
unicode = 08F4;
}
{
glyphname = "largerounddotabove-ar";
layers = (
{
anchors = (
{
name = _top.far;
position = "{80, 781}";
},
{
name = top.far;
position = "{80, 998}";
},
{
name = top.near;
position = "{80, 998}";
}
);
layerId = "410295A1-92BC-4707-ABFC-13885E60878B";
paths = (
{
closed = 1;
nodes = (
"128 805 OFFCURVE",
"160 835 OFFCURVE",
"160 884 CURVE SMOOTH",
"160 933 OFFCURVE",
"128 963 OFFCURVE",
"80 963 CURVE SMOOTH",
"32 963 OFFCURVE",
"0 933 OFFCURVE",
"0 884 CURVE SMOOTH",
"0 835 OFFCURVE",
"32 805 OFFCURVE",
"80 805 CURVE SMOOTH"
);
}
);
width = 160;
},
{
anchors = (
{
name = _top.far;
position = "{111, 781}";
},
{
name = top.far;
position = "{111, 1018}";
},
{
name = top.near;
position = "{111, 1018}";
}
);
layerId = "15908E2C-AB74-4DC1-B0E7-8741EE8F4DA5";
paths = (
{
closed = 1;
nodes = (
"176 786 OFFCURVE",
"221 828 OFFCURVE",
"221 892 CURVE SMOOTH",
"221 955 OFFCURVE",
"176 996 OFFCURVE",
"109 996 CURVE SMOOTH",
"44 996 OFFCURVE",
"0 956 OFFCURVE",
"0 891 CURVE SMOOTH",
"0 826 OFFCURVE",
"42 786 OFFCURVE",
"109 786 CURVE SMOOTH"
);
}
);
width = 221;
},
{
anchors = (
{
name = _top.far;
position = "{111, 784}";
},
{
name = top.far;
position = "{111, 1028}";
},
{
name = top.near;
position = "{111, 1028}";
}
);
layerId = "307C4A58-79B8-4138-817C-FBEE21722E1A";
paths = (
{
closed = 1;
nodes = (
"177 800 OFFCURVE",
"221 843 OFFCURVE",
"221 906 CURVE SMOOTH",
"221 969 OFFCURVE",
"174 1010 OFFCURVE",
"109 1010 CURVE SMOOTH",
"42 1010 OFFCURVE",
"0 969 OFFCURVE",
"0 905 CURVE SMOOTH",
"0 841 OFFCURVE",
"42 800 OFFCURVE",
"109 800 CURVE SMOOTH"
);
}
);
width = 221;
},
{
anchors = (
{
name = _top.far;
position = "{111, 801}";
},
{
name = top.far;
position = "{111, 1045}";
},
{
name = top.near;
position = "{111, 1045}";
}
);
layerId = "DCD2D043-4E01-4B5D-9248-443A06E88532";
paths = (
{
closed = 1;
nodes = (
"178 819 OFFCURVE",
"221 863 OFFCURVE",
"221 925 CURVE SMOOTH",
"221 988 OFFCURVE",
"173 1029 OFFCURVE",
"109 1029 CURVE SMOOTH",
"41 1029 OFFCURVE",
"0 987 OFFCURVE",
"0 924 CURVE SMOOTH",
"0 861 OFFCURVE",
"42 819 OFFCURVE",
"109 819 CURVE SMOOTH"
);
}
);
width = 221;
}
);
leftMetricsKey = "=0";
rightMetricsKey = "=0";
unicode = 08CE;
}
{
glyphname = "toneloopabove-ar";
layers = (
{
anchors = (
{
name = _top.far;
position = "{161, 744}";
},
{
name = top.far;
position = "{161, 948}";
},
{
name = top.near;
position = "{161, 948}";
}
);
layerId = "307C4A58-79B8-4138-817C-FBEE21722E1A";
paths = (
{
closed = 1;
nodes = (
"322 782 LINE",
"246 879 OFFCURVE",
"158 919 OFFCURVE",
"93 919 CURVE SMOOTH",
"38 919 OFFCURVE",
"0 891 OFFCURVE",
"0 844 CURVE SMOOTH",
"0 801 OFFCURVE",
"37 775 OFFCURVE",
"90 775 CURVE SMOOTH",
"155 775 OFFCURVE",
"245 814 OFFCURVE",
"322 906 CURVE",
"276 944 LINE",
"216 873 OFFCURVE",
"122 830 OFFCURVE",
"81 830 CURVE SMOOTH",
"68 830 OFFCURVE",
"60 835 OFFCURVE",
"60 844 CURVE SMOOTH",
"60 857 OFFCURVE",
"70 862 OFFCURVE",
"84 862 CURVE SMOOTH",
"128 862 OFFCURVE",
"222 814 OFFCURVE",
"275 745 CURVE"
);
}
);
width = 322;
},
{
anchors = (
{
name = _top.far;
position = "{148, 771}";
},
{
name = top.far;
position = "{148, 928}";
},
{
name = top.near;
position = "{148, 928}";
}
);
layerId = "15908E2C-AB74-4DC1-B0E7-8741EE8F4DA5";
paths = (
{
closed = 1;
nodes = (
"296 803 LINE",
"239 877 OFFCURVE",
"153 914 OFFCURVE",
"89 914 CURVE SMOOTH",
"38 914 OFFCURVE",
"0 890 OFFCURVE",
"0 844 CURVE SMOOTH",
"0 802 OFFCURVE",
"37 780 OFFCURVE",
"88 780 CURVE SMOOTH",
"152 780 OFFCURVE",
"236 814 OFFCURVE",
"296 885 CURVE",
"256 919 LINE",
"202 854 OFFCURVE",
"124 832 OFFCURVE",
"83 832 CURVE SMOOTH",
"63 832 OFFCURVE",
"52 837 OFFCURVE",
"52 844 CURVE SMOOTH",
"52 855 OFFCURVE",
"67 861 OFFCURVE",
"89 861 CURVE SMOOTH",
"133 861 OFFCURVE",
"205 836 OFFCURVE",
"256 771 CURVE"
);
}
);
width = 296;
},
{
anchors = (
{
name = _top.far;
position = "{117, 781}";
},
{
name = top.far;
position = "{117, 908}";
},
{
name = top.near;
position = "{117, 908}";
}
);
layerId = "410295A1-92BC-4707-ABFC-13885E60878B";
paths = (
{
closed = 1;
nodes = (
"233 807 LINE",
"170 861 OFFCURVE",
"109 883 OFFCURVE",
"65 883 CURVE SMOOTH",
"25 883 OFFCURVE",
"0 865 OFFCURVE",
"0 837 CURVE SMOOTH",
"0 807 OFFCURVE",
"27 791 OFFCURVE",
"65 791 CURVE SMOOTH",
"113 791 OFFCURVE",
"177 815 OFFCURVE",
"233 868 CURVE",
"219 882 LINE",
"166 831 OFFCURVE",
"106 811 OFFCURVE",
"66 811 CURVE SMOOTH",
"39 811 OFFCURVE",
"20 820 OFFCURVE",
"20 837 CURVE SMOOTH",
"20 852 OFFCURVE",
"37 863 OFFCURVE",
"66 863 CURVE SMOOTH",
"103 863 OFFCURVE",
"159 843 OFFCURVE",
"219 791 CURVE"
);
}
);
width = 233;
},
{
anchors = (
{
name = _top.far;
position = "{161, 781}";
},
{
name = top.far;
position = "{161, 935}";
},
{
name = top.near;
position = "{161, 935}";
}
);
layerId = "DCD2D043-4E01-4B5D-9248-443A06E88532";
paths = (
{
closed = 1;
nodes = (
"332 774 LINE",
"253 875 OFFCURVE",
"163 915 OFFCURVE",
"97 915 CURVE SMOOTH",
"40 915 OFFCURVE",
"0 885 OFFCURVE",
"0 837 CURVE SMOOTH",
"0 791 OFFCURVE",
"38 763 OFFCURVE",
"93 763 CURVE SMOOTH",
"160 763 OFFCURVE",
"253 804 OFFCURVE",
"332 899 CURVE",
"280 943 LINE",
"222 873 OFFCURVE",
"125 828 OFFCURVE",
"86 827 CURVE SMOOTH",
"75 827 OFFCURVE",
"68 830 OFFCURVE",
"68 837 CURVE SMOOTH",
"68 846 OFFCURVE",
"76 851 OFFCURVE",
"89 851 CURVE SMOOTH",
"129 851 OFFCURVE",
"217 810 OFFCURVE",
"278 732 CURVE"
);
}
);
width = 332;
}
);
leftMetricsKey = "=0";
note = uni064E;
rightMetricsKey = "=0";
unicode = 08EC;
}
{
glyphname = "yehRohingya-ar";
layers = (
{
anchors = (
{
name = bottom;
position = "{409, -274}";
},
{
name = top.far;
position = "{349, 466}";
},
{
name = top.near;
position = "{349, 466}";
}
);
components = (
{
name = "twodotshorizontalbelow-ar";
transform = "{1, 0, 0, 1, 421, -27}";
}
);
layerId = "410295A1-92BC-4707-ABFC-13885E60878B";
paths = (
{
closed = 1;
nodes = (
"268 24 OFFCURVE",
"206 97 OFFCURVE",
"206 193 CURVE SMOOTH",
"206 290 OFFCURVE",
"257 346 OFFCURVE",
"346 346 CURVE SMOOTH",
"446 346 OFFCURVE",
"493 290 OFFCURVE",
"493 148 CURVE SMOOTH",
"493 24 LINE",
"356 24 LINE SMOOTH"
);
},
{
closed = 1;
nodes = (
"85 0 LINE",
"603 0 LINE",
"603 24 LINE",
"517 24 LINE",
"517 158 LINE SMOOTH",
"517 302 OFFCURVE",
"455 370 OFFCURVE",
"352 370 CURVE SMOOTH",
"247 370 OFFCURVE",
"182 304 OFFCURVE",
"182 197 CURVE SMOOTH",
"182 120 OFFCURVE",
"215 53 OFFCURVE",
"274 24 CURVE",
"85 24 LINE"
);
}
);
width = 688;
},
{
anchors = (
{
name = bottom;
position = "{389, -274}";
},
{
name = top.far;
position = "{369, 526}";
},
{
name = top.near;
position = "{369, 525}";
}
);
components = (
{
name = "twodotshorizontalbelow-ar";
transform = "{1, 0, 0, 1, 389, -17}";
}
);
layerId = "15908E2C-AB74-4DC1-B0E7-8741EE8F4DA5";
paths = (
{
closed = 1;
nodes = (
"315 78 OFFCURVE",
"259 133 OFFCURVE",
"259 218 CURVE SMOOTH",
"259 294 OFFCURVE",
"299 337 OFFCURVE",
"367 337 CURVE SMOOTH",
"442 337 OFFCURVE",
"480 294 OFFCURVE",
"480 195 CURVE SMOOTH",
"480 78 LINE",
"398 78 LINE SMOOTH"
);
},
{
closed = 1;
nodes = (
"85 0 LINE",
"671 0 LINE",
"671 78 LINE",
"565 78 LINE",
"565 210 LINE SMOOTH",
"565 353 OFFCURVE",
"500 425 OFFCURVE",
"371 425 CURVE SMOOTH",
"257 425 OFFCURVE",
"170 342 OFFCURVE",
"170 221 CURVE SMOOTH",
"170 158 OFFCURVE",
"197 105 OFFCURVE",
"240 78 CURVE",
"85 78 LINE"
);
}
);
width = 756;
},
{
anchors = (
{
name = bottom;
position = "{416, -274}";
},
{
name = top.far;
position = "{416, 566}";
},
{
name = top.near;
position = "{416, 566}";
}
);
components = (
{
name = "twodotshorizontalbelow-ar";
transform = "{1, 0, 0, 1, 411, 13}";
}
);
layerId = "307C4A58-79B8-4138-817C-FBEE21722E1A";
paths = (
{
closed = 1;
nodes = (
"365 120 OFFCURVE",
"325 165 OFFCURVE",
"325 254 CURVE SMOOTH",
"325 313 OFFCURVE",
"357 355 OFFCURVE",
"402 355 CURVE SMOOTH",
"454 355 OFFCURVE",
"478 325 OFFCURVE",
"478 256 CURVE SMOOTH",
"478 120 LINE",
"446 120 LINE SMOOTH"
);
},
{
closed = 1;
nodes = (
"85 0 LINE",
"752 0 LINE",
"752 120 LINE",
"627 120 LINE",
"627 262 LINE SMOOTH",
"627 390 OFFCURVE",
"538 480 OFFCURVE",
"401 480 CURVE SMOOTH",
"276 480 OFFCURVE",
"172 386 OFFCURVE",
"172 253 CURVE SMOOTH",
"172 191 OFFCURVE",
"193 145 OFFCURVE",
"220 120 CURVE",
"85 120 LINE"
);
}
);
width = 837;
},
{
anchors = (
{
name = bottom;
position = "{449, -334}";
},
{
name = top.far;
position = "{449, 566}";
},
{
name = top.near;
position = "{449, 566}";
}
);
components = (
{
name = "twodotshorizontalbelow-ar";
transform = "{1, 0, 0, 1, 452, 13}";
}
);
layerId = "DCD2D043-4E01-4B5D-9248-443A06E88532";
paths = (
{
closed = 1;
nodes = (
"405 148 OFFCURVE",
"365 190 OFFCURVE",
"365 270 CURVE SMOOTH",
"365 326 OFFCURVE",
"400 369 OFFCURVE",
"449 369 CURVE SMOOTH",
"489 369 OFFCURVE",
"512 344 OFFCURVE",
"512 297 CURVE SMOOTH",
"512 148 LINE",
"504 148 LINE SMOOTH"
);
},
{
closed = 1;
nodes = (
"85 0 LINE",
"839 0 LINE",
"839 148 LINE",
"701 148 LINE",
"701 297 LINE SMOOTH",
"701 440 OFFCURVE",
"596 517 OFFCURVE",
"451 517 CURVE SMOOTH",
"297 517 OFFCURVE",
"175 419 OFFCURVE",
"175 272 CURVE SMOOTH",
"175 220 OFFCURVE",
"197 171 OFFCURVE",
"227 148 CURVE",
"85 148 LINE"
);
}
);
width = 924;
}
);
leftMetricsKey = "=85";
rightMetricsKey = "=85";
unicode = 08AC;
}
{
glyphname = dottedCircle;
layers = (
{
anchors = (
{
name = bottom;
position = "{293, -78}";
},
{
name = top.far;
position = "{293, 615}";
},
{
name = top.near;
position = "{293, 615}";
}
);
layerId = "307C4A58-79B8-4138-817C-FBEE21722E1A";
paths = (
{
closed = 1;
nodes = (
"479 464.667 OFFCURVE",
"471 473 OFFCURVE",
"455 473 CURVE SMOOTH",
"438.333 473 OFFCURVE",
"430 464.667 OFFCURVE",
"430 448 CURVE SMOOTH",
"430 432 OFFCURVE",
"438.333 424 OFFCURVE",
"455 424 CURVE SMOOTH",
"471 424 OFFCURVE",
"479 432 OFFCURVE",
"479 448 CURVE SMOOTH"
);
},
{
closed = 1;
nodes = (
"406 512.667 OFFCURVE",
"398.333 521 OFFCURVE",
"383 521 CURVE SMOOTH",
"365.667 521 OFFCURVE",
"357 512.667 OFFCURVE",
"357 496 CURVE SMOOTH",
"357 480 OFFCURVE",
"365.667 472 OFFCURVE",
"383 472 CURVE SMOOTH",
"398.333 472 OFFCURVE",
"406 480 OFFCURVE",
"406 496 CURVE SMOOTH"
);
},
{
closed = 1;
nodes = (
"527 392 OFFCURVE",
"519 400 OFFCURVE",
"503 400 CURVE SMOOTH",
"486.333 400 OFFCURVE",
"478 392 OFFCURVE",
"478 376 CURVE SMOOTH",
"478 359.333 OFFCURVE",
"486 351 OFFCURVE",
"502 351 CURVE SMOOTH",
"518.667 351 OFFCURVE",
"527 359.333 OFFCURVE",
"527 376 CURVE SMOOTH"
);
},
{
closed = 1;
nodes = (
"544 307 OFFCURVE",
"536.333 315 OFFCURVE",
"521 315 CURVE SMOOTH",
"504.333 315 OFFCURVE",
"496 307 OFFCURVE",
"496 291 CURVE SMOOTH",
"496 275 OFFCURVE",
"504.333 267 OFFCURVE",
"521 267 CURVE SMOOTH",
"536.333 267 OFFCURVE",
"544 275 OFFCURVE",
"544 291 CURVE SMOOTH"
);
},
{
closed = 1;
nodes = (
"321 530 OFFCURVE",
"313 538 OFFCURVE",
"297 538 CURVE SMOOTH",
"280.333 538 OFFCURVE",
"272 530 OFFCURVE",
"272 514 CURVE SMOOTH",
"272 497.333 OFFCURVE",
"280.333 489 OFFCURVE",
"297 489 CURVE SMOOTH",
"313 489 OFFCURVE",
"321 497.333 OFFCURVE",
"321 514 CURVE SMOOTH"
);
},
{
closed = 1;
nodes = (
"237 512.667 OFFCURVE",
"228.667 521 OFFCURVE",
"212 521 CURVE SMOOTH",
"196 521 OFFCURVE",
"188 512.667 OFFCURVE",
"188 496 CURVE SMOOTH",
"188 480 OFFCURVE",
"196 472 OFFCURVE",
"212 472 CURVE SMOOTH",
"228.667 472 OFFCURVE",
"237 480 OFFCURVE",
"237 496 CURVE SMOOTH"
);
},
{
closed = 1;
nodes = (
"527 222.667 OFFCURVE",
"518.667 231 OFFCURVE",
"502 231 CURVE SMOOTH",
"486 231 OFFCURVE",
"478 222.667 OFFCURVE",
"478 206 CURVE SMOOTH",
"478 190 OFFCURVE",
"486 182 OFFCURVE",
"502 182 CURVE SMOOTH",
"518.667 182 OFFCURVE",
"527 190 OFFCURVE",
"527 206 CURVE SMOOTH"
);
},
{
closed = 1;
nodes = (
"165 464.667 OFFCURVE",
"156.667 473 OFFCURVE",
"140 473 CURVE SMOOTH",
"124 473 OFFCURVE",
"116 464.333 OFFCURVE",
"116 447 CURVE SMOOTH",
"116 431.667 OFFCURVE",
"124 424 OFFCURVE",
"140 424 CURVE SMOOTH",
"156.667 424 OFFCURVE",
"165 432 OFFCURVE",
"165 448 CURVE SMOOTH"
);
},
{
closed = 1;
nodes = (
"479 149.667 OFFCURVE",
"471 158 OFFCURVE",
"455 158 CURVE SMOOTH",
"438.333 158 OFFCURVE",
"430 149.667 OFFCURVE",
"430 133 CURVE SMOOTH",
"430 117 OFFCURVE",
"438.333 109 OFFCURVE",
"455 109 CURVE SMOOTH",
"471 109 OFFCURVE",
"479 117 OFFCURVE",
"479 133 CURVE SMOOTH"
);
},
{
closed = 1;
nodes = (
"406 101.667 OFFCURVE",
"398.333 110 OFFCURVE",
"383 110 CURVE SMOOTH",
"365.667 110 OFFCURVE",
"357 101.667 OFFCURVE",
"357 85 CURVE SMOOTH",
"357 69.667 OFFCURVE",
"365.667 62 OFFCURVE",
"383 62 CURVE SMOOTH",
"398.333 62 OFFCURVE",
"406 69.667 OFFCURVE",
"406 85 CURVE SMOOTH"
);
},
{
closed = 1;
nodes = (
"116 392 OFFCURVE",
"108 400 OFFCURVE",
"92 400 CURVE SMOOTH",
"75.333 400 OFFCURVE",
"67 392 OFFCURVE",
"67 376 CURVE SMOOTH",
"67 359.333 OFFCURVE",
"75.667 351 OFFCURVE",
"93 351 CURVE SMOOTH",
"108.333 351 OFFCURVE",
"116 359.333 OFFCURVE",
"116 376 CURVE SMOOTH"
);
},
{
closed = 1;
nodes = (
"99 307 OFFCURVE",
"91 315 OFFCURVE",
"75 315 CURVE SMOOTH",
"58.333 315 OFFCURVE",
"50 307 OFFCURVE",
"50 291 CURVE SMOOTH",
"50 275 OFFCURVE",
"58.333 267 OFFCURVE",
"75 267 CURVE SMOOTH",
"91 267 OFFCURVE",
"99 275 OFFCURVE",
"99 291 CURVE SMOOTH"
);
},
{
closed = 1;
nodes = (
"321 85 OFFCURVE",
"313 93 OFFCURVE",
"297 93 CURVE SMOOTH",
"280.333 93 OFFCURVE",
"272 85 OFFCURVE",
"272 69 CURVE SMOOTH",
"272 52.333 OFFCURVE",
"280.333 44 OFFCURVE",
"297 44 CURVE SMOOTH",
"313 44 OFFCURVE",
"321 52.333 OFFCURVE",
"321 69 CURVE SMOOTH"
);
},
{
closed = 1;
nodes = (
"116 222.667 OFFCURVE",
"108 231 OFFCURVE",
"92 231 CURVE SMOOTH",
"75.333 231 OFFCURVE",
"67 222.667 OFFCURVE",
"67 206 CURVE SMOOTH",
"67 190 OFFCURVE",
"75.333 182 OFFCURVE",
"92 182 CURVE SMOOTH",
"108 182 OFFCURVE",
"116 190 OFFCURVE",
"116 206 CURVE SMOOTH"
);
},
{
closed = 1;
nodes = (
"237 102.333 OFFCURVE",
"228.667 110 OFFCURVE",
"212 110 CURVE SMOOTH",
"196 110 OFFCURVE",
"188 101.667 OFFCURVE",
"188 85 CURVE SMOOTH",
"188 69.667 OFFCURVE",
"196 62 OFFCURVE",
"212 62 CURVE SMOOTH",
"228.667 62 OFFCURVE",
"237 70.333 OFFCURVE",
"237 87 CURVE SMOOTH"
);
},
{
closed = 1;
nodes = (
"165 149.667 OFFCURVE",
"156.667 158 OFFCURVE",
"140 158 CURVE SMOOTH",
"124 158 OFFCURVE",
"116 149.667 OFFCURVE",
"116 133 CURVE SMOOTH",
"116 117 OFFCURVE",
"124 109 OFFCURVE",
"140 109 CURVE SMOOTH",
"156.667 109 OFFCURVE",
"165 117 OFFCURVE",
"165 133 CURVE SMOOTH"
);
}
);
width = 594;
},
{
anchors = (
{
name = bottom;
position = "{293, -78}";
},
{
name = top.far;
position = "{293, 615}";
},
{
name = top.near;
position = "{293, 615}";
}
);
layerId = "15908E2C-AB74-4DC1-B0E7-8741EE8F4DA5";
paths = (
{
closed = 1;
nodes = (
"479 464.667 OFFCURVE",
"471 473 OFFCURVE",
"455 473 CURVE SMOOTH",
"438.333 473 OFFCURVE",
"430 464.667 OFFCURVE",
"430 448 CURVE SMOOTH",
"430 432 OFFCURVE",
"438.333 424 OFFCURVE",
"455 424 CURVE SMOOTH",
"471 424 OFFCURVE",
"479 432 OFFCURVE",
"479 448 CURVE SMOOTH"
);
},
{
closed = 1;
nodes = (
"406 512.667 OFFCURVE",
"398.333 521 OFFCURVE",
"383 521 CURVE SMOOTH",
"365.667 521 OFFCURVE",
"357 512.667 OFFCURVE",
"357 496 CURVE SMOOTH",
"357 480 OFFCURVE",
"365.667 472 OFFCURVE",
"383 472 CURVE SMOOTH",
"398.333 472 OFFCURVE",
"406 480 OFFCURVE",
"406 496 CURVE SMOOTH"
);
},
{
closed = 1;
nodes = (
"527 392 OFFCURVE",
"519 400 OFFCURVE",
"503 400 CURVE SMOOTH",
"486.333 400 OFFCURVE",
"478 392 OFFCURVE",
"478 376 CURVE SMOOTH",
"478 359.333 OFFCURVE",
"486 351 OFFCURVE",
"502 351 CURVE SMOOTH",
"518.667 351 OFFCURVE",
"527 359.333 OFFCURVE",
"527 376 CURVE SMOOTH"
);
},
{
closed = 1;
nodes = (
"544 307 OFFCURVE",
"536.333 315 OFFCURVE",
"521 315 CURVE SMOOTH",
"504.333 315 OFFCURVE",
"496 307 OFFCURVE",
"496 291 CURVE SMOOTH",
"496 275 OFFCURVE",
"504.333 267 OFFCURVE",
"521 267 CURVE SMOOTH",
"536.333 267 OFFCURVE",
"544 275 OFFCURVE",
"544 291 CURVE SMOOTH"
);
},
{
closed = 1;
nodes = (
"321 530 OFFCURVE",
"313 538 OFFCURVE",
"297 538 CURVE SMOOTH",
"280.333 538 OFFCURVE",
"272 530 OFFCURVE",
"272 514 CURVE SMOOTH",
"272 497.333 OFFCURVE",
"280.333 489 OFFCURVE",
"297 489 CURVE SMOOTH",
"313 489 OFFCURVE",
"321 497.333 OFFCURVE",
"321 514 CURVE SMOOTH"
);
},
{
closed = 1;
nodes = (
"237 512.667 OFFCURVE",
"228.667 521 OFFCURVE",
"212 521 CURVE SMOOTH",
"196 521 OFFCURVE",
"188 512.667 OFFCURVE",
"188 496 CURVE SMOOTH",
"188 480 OFFCURVE",
"196 472 OFFCURVE",
"212 472 CURVE SMOOTH",
"228.667 472 OFFCURVE",
"237 480 OFFCURVE",
"237 496 CURVE SMOOTH"
);
},
{
closed = 1;
nodes = (
"527 222.667 OFFCURVE",
"518.667 231 OFFCURVE",
"502 231 CURVE SMOOTH",
"486 231 OFFCURVE",
"478 222.667 OFFCURVE",
"478 206 CURVE SMOOTH",
"478 190 OFFCURVE",
"486 182 OFFCURVE",
"502 182 CURVE SMOOTH",
"518.667 182 OFFCURVE",
"527 190 OFFCURVE",
"527 206 CURVE SMOOTH"
);
},
{
closed = 1;
nodes = (
"165 464.667 OFFCURVE",
"156.667 473 OFFCURVE",
"140 473 CURVE SMOOTH",
"124 473 OFFCURVE",
"116 464.333 OFFCURVE",
"116 447 CURVE SMOOTH",
"116 431.667 OFFCURVE",
"124 424 OFFCURVE",
"140 424 CURVE SMOOTH",
"156.667 424 OFFCURVE",
"165 432 OFFCURVE",
"165 448 CURVE SMOOTH"
);
},
{
closed = 1;
nodes = (
"479 149.667 OFFCURVE",
"471 158 OFFCURVE",
"455 158 CURVE SMOOTH",
"438.333 158 OFFCURVE",
"430 149.667 OFFCURVE",
"430 133 CURVE SMOOTH",
"430 117 OFFCURVE",
"438.333 109 OFFCURVE",
"455 109 CURVE SMOOTH",
"471 109 OFFCURVE",
"479 117 OFFCURVE",
"479 133 CURVE SMOOTH"
);
},
{
closed = 1;
nodes = (
"406 101.667 OFFCURVE",
"398.333 110 OFFCURVE",
"383 110 CURVE SMOOTH",
"365.667 110 OFFCURVE",
"357 101.667 OFFCURVE",
"357 85 CURVE SMOOTH",
"357 69.667 OFFCURVE",
"365.667 62 OFFCURVE",
"383 62 CURVE SMOOTH",
"398.333 62 OFFCURVE",
"406 69.667 OFFCURVE",
"406 85 CURVE SMOOTH"
);
},
{
closed = 1;
nodes = (
"116 392 OFFCURVE",
"108 400 OFFCURVE",
"92 400 CURVE SMOOTH",
"75.333 400 OFFCURVE",
"67 392 OFFCURVE",
"67 376 CURVE SMOOTH",
"67 359.333 OFFCURVE",
"75.667 351 OFFCURVE",
"93 351 CURVE SMOOTH",
"108.333 351 OFFCURVE",
"116 359.333 OFFCURVE",
"116 376 CURVE SMOOTH"
);
},
{
closed = 1;
nodes = (
"99 307 OFFCURVE",
"91 315 OFFCURVE",
"75 315 CURVE SMOOTH",
"58.333 315 OFFCURVE",
"50 307 OFFCURVE",
"50 291 CURVE SMOOTH",
"50 275 OFFCURVE",
"58.333 267 OFFCURVE",
"75 267 CURVE SMOOTH",
"91 267 OFFCURVE",
"99 275 OFFCURVE",
"99 291 CURVE SMOOTH"
);
},
{
closed = 1;
nodes = (
"321 85 OFFCURVE",
"313 93 OFFCURVE",
"297 93 CURVE SMOOTH",
"280.333 93 OFFCURVE",
"272 85 OFFCURVE",
"272 69 CURVE SMOOTH",
"272 52.333 OFFCURVE",
"280.333 44 OFFCURVE",
"297 44 CURVE SMOOTH",
"313 44 OFFCURVE",
"321 52.333 OFFCURVE",
"321 69 CURVE SMOOTH"
);
},
{
closed = 1;
nodes = (
"116 222.667 OFFCURVE",
"108 231 OFFCURVE",
"92 231 CURVE SMOOTH",
"75.333 231 OFFCURVE",
"67 222.667 OFFCURVE",
"67 206 CURVE SMOOTH",
"67 190 OFFCURVE",
"75.333 182 OFFCURVE",
"92 182 CURVE SMOOTH",
"108 182 OFFCURVE",
"116 190 OFFCURVE",
"116 206 CURVE SMOOTH"
);
},
{
closed = 1;
nodes = (
"237 102.333 OFFCURVE",
"228.667 110 OFFCURVE",
"212 110 CURVE SMOOTH",
"196 110 OFFCURVE",
"188 101.667 OFFCURVE",
"188 85 CURVE SMOOTH",
"188 69.667 OFFCURVE",
"196 62 OFFCURVE",
"212 62 CURVE SMOOTH",
"228.667 62 OFFCURVE",
"237 70.333 OFFCURVE",
"237 87 CURVE SMOOTH"
);
},
{
closed = 1;
nodes = (
"165 149.667 OFFCURVE",
"156.667 158 OFFCURVE",
"140 158 CURVE SMOOTH",
"124 158 OFFCURVE",
"116 149.667 OFFCURVE",
"116 133 CURVE SMOOTH",
"116 117 OFFCURVE",
"124 109 OFFCURVE",
"140 109 CURVE SMOOTH",
"156.667 109 OFFCURVE",
"165 117 OFFCURVE",
"165 133 CURVE SMOOTH"
);
}
);
width = 594;
},
{
anchors = (
{
name = bottom;
position = "{293, -78}";
},
{
name = top.far;
position = "{293, 615}";
},
{
name = top.near;
position = "{293, 615}";
}
);
layerId = "410295A1-92BC-4707-ABFC-13885E60878B";
paths = (
{
closed = 1;
nodes = (
"479 465 OFFCURVE",
"471 473 OFFCURVE",
"455 473 CURVE SMOOTH",
"438 473 OFFCURVE",
"430 465 OFFCURVE",
"430 448 CURVE SMOOTH",
"430 432 OFFCURVE",
"438 424 OFFCURVE",
"455 424 CURVE SMOOTH",
"471 424 OFFCURVE",
"479 432 OFFCURVE",
"479 448 CURVE SMOOTH"
);
},
{
closed = 1;
nodes = (
"406 513 OFFCURVE",
"398 521 OFFCURVE",
"383 521 CURVE SMOOTH",
"366 521 OFFCURVE",
"357 513 OFFCURVE",
"357 496 CURVE SMOOTH",
"357 480 OFFCURVE",
"366 472 OFFCURVE",
"383 472 CURVE SMOOTH",
"398 472 OFFCURVE",
"406 480 OFFCURVE",
"406 496 CURVE SMOOTH"
);
},
{
closed = 1;
nodes = (
"527 392 OFFCURVE",
"519 400 OFFCURVE",
"503 400 CURVE SMOOTH",
"486 400 OFFCURVE",
"478 392 OFFCURVE",
"478 376 CURVE SMOOTH",
"478 359 OFFCURVE",
"486 351 OFFCURVE",
"502 351 CURVE SMOOTH",
"519 351 OFFCURVE",
"527 359 OFFCURVE",
"527 376 CURVE SMOOTH"
);
},
{
closed = 1;
nodes = (
"544 307 OFFCURVE",
"536 315 OFFCURVE",
"521 315 CURVE SMOOTH",
"504 315 OFFCURVE",
"496 307 OFFCURVE",
"496 291 CURVE SMOOTH",
"496 275 OFFCURVE",
"504 267 OFFCURVE",
"521 267 CURVE SMOOTH",
"536 267 OFFCURVE",
"544 275 OFFCURVE",
"544 291 CURVE SMOOTH"
);
},
{
closed = 1;
nodes = (
"321 530 OFFCURVE",
"313 538 OFFCURVE",
"297 538 CURVE SMOOTH",
"280 538 OFFCURVE",
"272 530 OFFCURVE",
"272 514 CURVE SMOOTH",
"272 497 OFFCURVE",
"280 489 OFFCURVE",
"297 489 CURVE SMOOTH",
"313 489 OFFCURVE",
"321 497 OFFCURVE",
"321 514 CURVE SMOOTH"
);
},
{
closed = 1;
nodes = (
"237 513 OFFCURVE",
"229 521 OFFCURVE",
"212 521 CURVE SMOOTH",
"196 521 OFFCURVE",
"188 513 OFFCURVE",
"188 496 CURVE SMOOTH",
"188 480 OFFCURVE",
"196 472 OFFCURVE",
"212 472 CURVE SMOOTH",
"229 472 OFFCURVE",
"237 480 OFFCURVE",
"237 496 CURVE SMOOTH"
);
},
{
closed = 1;
nodes = (
"527 223 OFFCURVE",
"519 231 OFFCURVE",
"502 231 CURVE SMOOTH",
"486 231 OFFCURVE",
"478 223 OFFCURVE",
"478 206 CURVE SMOOTH",
"478 190 OFFCURVE",
"486 182 OFFCURVE",
"502 182 CURVE SMOOTH",
"519 182 OFFCURVE",
"527 190 OFFCURVE",
"527 206 CURVE SMOOTH"
);
},
{
closed = 1;
nodes = (
"165 465 OFFCURVE",
"157 473 OFFCURVE",
"140 473 CURVE SMOOTH",
"124 473 OFFCURVE",
"116 464 OFFCURVE",
"116 447 CURVE SMOOTH",
"116 432 OFFCURVE",
"124 424 OFFCURVE",
"140 424 CURVE SMOOTH",
"157 424 OFFCURVE",
"165 432 OFFCURVE",
"165 448 CURVE SMOOTH"
);
},
{
closed = 1;
nodes = (
"479 150 OFFCURVE",
"471 158 OFFCURVE",
"455 158 CURVE SMOOTH",
"438 158 OFFCURVE",
"430 150 OFFCURVE",
"430 133 CURVE SMOOTH",
"430 117 OFFCURVE",
"438 109 OFFCURVE",
"455 109 CURVE SMOOTH",
"471 109 OFFCURVE",
"479 117 OFFCURVE",
"479 133 CURVE SMOOTH"
);
},
{
closed = 1;
nodes = (
"406 102 OFFCURVE",
"398 110 OFFCURVE",
"383 110 CURVE SMOOTH",
"366 110 OFFCURVE",
"357 102 OFFCURVE",
"357 85 CURVE SMOOTH",
"357 70 OFFCURVE",
"366 62 OFFCURVE",
"383 62 CURVE SMOOTH",
"398 62 OFFCURVE",
"406 70 OFFCURVE",
"406 85 CURVE SMOOTH"
);
},
{
closed = 1;
nodes = (
"116 392 OFFCURVE",
"108 400 OFFCURVE",
"92 400 CURVE SMOOTH",
"75 400 OFFCURVE",
"67 392 OFFCURVE",
"67 376 CURVE SMOOTH",
"67 359 OFFCURVE",
"76 351 OFFCURVE",
"93 351 CURVE SMOOTH",
"108 351 OFFCURVE",
"116 359 OFFCURVE",
"116 376 CURVE SMOOTH"
);
},
{
closed = 1;
nodes = (
"99 307 OFFCURVE",
"91 315 OFFCURVE",
"75 315 CURVE SMOOTH",
"58 315 OFFCURVE",
"50 307 OFFCURVE",
"50 291 CURVE SMOOTH",
"50 275 OFFCURVE",
"58 267 OFFCURVE",
"75 267 CURVE SMOOTH",
"91 267 OFFCURVE",
"99 275 OFFCURVE",
"99 291 CURVE SMOOTH"
);
},
{
closed = 1;
nodes = (
"321 85 OFFCURVE",
"313 93 OFFCURVE",
"297 93 CURVE SMOOTH",
"280 93 OFFCURVE",
"272 85 OFFCURVE",
"272 69 CURVE SMOOTH",
"272 52 OFFCURVE",
"280 44 OFFCURVE",
"297 44 CURVE SMOOTH",
"313 44 OFFCURVE",
"321 52 OFFCURVE",
"321 69 CURVE SMOOTH"
);
},
{
closed = 1;
nodes = (
"116 223 OFFCURVE",
"108 231 OFFCURVE",
"92 231 CURVE SMOOTH",
"75 231 OFFCURVE",
"67 223 OFFCURVE",
"67 206 CURVE SMOOTH",
"67 190 OFFCURVE",
"75 182 OFFCURVE",
"92 182 CURVE SMOOTH",
"108 182 OFFCURVE",
"116 190 OFFCURVE",
"116 206 CURVE SMOOTH"
);
},
{
closed = 1;
nodes = (
"237 102 OFFCURVE",
"229 110 OFFCURVE",
"212 110 CURVE SMOOTH",
"196 110 OFFCURVE",
"188 102 OFFCURVE",
"188 85 CURVE SMOOTH",
"188 70 OFFCURVE",
"196 62 OFFCURVE",
"212 62 CURVE SMOOTH",
"229 62 OFFCURVE",
"237 70 OFFCURVE",
"237 87 CURVE SMOOTH"
);
},
{
closed = 1;
nodes = (
"165 150 OFFCURVE",
"157 158 OFFCURVE",
"140 158 CURVE SMOOTH",
"124 158 OFFCURVE",
"116 150 OFFCURVE",
"116 133 CURVE SMOOTH",
"116 117 OFFCURVE",
"124 109 OFFCURVE",
"140 109 CURVE SMOOTH",
"157 109 OFFCURVE",
"165 117 OFFCURVE",
"165 133 CURVE SMOOTH"
);
}
);
width = 594;
},
{
anchors = (
{
name = bottom;
position = "{293, -78}";
},
{
name = top.far;
position = "{293, 615}";
},
{
name = top.near;
position = "{293, 615}";
}
);
layerId = "DCD2D043-4E01-4B5D-9248-443A06E88532";
paths = (
{
closed = 1;
nodes = (
"479 465 OFFCURVE",
"471 473 OFFCURVE",
"455 473 CURVE SMOOTH",
"438 473 OFFCURVE",
"430 465 OFFCURVE",
"430 448 CURVE SMOOTH",
"430 432 OFFCURVE",
"438 424 OFFCURVE",
"455 424 CURVE SMOOTH",
"471 424 OFFCURVE",
"479 432 OFFCURVE",
"479 448 CURVE SMOOTH"
);
},
{
closed = 1;
nodes = (
"406 513 OFFCURVE",
"398 521 OFFCURVE",
"383 521 CURVE SMOOTH",
"366 521 OFFCURVE",
"357 513 OFFCURVE",
"357 496 CURVE SMOOTH",
"357 480 OFFCURVE",
"366 472 OFFCURVE",
"383 472 CURVE SMOOTH",
"398 472 OFFCURVE",
"406 480 OFFCURVE",
"406 496 CURVE SMOOTH"
);
},
{
closed = 1;
nodes = (
"527 392 OFFCURVE",
"519 400 OFFCURVE",
"503 400 CURVE SMOOTH",
"486 400 OFFCURVE",
"478 392 OFFCURVE",
"478 376 CURVE SMOOTH",
"478 359 OFFCURVE",
"486 351 OFFCURVE",
"502 351 CURVE SMOOTH",
"519 351 OFFCURVE",
"527 359 OFFCURVE",
"527 376 CURVE SMOOTH"
);
},
{
closed = 1;
nodes = (
"544 307 OFFCURVE",
"536 315 OFFCURVE",
"521 315 CURVE SMOOTH",
"504 315 OFFCURVE",
"496 307 OFFCURVE",
"496 291 CURVE SMOOTH",
"496 275 OFFCURVE",
"504 267 OFFCURVE",
"521 267 CURVE SMOOTH",
"536 267 OFFCURVE",
"544 275 OFFCURVE",
"544 291 CURVE SMOOTH"
);
},
{
closed = 1;
nodes = (
"321 530 OFFCURVE",
"313 538 OFFCURVE",
"297 538 CURVE SMOOTH",
"280 538 OFFCURVE",
"272 530 OFFCURVE",
"272 514 CURVE SMOOTH",
"272 497 OFFCURVE",
"280 489 OFFCURVE",
"297 489 CURVE SMOOTH",
"313 489 OFFCURVE",
"321 497 OFFCURVE",
"321 514 CURVE SMOOTH"
);
},
{
closed = 1;
nodes = (
"237 513 OFFCURVE",
"229 521 OFFCURVE",
"212 521 CURVE SMOOTH",
"196 521 OFFCURVE",
"188 513 OFFCURVE",
"188 496 CURVE SMOOTH",
"188 480 OFFCURVE",
"196 472 OFFCURVE",
"212 472 CURVE SMOOTH",
"229 472 OFFCURVE",
"237 480 OFFCURVE",
"237 496 CURVE SMOOTH"
);
},
{
closed = 1;
nodes = (
"527 223 OFFCURVE",
"519 231 OFFCURVE",
"502 231 CURVE SMOOTH",
"486 231 OFFCURVE",
"478 223 OFFCURVE",
"478 206 CURVE SMOOTH",
"478 190 OFFCURVE",
"486 182 OFFCURVE",
"502 182 CURVE SMOOTH",
"519 182 OFFCURVE",
"527 190 OFFCURVE",
"527 206 CURVE SMOOTH"
);
},
{
closed = 1;
nodes = (
"165 465 OFFCURVE",
"157 473 OFFCURVE",
"140 473 CURVE SMOOTH",
"124 473 OFFCURVE",
"116 464 OFFCURVE",
"116 447 CURVE SMOOTH",
"116 432 OFFCURVE",
"124 424 OFFCURVE",
"140 424 CURVE SMOOTH",
"157 424 OFFCURVE",
"165 432 OFFCURVE",
"165 448 CURVE SMOOTH"
);
},
{
closed = 1;
nodes = (
"479 150 OFFCURVE",
"471 158 OFFCURVE",
"455 158 CURVE SMOOTH",
"438 158 OFFCURVE",
"430 150 OFFCURVE",
"430 133 CURVE SMOOTH",
"430 117 OFFCURVE",
"438 109 OFFCURVE",
"455 109 CURVE SMOOTH",
"471 109 OFFCURVE",
"479 117 OFFCURVE",
"479 133 CURVE SMOOTH"
);
},
{
closed = 1;
nodes = (
"406 102 OFFCURVE",
"398 110 OFFCURVE",
"383 110 CURVE SMOOTH",
"366 110 OFFCURVE",
"357 102 OFFCURVE",
"357 85 CURVE SMOOTH",
"357 70 OFFCURVE",
"366 62 OFFCURVE",
"383 62 CURVE SMOOTH",
"398 62 OFFCURVE",
"406 70 OFFCURVE",
"406 85 CURVE SMOOTH"
);
},
{
closed = 1;
nodes = (
"116 392 OFFCURVE",
"108 400 OFFCURVE",
"92 400 CURVE SMOOTH",
"75 400 OFFCURVE",
"67 392 OFFCURVE",
"67 376 CURVE SMOOTH",
"67 359 OFFCURVE",
"76 351 OFFCURVE",
"93 351 CURVE SMOOTH",
"108 351 OFFCURVE",
"116 359 OFFCURVE",
"116 376 CURVE SMOOTH"
);
},
{
closed = 1;
nodes = (
"99 307 OFFCURVE",
"91 315 OFFCURVE",
"75 315 CURVE SMOOTH",
"58 315 OFFCURVE",
"50 307 OFFCURVE",
"50 291 CURVE SMOOTH",
"50 275 OFFCURVE",
"58 267 OFFCURVE",
"75 267 CURVE SMOOTH",
"91 267 OFFCURVE",
"99 275 OFFCURVE",
"99 291 CURVE SMOOTH"
);
},
{
closed = 1;
nodes = (
"321 85 OFFCURVE",
"313 93 OFFCURVE",
"297 93 CURVE SMOOTH",
"280 93 OFFCURVE",
"272 85 OFFCURVE",
"272 69 CURVE SMOOTH",
"272 52 OFFCURVE",
"280 44 OFFCURVE",
"297 44 CURVE SMOOTH",
"313 44 OFFCURVE",
"321 52 OFFCURVE",
"321 69 CURVE SMOOTH"
);
},
{
closed = 1;
nodes = (
"116 223 OFFCURVE",
"108 231 OFFCURVE",
"92 231 CURVE SMOOTH",
"75 231 OFFCURVE",
"67 223 OFFCURVE",
"67 206 CURVE SMOOTH",
"67 190 OFFCURVE",
"75 182 OFFCURVE",
"92 182 CURVE SMOOTH",
"108 182 OFFCURVE",
"116 190 OFFCURVE",
"116 206 CURVE SMOOTH"
);
},
{
closed = 1;
nodes = (
"237 102 OFFCURVE",
"229 110 OFFCURVE",
"212 110 CURVE SMOOTH",
"196 110 OFFCURVE",
"188 102 OFFCURVE",
"188 85 CURVE SMOOTH",
"188 70 OFFCURVE",
"196 62 OFFCURVE",
"212 62 CURVE SMOOTH",
"229 62 OFFCURVE",
"237 70 OFFCURVE",
"237 87 CURVE SMOOTH"
);
},
{
closed = 1;
nodes = (
"165 150 OFFCURVE",
"157 158 OFFCURVE",
"140 158 CURVE SMOOTH",
"124 158 OFFCURVE",
"116 150 OFFCURVE",
"116 133 CURVE SMOOTH",
"116 117 OFFCURVE",
"124 109 OFFCURVE",
"140 109 CURVE SMOOTH",
"157 109 OFFCURVE",
"165 117 OFFCURVE",
"165 133 CURVE SMOOTH"
);
}
);
width = 594;
}
);
note = uni25CC;
unicode = 25CC;
}
{
glyphname = one;
layers = (
{
layerId = "DCD2D043-4E01-4B5D-9248-443A06E88532";
paths = (
{
closed = 1;
nodes = (
"460 714 LINE",
"286 714 LINE",
"41 514 LINE",
"141 391 LINE",
"222 458 LINE SMOOTH",
"236 470 OFFCURVE",
"250 484 OFFCURVE",
"267 504 CURVE",
"264 453 OFFCURVE",
"264 372 OFFCURVE",
"264 353 CURVE SMOOTH",
"264 0 LINE",
"460 0 LINE"
);
}
);
width = 586;
},
{
layerId = "15908E2C-AB74-4DC1-B0E7-8741EE8F4DA5";
paths = (
{
closed = 1;
nodes = (
"355 714 LINE",
"282 714 LINE",
"89 564 LINE",
"135 505 LINE",
"211 567 LINE SMOOTH",
"237 589 OFFCURVE",
"252 602 OFFCURVE",
"273 622 CURVE",
"270 584 OFFCURVE",
"269 556 OFFCURVE",
"269 499 CURVE SMOOTH",
"269 0 LINE",
"355 0 LINE"
);
}
);
width = 572;
},
{
layerId = "307C4A58-79B8-4138-817C-FBEE21722E1A";
paths = (
{
closed = 1;
nodes = (
"413 714 LINE",
"289 714 LINE",
"59 531 LINE",
"132 440 LINE",
"214 506 LINE SMOOTH",
"233 522 OFFCURVE",
"259 547 OFFCURVE",
"266 555 CURVE",
"264 512 OFFCURVE",
"262 447 OFFCURVE",
"262 413 CURVE",
"262 0 LINE",
"413 0 LINE"
);
}
);
width = 572;
},
{
layerId = "410295A1-92BC-4707-ABFC-13885E60878B";
paths = (
{
closed = 1;
nodes = (
"320 714 LINE",
"297 714 LINE",
"102 572 LINE",
"118 551 LINE",
"241 642 LINE SMOOTH",
"266 661 OFFCURVE",
"279 671 OFFCURVE",
"295 685 CURVE",
"294 658 OFFCURVE",
"294 620 OFFCURVE",
"294 563 CURVE SMOOTH",
"294 0 LINE",
"320 0 LINE"
);
}
);
width = 570;
}
);
unicode = 0031;
}
{
glyphname = two;
layers = (
{
layerId = "DCD2D043-4E01-4B5D-9248-443A06E88532";
paths = (
{
closed = 1;
nodes = (
"548 159 LINE",
"278 159 LINE",
"278 164 LINE",
"330 211 LINE SMOOTH",
"466 334 OFFCURVE",
"534 405 OFFCURVE",
"534 529 CURVE SMOOTH",
"534 641 OFFCURVE",
"441 724 OFFCURVE",
"296 724 CURVE SMOOTH",
"154 724 OFFCURVE",
"86 667 OFFCURVE",
"22 610 CURVE",
"128 486 LINE",
"186 536 OFFCURVE",
"229 562 OFFCURVE",
"274 562 CURVE SMOOTH",
"311 562 OFFCURVE",
"343 544 OFFCURVE",
"343 502 CURVE SMOOTH",
"343 450 OFFCURVE",
"314 415 OFFCURVE",
"204 303 CURVE SMOOTH",
"30 127 LINE",
"30 0 LINE",
"548 0 LINE"
);
}
);
width = 586;
},
{
layerId = "15908E2C-AB74-4DC1-B0E7-8741EE8F4DA5";
paths = (
{
closed = 1;
nodes = (
"520 80 LINE",
"159 80 LINE",
"159 84 LINE",
"308 231 LINE SMOOTH",
"418 339 OFFCURVE",
"491 422 OFFCURVE",
"491 534 CURVE SMOOTH",
"491 652 OFFCURVE",
"408 724 OFFCURVE",
"275 724 CURVE SMOOTH",
"184 724 OFFCURVE",
"112 687 OFFCURVE",
"56 640 CURVE",
"103 581 LINE",
"158 624 OFFCURVE",
"205 649 OFFCURVE",
"275 649 CURVE SMOOTH",
"350 649 OFFCURVE",
"401 607 OFFCURVE",
"401 529 CURVE SMOOTH",
"401 432 OFFCURVE",
"342 370 OFFCURVE",
"235 262 CURVE SMOOTH",
"48 73 LINE",
"48 0 LINE",
"520 0 LINE"
);
}
);
width = 572;
},
{
layerId = "307C4A58-79B8-4138-817C-FBEE21722E1A";
paths = (
{
closed = 1;
nodes = (
"539 127 LINE",
"228 127 LINE",
"228 134 LINE",
"320 220 LINE SMOOTH",
"446 337 OFFCURVE",
"519 412 OFFCURVE",
"519 531 CURVE SMOOTH",
"519 641 OFFCURVE",
"433 724 OFFCURVE",
"293 724 CURVE SMOOTH",
"165 724 OFFCURVE",
"99 675 OFFCURVE",
"38 622 CURVE",
"120 525 LINE",
"177 572 OFFCURVE",
"227 598 OFFCURVE",
"282 598 CURVE SMOOTH",
"335 598 OFFCURVE",
"369 570 OFFCURVE",
"369 513 CURVE SMOOTH",
"369 443 OFFCURVE",
"328 396 OFFCURVE",
"219 286 CURVE SMOOTH",
"40 105 LINE",
"40 0 LINE",
"539 0 LINE"
);
}
);
width = 572;
},
{
layerId = "410295A1-92BC-4707-ABFC-13885E60878B";
paths = (
{
closed = 1;
nodes = (
"491 25 LINE",
"97 25 LINE",
"97 28 LINE",
"303 246 LINE SMOOTH",
"400 348 OFFCURVE",
"458 419 OFFCURVE",
"458 539 CURVE SMOOTH",
"458 652 OFFCURVE",
"385 724 OFFCURVE",
"270 724 CURVE SMOOTH",
"208 724 OFFCURVE",
"141 705 OFFCURVE",
"80 655 CURVE",
"95 635 LINE",
"148 678 OFFCURVE",
"211 699 OFFCURVE",
"268 699 CURVE SMOOTH",
"370 699 OFFCURVE",
"431 639 OFFCURVE",
"431 539 CURVE SMOOTH",
"431 428 OFFCURVE",
"380 362 OFFCURVE",
"283 260 CURVE SMOOTH",
"59 23 LINE",
"59 0 LINE",
"491 0 LINE"
);
}
);
width = 570;
}
);
unicode = 0032;
}
{
glyphname = four;
layers = (
{
layerId = "DCD2D043-4E01-4B5D-9248-443A06E88532";
paths = (
{
closed = 1;
nodes = (
"571 282 LINE",
"492 282 LINE",
"492 714 LINE",
"314 714 LINE",
"17 280 LINE",
"17 138 LINE",
"302 138 LINE",
"302 0 LINE",
"492 0 LINE",
"492 138 LINE",
"571 138 LINE"
);
},
{
closed = 1;
nodes = (
"184 282 LINE",
"263 400 LINE SMOOTH",
"280 426 OFFCURVE",
"288 441 OFFCURVE",
"301 470 CURVE",
"306 470 LINE",
"305 468 OFFCURVE",
"302 395 OFFCURVE",
"302 365 CURVE SMOOTH",
"302 282 LINE"
);
}
);
width = 586;
},
{
layerId = "15908E2C-AB74-4DC1-B0E7-8741EE8F4DA5";
paths = (
{
closed = 1;
nodes = (
"552 241 LINE",
"448 241 LINE",
"448 718 LINE",
"357 718 LINE",
"21 237 LINE",
"21 162 LINE",
"363 162 LINE",
"363 0 LINE",
"448 0 LINE",
"448 162 LINE",
"552 162 LINE"
);
},
{
closed = 1;
nodes = (
"107 241 LINE",
"321 546 LINE SMOOTH",
"335 566 OFFCURVE",
"353 599 OFFCURVE",
"364 624 CURVE",
"368 624 LINE",
"366 589 OFFCURVE",
"363 535 OFFCURVE",
"363 466 CURVE SMOOTH",
"363 241 LINE"
);
}
);
width = 572;
},
{
layerId = "307C4A58-79B8-4138-817C-FBEE21722E1A";
paths = (
{
closed = 1;
nodes = (
"555 265 LINE",
"469 265 LINE",
"469 714 LINE",
"330 714 LINE",
"17 253 LINE",
"17 148 LINE",
"322 148 LINE",
"322 0 LINE",
"469 0 LINE",
"469 148 LINE",
"555 148 LINE"
);
},
{
closed = 1;
nodes = (
"150 265 LINE",
"281 463 LINE SMOOTH",
"299 490 OFFCURVE",
"312 514 OFFCURVE",
"324 541 CURVE",
"328 541 LINE",
"326 522 OFFCURVE",
"322 432 OFFCURVE",
"322 386 CURVE SMOOTH",
"322 265 LINE"
);
}
);
width = 572;
},
{
layerId = "410295A1-92BC-4707-ABFC-13885E60878B";
paths = (
{
closed = 1;
nodes = (
"560 219 LINE",
"426 219 LINE",
"426 718 LINE",
"398 718 LINE",
"25 212 LINE",
"25 194 LINE",
"400 194 LINE",
"400 0 LINE",
"426 0 LINE",
"426 194 LINE",
"560 194 LINE"
);
},
{
closed = 1;
nodes = (
"61 219 LINE",
"335 592 LINE SMOOTH",
"365 633 OFFCURVE",
"376 650 OFFCURVE",
"399 686 CURVE",
"401 686 LINE",
"400 655 OFFCURVE",
"400 610 OFFCURVE",
"400 524 CURVE SMOOTH",
"400 219 LINE"
);
}
);
width = 570;
}
);
unicode = 0034;
}
{
glyphname = five;
layers = (
{
layerId = "DCD2D043-4E01-4B5D-9248-443A06E88532";
paths = (
{
closed = 1;
nodes = (
"277 468 OFFCURVE",
"261 465 OFFCURVE",
"240 459 CURVE",
"249 553 LINE",
"492 553 LINE",
"492 714 LINE",
"85 714 LINE",
"58 337 LINE",
"129 302 LINE",
"155 310 OFFCURVE",
"191 319 OFFCURVE",
"227 319 CURVE SMOOTH",
"306 319 OFFCURVE",
"345 286 OFFCURVE",
"345 232 CURVE SMOOTH",
"345 173 OFFCURVE",
"305 142 OFFCURVE",
"234 142 CURVE SMOOTH",
"175 142 OFFCURVE",
"96 164 OFFCURVE",
"46 187 CURVE",
"46 29 LINE",
"99 3 OFFCURVE",
"167 -10 OFFCURVE",
"250 -10 CURVE SMOOTH",
"445 -10 OFFCURVE",
"540 78 OFFCURVE",
"540 238 CURVE SMOOTH",
"540 385 OFFCURVE",
"443 468 OFFCURVE",
"324 468 CURVE SMOOTH"
);
}
);
width = 586;
},
{
layerId = "15908E2C-AB74-4DC1-B0E7-8741EE8F4DA5";
paths = (
{
closed = 1;
nodes = (
"228 438 OFFCURVE",
"188 432 OFFCURVE",
"165 427 CURVE",
"182 634 LINE",
"465 634 LINE",
"465 714 LINE",
"107 714 LINE",
"80 377 LINE",
"124 349 LINE",
"153 356 OFFCURVE",
"208 364 OFFCURVE",
"246 364 CURVE SMOOTH",
"370 364 OFFCURVE",
"425 312 OFFCURVE",
"425 219 CURVE SMOOTH",
"425 114 OFFCURVE",
"354 65 OFFCURVE",
"249 65 CURVE SMOOTH",
"186 65 OFFCURVE",
"111 83 OFFCURVE",
"63 112 CURVE",
"63 29 LINE",
"107 3 OFFCURVE",
"174 -10 OFFCURVE",
"248 -10 CURVE SMOOTH",
"416 -10 OFFCURVE",
"515 80 OFFCURVE",
"515 228 CURVE SMOOTH",
"515 361 OFFCURVE",
"421 438 OFFCURVE",
"275 438 CURVE SMOOTH"
);
}
);
width = 572;
},
{
layerId = "307C4A58-79B8-4138-817C-FBEE21722E1A";
paths = (
{
closed = 1;
nodes = (
"253 456 OFFCURVE",
"231 451 OFFCURVE",
"209 446 CURVE",
"222 586 LINE",
"477 586 LINE",
"477 714 LINE",
"90 714 LINE",
"63 350 LINE",
"123 318 LINE",
"150 325 OFFCURVE",
"194 334 OFFCURVE",
"231 334 CURVE SMOOTH",
"328 334 OFFCURVE",
"374 296 OFFCURVE",
"374 226 CURVE SMOOTH",
"374 148 OFFCURVE",
"325 113 OFFCURVE",
"236 113 CURVE SMOOTH",
"175 113 OFFCURVE",
"98 133 OFFCURVE",
"49 159 CURVE",
"49 29 LINE",
"98 3 OFFCURVE",
"166 -10 OFFCURVE",
"241 -10 CURVE SMOOTH",
"429 -10 OFFCURVE",
"526 84 OFFCURVE",
"526 239 CURVE SMOOTH",
"526 380 OFFCURVE",
"430 456 OFFCURVE",
"300 456 CURVE SMOOTH"
);
}
);
width = 572;
},
{
layerId = "410295A1-92BC-4707-ABFC-13885E60878B";
paths = (
{
closed = 1;
nodes = (
"206 426 OFFCURVE",
"159 416 OFFCURVE",
"126 408 CURVE",
"151 689 LINE",
"462 689 LINE",
"462 714 LINE",
"128 714 LINE",
"98 393 LINE",
"117 378 LINE",
"166 392 OFFCURVE",
"212 401 OFFCURVE",
"274 401 CURVE SMOOTH",
"408 401 OFFCURVE",
"478 331 OFFCURVE",
"478 217 CURVE SMOOTH",
"478 90 OFFCURVE",
"389 15 OFFCURVE",
"253 15 CURVE SMOOTH",
"180 15 OFFCURVE",
"119 35 OFFCURVE",
"74 62 CURVE",
"74 32 LINE",
"116 8 OFFCURVE",
"174 -10 OFFCURVE",
"253 -10 CURVE SMOOTH",
"406 -10 OFFCURVE",
"505 76 OFFCURVE",
"505 217 CURVE SMOOTH",
"505 354 OFFCURVE",
"420 426 OFFCURVE",
"274 426 CURVE SMOOTH"
);
}
);
width = 570;
}
);
unicode = 0035;
}
{
glyphname = seven;
layers = (
{
layerId = "DCD2D043-4E01-4B5D-9248-443A06E88532";
paths = (
{
closed = 1;
nodes = (
"302 0 LINE",
"553 600 LINE",
"553 714 LINE",
"38 714 LINE",
"38 554 LINE",
"347 554 LINE",
"102 0 LINE"
);
}
);
width = 586;
},
{
layerId = "15908E2C-AB74-4DC1-B0E7-8741EE8F4DA5";
paths = (
{
closed = 1;
nodes = (
"233 0 LINE",
"523 646 LINE",
"523 714 LINE",
"44 714 LINE",
"44 634 LINE",
"429 634 LINE",
"136 0 LINE"
);
}
);
width = 572;
},
{
layerId = "307C4A58-79B8-4138-817C-FBEE21722E1A";
paths = (
{
closed = 1;
nodes = (
"269 0 LINE",
"539 619 LINE",
"539 714 LINE",
"27 714 LINE",
"27 587 LINE",
"379 587 LINE",
"111 0 LINE"
);
}
);
width = 572;
},
{
layerId = "410295A1-92BC-4707-ABFC-13885E60878B";
paths = (
{
closed = 1;
nodes = (
"212 0 LINE",
"510 697 LINE",
"510 714 LINE",
"58 714 LINE",
"58 689 LINE",
"478 689 LINE",
"183 0 LINE"
);
}
);
width = 570;
}
);
unicode = 0037;
}
{
glyphname = nine;
layers = (
{
layerId = "DCD2D043-4E01-4B5D-9248-443A06E88532";
paths = (
{
closed = 1;
nodes = (
"553 624 OFFCURVE",
"432 721 OFFCURVE",
"279 721 CURVE SMOOTH",
"122 721 OFFCURVE",
"26 627 OFFCURVE",
"26 468 CURVE SMOOTH",
"26 319 OFFCURVE",
"103 235 OFFCURVE",
"223 235 CURVE SMOOTH",
"318 235 OFFCURVE",
"347 270 OFFCURVE",
"373 318 CURVE",
"379 318 LINE",
"374 226 OFFCURVE",
"331 140 OFFCURVE",
"158 140 CURVE SMOOTH",
"128 140 OFFCURVE",
"102 143 OFFCURVE",
"74 148 CURVE",
"74 -5 LINE",
"101 -9 OFFCURVE",
"145 -10 OFFCURVE",
"174 -10 CURVE SMOOTH",
"452 -10 OFFCURVE",
"553 122 OFFCURVE",
"553 387 CURVE SMOOTH"
);
},
{
closed = 1;
nodes = (
"333 567 OFFCURVE",
"361 512 OFFCURVE",
"361 461 CURVE SMOOTH",
"361 423 OFFCURVE",
"329 383 OFFCURVE",
"282 383 CURVE SMOOTH",
"236 383 OFFCURVE",
"213 417 OFFCURVE",
"213 470 CURVE SMOOTH",
"213 538 OFFCURVE",
"242 567 OFFCURVE",
"284 567 CURVE SMOOTH"
);
}
);
width = 586;
},
{
layerId = "15908E2C-AB74-4DC1-B0E7-8741EE8F4DA5";
paths = (
{
closed = 1;
nodes = (
"520 622 OFFCURVE",
"414 724 OFFCURVE",
"278 724 CURVE SMOOTH",
"140 724 OFFCURVE",
"50 632 OFFCURVE",
"50 483 CURVE SMOOTH",
"50 345 OFFCURVE",
"132 267 OFFCURVE",
"255 267 CURVE SMOOTH",
"342 267 OFFCURVE",
"395 304 OFFCURVE",
"425 350 CURVE",
"431 350 LINE",
"425 194 OFFCURVE",
"376 62 OFFCURVE",
"190 62 CURVE SMOOTH",
"160 62 OFFCURVE",
"126 67 OFFCURVE",
"102 75 CURVE",
"102 0 LINE",
"124 -7 OFFCURVE",
"165 -10 OFFCURVE",
"192 -10 CURVE SMOOTH",
"462 -10 OFFCURVE",
"520 204 OFFCURVE",
"520 409 CURVE SMOOTH"
);
},
{
closed = 1;
nodes = (
"380 650 OFFCURVE",
"431 553 OFFCURVE",
"431 467 CURVE SMOOTH",
"431 403 OFFCURVE",
"370 337 OFFCURVE",
"274 337 CURVE SMOOTH",
"181 337 OFFCURVE",
"137 393 OFFCURVE",
"137 484 CURVE SMOOTH",
"137 596 OFFCURVE",
"195 650 OFFCURVE",
"278 650 CURVE SMOOTH"
);
}
);
width = 572;
},
{
layerId = "307C4A58-79B8-4138-817C-FBEE21722E1A";
paths = (
{
closed = 1;
nodes = (
"536 623 OFFCURVE",
"421 722 OFFCURVE",
"275 722 CURVE SMOOTH",
"126 722 OFFCURVE",
"32 629 OFFCURVE",
"32 474 CURVE SMOOTH",
"32 330 OFFCURVE",
"111 248 OFFCURVE",
"233 248 CURVE SMOOTH",
"324 248 OFFCURVE",
"363 284 OFFCURVE",
"391 331 CURVE",
"397 331 LINE",
"391 199 OFFCURVE",
"346 108 OFFCURVE",
"168 108 CURVE SMOOTH",
"138 108 OFFCURVE",
"108 112 OFFCURVE",
"82 118 CURVE",
"82 -3 LINE",
"107 -8 OFFCURVE",
"150 -10 OFFCURVE",
"178 -10 CURVE SMOOTH",
"475 -10 OFFCURVE",
"536 204 OFFCURVE",
"536 409 CURVE SMOOTH"
);
},
{
closed = 1;
nodes = (
"349 601 OFFCURVE",
"386 529 OFFCURVE",
"386 463 CURVE SMOOTH",
"386 415 OFFCURVE",
"342 364 OFFCURVE",
"275 364 CURVE SMOOTH",
"210 364 OFFCURVE",
"178 407 OFFCURVE",
"178 476 CURVE SMOOTH",
"178 562 OFFCURVE",
"219 601 OFFCURVE",
"278 601 CURVE SMOOTH"
);
}
);
width = 572;
},
{
layerId = "410295A1-92BC-4707-ABFC-13885E60878B";
paths = (
{
closed = 1;
nodes = (
"500 569 OFFCURVE",
"441 726 OFFCURVE",
"269 726 CURVE SMOOTH",
"133 726 OFFCURVE",
"55 630 OFFCURVE",
"55 491 CURVE SMOOTH",
"55 361 OFFCURVE",
"130 277 OFFCURVE",
"262 277 CURVE SMOOTH",
"377 277 OFFCURVE",
"447 338 OFFCURVE",
"473 394 CURVE",
"475 394 LINE",
"469 112 OFFCURVE",
"350 15 OFFCURVE",
"201 15 CURVE SMOOTH",
"159 15 OFFCURVE",
"117 22 OFFCURVE",
"93 31 CURVE",
"93 3 LINE",
"120 -5 OFFCURVE",
"159 -10 OFFCURVE",
"201 -10 CURVE SMOOTH",
"372 -10 OFFCURVE",
"500 108 OFFCURVE",
"500 413 CURVE SMOOTH"
);
},
{
closed = 1;
nodes = (
"431 701 OFFCURVE",
"468 537 OFFCURVE",
"468 458 CURVE SMOOTH",
"468 391 OFFCURVE",
"390 299 OFFCURVE",
"264 302 CURVE SMOOTH",
"142 305 OFFCURVE",
"82 374 OFFCURVE",
"82 491 CURVE SMOOTH",
"82 621 OFFCURVE",
"148 701 OFFCURVE",
"269 701 CURVE SMOOTH"
);
}
);
width = 570;
}
);
unicode = 0039;
}
{
glyphname = zero;
layers = (
{
layerId = "DCD2D043-4E01-4B5D-9248-443A06E88532";
shapes = (
{
closed = 1;
nodes = (
(551,588,o),
(471,724,o),
(293,724,cs),
(102,724,o),
(35,587,o),
(35,356,cs),
(35,127,o),
(114,-10,o),
(293,-10,cs),
(484,-10,o),
(551,127,o),
(551,356,cs)
);
},
{
closed = 1;
nodes = (
(227,497,o),
(239,570,o),
(293,570,cs),
(346,570,o),
(359,497,o),
(359,356,cs),
(359,215,o),
(346,144,o),
(293,144,cs),
(239,144,o),
(227,216,o),
(227,356,cs)
);
}
);
width = 586;
},
{
layerId = "15908E2C-AB74-4DC1-B0E7-8741EE8F4DA5";
shapes = (
{
closed = 1;
nodes = (
(523,590,o),
(445,725,o),
(285,725,cs),
(114,725,o),
(49,589,o),
(49,358,cs),
(49,127,o),
(124,-10,o),
(285,-10,cs),
(456,-10,o),
(523,127,o),
(523,358,cs)
);
},
{
closed = 1;
nodes = (
(137,553,o),
(177,650,o),
(285,650,cs),
(392,650,o),
(434,553,o),
(434,358,cs),
(434,161,o),
(392,65,o),
(285,65,cs),
(177,65,o),
(137,162,o),
(137,358,cs)
);
}
);
width = 572;
},
{
layerId = "307C4A58-79B8-4138-817C-FBEE21722E1A";
shapes = (
{
closed = 1;
nodes = (
(535,589,o),
(456,725,o),
(285,725,cs),
(102,725,o),
(36,588,o),
(36,357,cs),
(36,127,o),
(113,-10,o),
(285,-10,cs),
(468,-10,o),
(535,127,o),
(535,357,cs)
);
},
{
closed = 1;
nodes = (
(186,520,o),
(209,603,o),
(285,603,cs),
(360,603,o),
(385,520,o),
(385,357,cs),
(385,193,o),
(360,112,o),
(285,112,cs),
(209,112,o),
(186,194,o),
(186,357,cs)
);
}
);
width = 572;
},
{
layerId = "410295A1-92BC-4707-ABFC-13885E60878B";
shapes = (
{
closed = 1;
nodes = (
(507,577,o),
(459,725,o),
(286,725,cs),
(118,725,o),
(62,571,o),
(62,360,cs),
(62,106,o),
(141,-10,o),
(285,-10,cs),
(436,-10,o),
(507,112,o),
(507,360,cs)
);
},
{
closed = 1;
nodes = (
(89,557,o),
(136,700,o),
(286,700,cs),
(440,700,o),
(480,564,o),
(480,360,cs),
(480,127,o),
(422,15,o),
(285,15,cs),
(155,15,o),
(89,125,o),
(89,360,cs)
);
}
);
width = 570;
}
);
unicode = 48;
}
{
glyphname = three;
layers = (
{
layerId = "DCD2D043-4E01-4B5D-9248-443A06E88532";
shapes = (
{
closed = 1;
nodes = (
(524,662,o),
(434,724,o),
(287,724,cs),
(163,724,o),
(94,692,o),
(35,652,c),
(115,523,l),
(136,536,o),
(192,569,o),
(257,569,cs),
(305,569,o),
(337,551,o),
(337,513,cs),
(337,469,o),
(299,438,o),
(190,438,cs),
(145,438,l),
(145,293,l),
(189,293,ls),
(312,293,o),
(341,264,o),
(341,216,cs),
(341,171,o),
(313,142,o),
(219,142,cs),
(165,142,o),
(96,157,o),
(34,189,c),
(34,29,l),
(95,5,o),
(155,-10,o),
(247,-10,cs),
(454,-10,o),
(545,87,o),
(545,204,cs),
(545,305,o),
(480,359,o),
(366,373,c),
(366,376,l),
(451,399,o),
(524,457,o),
(524,559,cs)
);
}
);
width = 586;
},
{
layerId = "15908E2C-AB74-4DC1-B0E7-8741EE8F4DA5";
shapes = (
{
closed = 1;
nodes = (
(493,649,o),
(421,724,o),
(272,724,cs),
(176,724,o),
(100,690,o),
(49,650,c),
(93,590,l),
(146,625,o),
(196,650,o),
(273,650,cs),
(353,650,o),
(403,610,o),
(403,541,cs),
(403,460,o),
(341,406,o),
(224,406,cs),
(154,406,l),
(154,331,l),
(223,331,ls),
(349,331,o),
(423,294,o),
(423,205,cs),
(423,117,o),
(370,64,o),
(242,64,cs),
(178,64,o),
(105,81,o),
(45,111,c),
(45,29,l),
(104,0,o),
(166,-10,o),
(241,-10,cs),
(430,-10,o),
(515,78,o),
(515,203,cs),
(515,297,o),
(459,358,o),
(345,372,c),
(345,376,l),
(435,394,o),
(493,451,o),
(493,547,cs)
);
}
);
width = 572;
},
{
layerId = "307C4A58-79B8-4138-817C-FBEE21722E1A";
shapes = (
{
closed = 1;
nodes = (
(511,662,o),
(419,724,o),
(272,724,cs),
(168,724,o),
(95,694,o),
(39,654,c),
(109,550,l),
(143,572,o),
(193,602,o),
(261,602,cs),
(334,602,o),
(363,572,o),
(363,521,cs),
(363,465,o),
(335,425,o),
(203,425,cs),
(148,425,l),
(148,309,l),
(202,309,ls),
(336,309,o),
(374,276,o),
(374,217,cs),
(374,149,o),
(336,110,o),
(228,110,cs),
(170,110,o),
(99,126,o),
(38,157,c),
(38,29,l),
(98,3,o),
(165,-10,o),
(244,-10,cs),
(444,-10,o),
(532,83,o),
(532,208,cs),
(532,302,o),
(471,359,o),
(357,373,c),
(357,376,l),
(444,397,o),
(511,455,o),
(511,554,cs)
);
}
);
width = 572;
},
{
layerId = "410295A1-92BC-4707-ABFC-13885E60878B";
shapes = (
{
closed = 1;
nodes = (
(470,665,o),
(393,724,o),
(273,724,cs),
(185,724,o),
(114,695,o),
(55,650,c),
(69,629,l),
(134,676,o),
(198,699,o),
(273,699,cs),
(375,699,o),
(443,651,o),
(443,551,cs),
(443,435,o),
(345,384,o),
(239,384,cs),
(156,384,l),
(156,359,l),
(239,359,ls),
(372,359,o),
(465,314,o),
(465,194,cs),
(465,85,o),
(391,15,o),
(247,15,cs),
(173,15,o),
(97,35,o),
(47,60,c),
(47,32,l),
(98,8,o),
(165,-10,o),
(247,-10,cs),
(407,-10,o),
(492,72,o),
(492,194,cs),
(492,300,o),
(429,358,o),
(318,373,c),
(318,375,l),
(405,390,o),
(470,457,o),
(470,551,cs)
);
}
);
width = 570;
}
);
unicode = 51;
}
{
glyphname = six;
layers = (
{
layerId = "DCD2D043-4E01-4B5D-9248-443A06E88532";
shapes = (
{
closed = 1;
nodes = (
(34,88,o),
(150,-10,o),
(303,-10,cs),
(459,-10,o),
(555,84,o),
(555,244,cs),
(555,392,o),
(480,476,o),
(355,476,cs),
(279,476,o),
(239,440,o),
(214,393,c),
(208,393,l),
(214,506,o),
(259,574,o),
(404,574,cs),
(452,574,o),
(483,570,o),
(510,565,c),
(510,716,l),
(483,720,o),
(436,724,o),
(408,724,cs),
(92,724,o),
(34,507,o),
(34,302,cs)
);
},
{
closed = 1;
nodes = (
(248,143,o),
(226,199,o),
(226,250,cs),
(226,288,o),
(253,327,o),
(301,327,cs),
(348,327,o),
(368,294,o),
(368,240,cs),
(368,173,o),
(340,143,o),
(299,143,cs)
);
}
);
width = 586;
},
{
layerId = "15908E2C-AB74-4DC1-B0E7-8741EE8F4DA5";
shapes = (
{
closed = 1;
nodes = (
(55,91,o),
(162,-10,o),
(298,-10,cs),
(437,-10,o),
(525,81,o),
(525,230,cs),
(525,368,o),
(442,447,o),
(318,447,cs),
(232,447,o),
(179,410,o),
(149,363,c),
(143,363,l),
(150,519,o),
(199,652,o),
(384,652,cs),
(414,652,o),
(446,648,o),
(470,640,c),
(470,715,l),
(448,721,o),
(410,724,o),
(382,724,cs),
(113,724,o),
(55,510,o),
(55,305,cs)
);
},
{
closed = 1;
nodes = (
(196,64,o),
(144,160,o),
(144,247,cs),
(144,310,o),
(206,378,o),
(300,378,cs),
(392,378,o),
(438,321,o),
(438,230,cs),
(438,117,o),
(381,64,o),
(297,64,cs)
);
}
);
width = 572;
},
{
layerId = "307C4A58-79B8-4138-817C-FBEE21722E1A";
shapes = (
{
closed = 1;
nodes = (
(35,89,o),
(150,-10,o),
(296,-10,cs),
(445,-10,o),
(539,83,o),
(539,238,cs),
(539,382,o),
(460,464,o),
(335,464,cs),
(255,464,o),
(207,428,o),
(180,381,c),
(174,381,l),
(180,513,o),
(225,604,o),
(403,604,cs),
(432,604,o),
(463,600,o),
(489,594,c),
(489,715,l),
(464,720,o),
(421,722,o),
(393,722,cs),
(96,722,o),
(35,508,o),
(35,303,cs)
);
},
{
closed = 1;
nodes = (
(222,111,o),
(185,183,o),
(185,249,cs),
(185,297,o),
(229,348,o),
(296,348,cs),
(361,348,o),
(393,305,o),
(393,236,cs),
(393,150,o),
(352,111,o),
(293,111,cs)
);
}
);
width = 572;
},
{
layerId = "410295A1-92BC-4707-ABFC-13885E60878B";
shapes = (
{
closed = 1;
nodes = (
(68,147,o),
(127,-10,o),
(299,-10,cs),
(435,-10,o),
(513,86,o),
(513,225,cs),
(513,355,o),
(438,439,o),
(306,439,cs),
(191,439,o),
(121,378,o),
(95,322,c),
(93,322,l),
(99,604,o),
(218,701,o),
(367,701,cs),
(407,701,o),
(441,695,o),
(465,686,c),
(465,713,l),
(438,721,o),
(407,726,o),
(367,726,cs),
(196,726,o),
(68,608,o),
(68,303,cs)
);
},
{
closed = 1;
nodes = (
(137,15,o),
(100,179,o),
(100,258,cs),
(100,325,o),
(178,417,o),
(304,414,cs),
(426,411,o),
(486,342,o),
(486,225,cs),
(486,95,o),
(420,15,o),
(299,15,cs)
);
}
);
width = 570;
}
);
unicode = 54;
}
{
glyphname = eight;
layers = (
{
layerId = "DCD2D043-4E01-4B5D-9248-443A06E88532";
shapes = (
{
closed = 1;
nodes = (
(154,724,o),
(54,666,o),
(54,551,cs),
(54,468,o),
(103,413,o),
(163,373,c),
(88,335,o),
(33,287,o),
(33,188,cs),
(33,71,o),
(112,-10,o),
(293,-10,cs),
(473,-10,o),
(554,75,o),
(554,190,cs),
(554,284,o),
(477,338,o),
(410,376,c),
(482,411,o),
(533,464,o),
(533,550,cs),
(533,667,o),
(436,724,o),
(295,724,cs)
);
},
{
closed = 1;
nodes = (
(210,239,o),
(247,268,o),
(291,291,c),
(304,283,ls),
(329,268,o),
(377,236,o),
(377,192,cs),
(377,153,o),
(350,129,o),
(291,129,cs),
(240,129,o),
(210,156,o),
(210,196,cs)
);
},
{
closed = 1;
nodes = (
(325,585,o),
(352,565,o),
(352,533,cs),
(352,495,o),
(320,475,o),
(292,459,c),
(260,477,o),
(235,502,o),
(235,533,cs),
(235,565,o),
(262,585,o),
(294,585,cs)
);
}
);
width = 586;
},
{
layerId = "15908E2C-AB74-4DC1-B0E7-8741EE8F4DA5";
shapes = (
{
closed = 1;
nodes = (
(163,724,o),
(72,663,o),
(72,554,cs),
(72,466,o),
(127,413,o),
(197,373,c),
(118,337,o),
(49,279,o),
(49,182,cs),
(49,61,o),
(134,-10,o),
(288,-10,cs),
(430,-10,o),
(522,65,o),
(522,185,cs),
(522,282,o),
(451,335,o),
(363,378,c),
(437,416,o),
(499,467,o),
(499,553,cs),
(499,664,o),
(410,724,o),
(285,724,cs)
);
},
{
closed = 1;
nodes = (
(135,254,o),
(182,299,o),
(270,337,c),
(286,331,ls),
(377,296,o),
(436,253,o),
(436,184,cs),
(436,111,o),
(383,60,o),
(286,60,cs),
(183,60,o),
(135,112,o),
(135,181,cs)
);
},
{
closed = 1;
nodes = (
(361,653,o),
(412,616,o),
(412,550,cs),
(412,478,o),
(358,441,o),
(289,412,c),
(216,443,o),
(158,476,o),
(158,550,cs),
(158,616,o),
(210,653,o),
(284,653,cs)
);
}
);
width = 572;
},
{
layerId = "307C4A58-79B8-4138-817C-FBEE21722E1A";
shapes = (
{
closed = 1;
nodes = (
(165,723,o),
(57,665,o),
(57,552,cs),
(57,467,o),
(108,413,o),
(172,373,c),
(96,336,o),
(35,279,o),
(35,181,cs),
(35,62,o),
(126,-10,o),
(286,-10,cs),
(434,-10,o),
(536,66,o),
(536,185,cs),
(536,280,o),
(462,337,o),
(386,377,c),
(459,413,o),
(514,465,o),
(514,551,cs),
(514,666,o),
(409,723,o),
(286,723,cs)
);
},
{
closed = 1;
nodes = (
(175,245,o),
(217,282,o),
(279,311,c),
(292,304,ls),
(341,276,o),
(396,243,o),
(396,189,cs),
(396,136,o),
(359,101,o),
(284,101,cs),
(212,101,o),
(175,138,o),
(175,190,cs)
);
},
{
closed = 1;
nodes = (
(335,613,o),
(372,586,o),
(372,540,cs),
(372,488,o),
(331,461,o),
(286,440,c),
(239,463,o),
(199,491,o),
(199,540,cs),
(199,586,o),
(236,613,o),
(285,613,cs)
);
}
);
width = 572;
},
{
layerId = "410295A1-92BC-4707-ABFC-13885E60878B";
shapes = (
{
closed = 1;
nodes = (
(168,724,o),
(87,659,o),
(87,559,cs),
(87,460,o),
(161,415,o),
(251,381,c),
(138,340,o),
(64,284,o),
(64,175,cs),
(64,62,o),
(150,-10,o),
(279,-10,cs),
(404,-10,o),
(503,59,o),
(503,181,cs),
(503,284,o),
(432,342,o),
(314,382,c),
(415,422,o),
(479,473,o),
(479,561,cs),
(479,666,o),
(406,724,o),
(283,724,cs)
);
},
{
closed = 1;
nodes = (
(91,282,o),
(175,333,o),
(281,368,c),
(309,358,ls),
(418,319,o),
(476,268,o),
(476,181,cs),
(476,72,o),
(393,15,o),
(279,15,cs),
(167,15,o),
(91,76,o),
(91,175,cs)
);
},
{
closed = 1;
nodes = (
(389,699,o),
(452,653,o),
(452,561,cs),
(452,479,o),
(381,433,o),
(286,394,c),
(182,430,o),
(114,474,o),
(114,559,cs),
(114,649,o),
(185,699,o),
(283,699,cs)
);
}
);
width = 570;
}
);
unicode = 56;
}
{
glyphname = "damma-ar";
layers = (
{
anchors = (
{
name = _top.far;
position = "{0, 761}";
},
{
name = top.far;
position = "{0, 1039}";
},
{
name = top.near;
position = "{0, 1039}";
}
);
layerId = "307C4A58-79B8-4138-817C-FBEE21722E1A";
paths = (
{
closed = 1;
nodes = (
"28 780 OFFCURVE",
"90 809 OFFCURVE",
"126 857 CURVE SMOOTH",
"144 880 OFFCURVE",
"153 904 OFFCURVE",
"153 928 CURVE SMOOTH",
"153 976 OFFCURVE",
"117 1010 OFFCURVE",
"64 1010 CURVE SMOOTH",
"9 1010 OFFCURVE",
"-29 976 OFFCURVE",
"-29 924 CURVE SMOOTH",
"-29 898 OFFCURVE",
"-20 871 OFFCURVE",
"-1 843 CURVE",
"-12 840 OFFCURVE",
"-26 838 OFFCURVE",
"-42 838 CURVE SMOOTH",
"-61 838 OFFCURVE",
"-85 847 OFFCURVE",
"-113 865 CURVE",
"-147 816 LINE",
"-114 792 OFFCURVE",
"-78 780 OFFCURVE",
"-40 780 CURVE SMOOTH"
);
},
{
closed = 1;
nodes = (
"37 884 OFFCURVE",
"30 903 OFFCURVE",
"30 919 CURVE SMOOTH",
"30 942 OFFCURVE",
"45 953 OFFCURVE",
"62 953 CURVE SMOOTH",
"79 953 OFFCURVE",
"92 941 OFFCURVE",
"92 924 CURVE SMOOTH",
"92 904 OFFCURVE",
"80 879 OFFCURVE",
"52 863 CURVE"
);
}
);
userData = {
assembly = "NPUSHB[ ]	/* 16 values pushed */
19 7 0 25 12 5 96 0 1 63 0 1 32 0 1 0 
SVTCA[0]	/* SetFreedomAndProjectionVectorToAxis */
MDAP[1]	/* MoveDirectAbsPt */
DELTAP1[ ]	/* DeltaExceptionP1 */
DELTAP1[ ]	/* DeltaExceptionP1 */
DELTAP1[ ]	/* DeltaExceptionP1 */
MDRP[01101]	/* MoveDirectRelPt */
MDRP[11100]	/* MoveDirectRelPt */
MDRP[01101]	/* MoveDirectRelPt */
SRP2[ ]	/* SetRefPoint2 */
IP[ ]	/* InterpolatePts */
IP[ ]	/* InterpolatePts */
IUP[1]	/* InterpolateUntPts */
IUP[0]	/* InterpolateUntPts */";
};
width = 0;
},
{
anchors = (
{
name = _top.far;
position = "{0, 758}";
},
{
name = top.far;
position = "{0, 1025}";
},
{
name = top.near;
position = "{0, 1025}";
}
);
layerId = "15908E2C-AB74-4DC1-B0E7-8741EE8F4DA5";
paths = (
{
closed = 1;
nodes = (
"20 780 OFFCURVE",
"84 810 OFFCURVE",
"121 856 CURVE SMOOTH",
"139 878 OFFCURVE",
"147 902 OFFCURVE",
"147 926 CURVE SMOOTH",
"147 970 OFFCURVE",
"114 1005 OFFCURVE",
"61 1005 CURVE SMOOTH",
"8 1005 OFFCURVE",
"-29 973 OFFCURVE",
"-29 922 CURVE SMOOTH",
"-29 892 OFFCURVE",
"-18 864 OFFCURVE",
"3 837 CURVE",
"-11 832 OFFCURVE",
"-28 830 OFFCURVE",
"-47 830 CURVE SMOOTH",
"-70 830 OFFCURVE",
"-93 838 OFFCURVE",
"-118 855 CURVE",
"-147 813 LINE",
"-116 791 OFFCURVE",
"-82 780 OFFCURVE",
"-45 780 CURVE SMOOTH"
);
},
{
closed = 1;
nodes = (
"30 875 OFFCURVE",
"22 896 OFFCURVE",
"22 917 CURVE SMOOTH",
"22 944 OFFCURVE",
"39 957 OFFCURVE",
"59 957 CURVE SMOOTH",
"80 957 OFFCURVE",
"95 942 OFFCURVE",
"95 922 CURVE SMOOTH",
"95 899 OFFCURVE",
"82 873 OFFCURVE",
"47 854 CURVE"
);
}
);
userData = {
assembly = "NPUSHB[ ]	/* 19 values pushed */
19 7 0 25 112 12 1 47 12 1 12 5 63 0 1 32 0 1 0 
SVTCA[0]	/* SetFreedomAndProjectionVectorToAxis */
MDAP[1]	/* MoveDirectAbsPt */
DELTAP1[ ]	/* DeltaExceptionP1 */
DELTAP1[ ]	/* DeltaExceptionP1 */
MDRP[01101]	/* MoveDirectRelPt */
MDRP[11100]	/* MoveDirectRelPt */
DELTAP1[ ]	/* DeltaExceptionP1 */
DELTAP1[ ]	/* DeltaExceptionP1 */
MDRP[01101]	/* MoveDirectRelPt */
SRP2[ ]	/* SetRefPoint2 */
IP[ ]	/* InterpolatePts */
IP[ ]	/* InterpolatePts */
IUP[1]	/* InterpolateUntPts */
IUP[0]	/* InterpolateUntPts */";
};
width = 0;
},
{
anchors = (
{
name = _top.far;
position = "{3, 759}";
},
{
name = top.far;
position = "{4, 1021}";
},
{
name = top.near;
position = "{4, 1021}";
}
);
layerId = "410295A1-92BC-4707-ABFC-13885E60878B";
paths = (
{
closed = 1;
nodes = (
"18 786 OFFCURVE",
"68 806 OFFCURVE",
"105 850 CURVE SMOOTH",
"123 872 OFFCURVE",
"129 894 OFFCURVE",
"129 917 CURVE SMOOTH",
"129 955 OFFCURVE",
"103 993 OFFCURVE",
"54 993 CURVE SMOOTH",
"5 993 OFFCURVE",
"-26 961 OFFCURVE",
"-26 915 CURVE SMOOTH",
"-26 878 OFFCURVE",
"-8 845 OFFCURVE",
"26 818 CURVE",
"10 810 OFFCURVE",
"-10 807 OFFCURVE",
"-28 807 CURVE SMOOTH",
"-53 807 OFFCURVE",
"-75 815 OFFCURVE",
"-99 832 CURVE",
"-112 815 LINE",
"-91 798 OFFCURVE",
"-64 786 OFFCURVE",
"-27 786 CURVE SMOOTH"
);
},
{
closed = 1;
nodes = (
"13 855 OFFCURVE",
"-4 881 OFFCURVE",
"-4 911 CURVE SMOOTH",
"-4 951 OFFCURVE",
"18 972 OFFCURVE",
"52 972 CURVE SMOOTH",
"88 972 OFFCURVE",
"107 946 OFFCURVE",
"107 914 CURVE SMOOTH",
"107 878 OFFCURVE",
"80 845 OFFCURVE",
"43 826 CURVE"
);
}
);
width = 0;
},
{
anchors = (
{
name = _top.far;
position = "{0, 756}";
},
{
name = top.far;
position = "{0, 1042}";
},
{
name = top.near;
position = "{0, 1042}";
}
);
layerId = "DCD2D043-4E01-4B5D-9248-443A06E88532";
paths = (
{
closed = 1;
nodes = (
"33 779 OFFCURVE",
"93 807 OFFCURVE",
"130 856 CURVE SMOOTH",
"148 879 OFFCURVE",
"157 905 OFFCURVE",
"157 929 CURVE SMOOTH",
"157 980 OFFCURVE",
"119 1013 OFFCURVE",
"66 1013 CURVE SMOOTH",
"10 1013 OFFCURVE",
"-29 978 OFFCURVE",
"-29 925 CURVE SMOOTH",
"-29 902 OFFCURVE",
"-20 875 OFFCURVE",
"-3 846 CURVE",
"-12 843 OFFCURVE",
"-20 842 OFFCURVE",
"-31 842 CURVE SMOOTH",
"-50 842 OFFCURVE",
"-86 856 OFFCURVE",
"-110 872 CURVE",
"-147 818 LINE",
"-112 793 OFFCURVE",
"-75 779 OFFCURVE",
"-31 779 CURVE SMOOTH"
);
},
{
closed = 1;
nodes = (
"41 890 OFFCURVE",
"35 907 OFFCURVE",
"35 920 CURVE SMOOTH",
"35 941 OFFCURVE",
"49 950 OFFCURVE",
"64 950 CURVE SMOOTH",
"78 950 OFFCURVE",
"90 940 OFFCURVE",
"90 925 CURVE SMOOTH",
"90 907 OFFCURVE",
"79 883 OFFCURVE",
"55 869 CURVE"
);
}
);
width = 0;
}
);
note = uni064F;
unicode = 064F;
}
{
glyphname = "fathatan-ar";
layers = (
{
anchors = (
{
name = _top.far;
position = "{0, 781}";
},
{
name = top.far;
position = "{0, 1041}";
},
{
name = top.near;
position = "{0, 1041}";
}
);
layerId = "307C4A58-79B8-4138-817C-FBEE21722E1A";
paths = (
{
closed = 1;
nodes = (
"-117 776 LINE",
"117 864 LINE",
"117 928 LINE",
"-117 841 LINE"
);
},
{
closed = 1;
nodes = (
"-117 889 LINE",
"117 977 LINE",
"117 1041 LINE",
"-117 954 LINE"
);
}
);
userData = {
assembly = "NPUSHB[ ]	/* 13 values pushed */
6 5 64 4 207 7 1 7 128 2 1 0 3 
SVTCA[0]	/* SetFreedomAndProjectionVectorToAxis */
MDAP[1]	/* MoveDirectAbsPt */
SHP[1]	/* ShiftPointByLastPoint */
MDRP[01101]	/* MoveDirectRelPt */
SHP[0]	/* ShiftPointByLastPoint */
SMD[ ]	/* SetMinimumDistance */
MDRP[11110]	/* MoveDirectRelPt */
DELTAP1[ ]	/* DeltaExceptionP1 */
SHP[0]	/* ShiftPointByLastPoint */
SMD[ ]	/* SetMinimumDistance */
MDRP[01101]	/* MoveDirectRelPt */
SHP[0]	/* ShiftPointByLastPoint */
IUP[1]	/* InterpolateUntPts */
IUP[0]	/* InterpolateUntPts */";
};
width = 0;
},
{
anchors = (
{
name = _top.far;
position = "{0, 781}";
},
{
name = top.far;
position = "{0, 1031}";
},
{
name = top.near;
position = "{0, 1031}";
}
);
layerId = "15908E2C-AB74-4DC1-B0E7-8741EE8F4DA5";
paths = (
{
closed = 1;
nodes = (
"-117 776 LINE",
"117 864 LINE",
"117 918 LINE",
"-117 831 LINE"
);
},
{
closed = 1;
nodes = (
"-117 889 LINE",
"117 977 LINE",
"117 1031 LINE",
"-117 944 LINE"
);
}
);
userData = {
assembly = "NPUSHB[ ]	/* 9 values pushed */
5 64 7 128 1 32 3 1 3 
SVTCA[0]	/* SetFreedomAndProjectionVectorToAxis */
MDAP[1]	/* MoveDirectAbsPt */
DELTAP1[ ]	/* DeltaExceptionP1 */
MDRP[01101]	/* MoveDirectRelPt */
SMD[ ]	/* SetMinimumDistance */
MDRP[11110]	/* MoveDirectRelPt */
SMD[ ]	/* SetMinimumDistance */
MDRP[01101]	/* MoveDirectRelPt */
IUP[1]	/* InterpolateUntPts */
IUP[0]	/* InterpolateUntPts */";
};
width = 0;
},
{
anchors = (
{
name = _top.far;
position = "{0, 781}";
},
{
name = top.far;
position = "{0, 1021}";
},
{
name = top.near;
position = "{0, 1021}";
}
);
layerId = "410295A1-92BC-4707-ABFC-13885E60878B";
paths = (
{
closed = 1;
nodes = (
"-101 791 LINE",
"103 868 LINE",
"103 890 LINE",
"-101 814 LINE"
);
},
{
closed = 1;
nodes = (
"-101 894 LINE",
"103 971 LINE",
"103 993 LINE",
"-101 917 LINE"
);
}
);
width = 0;
},
{
anchors = (
{
name = _top.far;
position = "{0, 771}";
},
{
name = top.far;
position = "{0, 1048}";
},
{
name = top.near;
position = "{0, 1048}";
}
);
layerId = "DCD2D043-4E01-4B5D-9248-443A06E88532";
paths = (
{
closed = 1;
nodes = (
"-117 766 LINE",
"117 854 LINE",
"117 925 LINE",
"-117 838 LINE"
);
},
{
closed = 1;
nodes = (
"-117 889 LINE",
"117 977 LINE",
"117 1048 LINE",
"-117 961 LINE"
);
}
);
width = 0;
}
);
note = uni064B;
unicode = 064B;
}
{
glyphname = "kasratan-ar";
layers = (
{
anchors = (
{
name = _bottom;
position = "{0, -122}";
},
{
name = bottom;
position = "{0, -405}";
}
);
layerId = "307C4A58-79B8-4138-817C-FBEE21722E1A";
paths = (
{
closed = 1;
nodes = (
"-117 -407 LINE",
"117 -319 LINE",
"117 -255 LINE",
"-117 -342 LINE"
);
},
{
closed = 1;
nodes = (
"-117 -284 LINE",
"117 -196 LINE",
"117 -132 LINE",
"-117 -219 LINE"
);
}
);
userData = {
assembly = "NPUSHB[ ]	/* 17 values pushed */
4 31 7 1 7 5 0 31 3 1 3 64 2 1 128 6 5 
SVTCA[0]	/* SetFreedomAndProjectionVectorToAxis */
MDAP[1]	/* MoveDirectAbsPt */
SHP[1]	/* ShiftPointByLastPoint */
SMD[ ]	/* SetMinimumDistance */
MDRP[11101]	/* MoveDirectRelPt */
SHP[0]	/* ShiftPointByLastPoint */
SMD[ ]	/* SetMinimumDistance */
MDRP[01101]	/* MoveDirectRelPt */
DELTAP1[ ]	/* DeltaExceptionP1 */
SHP[0]	/* ShiftPointByLastPoint */
SRP0[ ]	/* SetRefPoint0 */
MDRP[01101]	/* MoveDirectRelPt */
DELTAP1[ ]	/* DeltaExceptionP1 */
SHP[0]	/* ShiftPointByLastPoint */
IUP[1]	/* InterpolateUntPts */
IUP[0]	/* InterpolateUntPts */";
};
width = 0;
},
{
anchors = (
{
name = _bottom;
position = "{0, -122}";
},
{
name = bottom;
position = "{0, -396}";
}
);
layerId = "15908E2C-AB74-4DC1-B0E7-8741EE8F4DA5";
paths = (
{
closed = 1;
nodes = (
"-117 -387 LINE",
"117 -299 LINE",
"117 -245 LINE",
"-117 -332 LINE"
);
},
{
closed = 1;
nodes = (
"-117 -274 LINE",
"117 -186 LINE",
"117 -132 LINE",
"-117 -219 LINE"
);
}
);
userData = {
assembly = "PUSHB[ ]	/* 6 values pushed */
3 64 1 128 7 5 
SVTCA[0]	/* SetFreedomAndProjectionVectorToAxis */
MDAP[1]	/* MoveDirectAbsPt */
MDRP[01101]	/* MoveDirectRelPt */
SMD[ ]	/* SetMinimumDistance */
MDRP[11110]	/* MoveDirectRelPt */
SMD[ ]	/* SetMinimumDistance */
MDRP[01101]	/* MoveDirectRelPt */
IUP[1]	/* InterpolateUntPts */
IUP[0]	/* InterpolateUntPts */";
};
width = 0;
},
{
anchors = (
{
name = _bottom;
position = "{0, -122}";
},
{
name = bottom;
position = "{0, -387}";
}
);
layerId = "410295A1-92BC-4707-ABFC-13885E60878B";
paths = (
{
closed = 1;
nodes = (
"-101 -360 LINE",
"103 -283 LINE",
"103 -261 LINE",
"-101 -337 LINE"
);
},
{
closed = 1;
nodes = (
"-101 -257 LINE",
"103 -180 LINE",
"103 -158 LINE",
"-101 -234 LINE"
);
}
);
width = 0;
},
{
anchors = (
{
name = _bottom;
position = "{0, -112}";
},
{
name = bottom;
position = "{0, -411}";
}
);
layerId = "DCD2D043-4E01-4B5D-9248-443A06E88532";
paths = (
{
closed = 1;
nodes = (
"-117 -420 LINE",
"117 -332 LINE",
"117 -262 LINE",
"-117 -349 LINE"
);
},
{
closed = 1;
nodes = (
"-117 -281 LINE",
"117 -193 LINE",
"117 -122 LINE",
"-117 -209 LINE"
);
}
);
width = 0;
}
);
note = uni064D;
unicode = 064D;
}
{
glyphname = "fathatwodots-ar";
layers = (
{
anchors = (
{
name = _top.near;
position = "{0, 461}";
},
{
name = _top2;
position = "{6, 447}";
},
{
name = top.far;
position = "{0, 826}";
},
{
name = top.near;
position = "{0, 826}";
}
);
layerId = "307C4A58-79B8-4138-817C-FBEE21722E1A";
paths = (
{
closed = 1;
nodes = (
"-89 664 LINE",
"-124 545 LINE",
"86 625 LINE",
"126 744 LINE"
);
},
{
closed = 1;
nodes = (
"-17 715 OFFCURVE",
"4 730 OFFCURVE",
"4 765 CURVE SMOOTH",
"4 801 OFFCURVE",
"-17 815 OFFCURVE",
"-42 815 CURVE SMOOTH",
"-69 815 OFFCURVE",
"-89 801 OFFCURVE",
"-89 765 CURVE SMOOTH",
"-89 730 OFFCURVE",
"-69 715 OFFCURVE",
"-42 715 CURVE SMOOTH"
);
},
{
closed = 1;
nodes = (
"70 468 OFFCURVE",
"92 483 OFFCURVE",
"92 518 CURVE SMOOTH",
"92 553 OFFCURVE",
"70 568 OFFCURVE",
"46 568 CURVE SMOOTH",
"19 568 OFFCURVE",
"-1 553 OFFCURVE",
"-1 518 CURVE SMOOTH",
"-1 483 OFFCURVE",
"19 468 OFFCURVE",
"46 468 CURVE SMOOTH"
);
}
);
userData = {
assembly = "NPUSHB[ ]	/* 12 values pushed */
1 0 3 2 0 2 0 2 4 10 22 16 
SVTCA[0]	/* SetFreedomAndProjectionVectorToAxis */
MDAP[1]	/* MoveDirectAbsPt */
SHP[1]	/* ShiftPointByLastPoint */
MDRP[01100]	/* MoveDirectRelPt */
SHP[0]	/* ShiftPointByLastPoint */
IP[ ]	/* InterpolatePts */
IP[ ]	/* InterpolatePts */
MDAP[1]	/* MoveDirectAbsPt */
MDAP[1]	/* MoveDirectAbsPt */
SRP1[ ]	/* SetRefPoint1 */
SHP[1]	/* ShiftPointByLastPoint */
SRP1[ ]	/* SetRefPoint1 */
SHP[1]	/* ShiftPointByLastPoint */
IUP[1]	/* InterpolateUntPts */
IUP[0]	/* InterpolateUntPts */";
};
width = 0;
},
{
anchors = (
{
name = _top.near;
position = "{0, 491}";
},
{
name = _top2;
position = "{6, 477}";
},
{
name = top.far;
position = "{0, 788}";
},
{
name = top.near;
position = "{0, 788}";
}
);
layerId = "15908E2C-AB74-4DC1-B0E7-8741EE8F4DA5";
paths = (
{
closed = 1;
nodes = (
"-89 644 LINE",
"-124 565 LINE",
"86 645 LINE",
"126 724 LINE"
);
},
{
closed = 1;
nodes = (
"-16 699 OFFCURVE",
"-1 709 OFFCURVE",
"-1 736 CURVE SMOOTH",
"-1 761 OFFCURVE",
"-16 772 OFFCURVE",
"-35 772 CURVE SMOOTH",
"-54 772 OFFCURVE",
"-69 761 OFFCURVE",
"-69 736 CURVE SMOOTH",
"-69 709 OFFCURVE",
"-54 699 OFFCURVE",
"-35 699 CURVE SMOOTH"
);
},
{
closed = 1;
nodes = (
"65 524 OFFCURVE",
"80 536 OFFCURVE",
"80 561 CURVE SMOOTH",
"80 586 OFFCURVE",
"65 597 OFFCURVE",
"46 597 CURVE SMOOTH",
"27 597 OFFCURVE",
"12 586 OFFCURVE",
"12 561 CURVE SMOOTH",
"12 536 OFFCURVE",
"27 524 OFFCURVE",
"46 524 CURVE SMOOTH"
);
}
);
userData = {
assembly = "PUSHB[ ]	/* 8 values pushed */
0 2 0 2 4 10 22 16 
SVTCA[0]	/* SetFreedomAndProjectionVectorToAxis */
MDAP[1]	/* MoveDirectAbsPt */
SHP[1]	/* ShiftPointByLastPoint */
MDRP[01100]	/* MoveDirectRelPt */
SHP[0]	/* ShiftPointByLastPoint */
IP[ ]	/* InterpolatePts */
IP[ ]	/* InterpolatePts */
MDAP[1]	/* MoveDirectAbsPt */
MDAP[1]	/* MoveDirectAbsPt */
IUP[1]	/* InterpolateUntPts */
IUP[0]	/* InterpolateUntPts */";
};
width = 0;
},
{
anchors = (
{
name = _top.near;
position = "{0, 551}";
},
{
name = _top2;
position = "{6, 537}";
},
{
name = top.far;
position = "{0, 764}";
},
{
name = top.near;
position = "{0, 764}";
}
);
layerId = "410295A1-92BC-4707-ABFC-13885E60878B";
paths = (
{
closed = 1;
nodes = (
"-84 628 LINE",
"-99 599 LINE",
"98 674 LINE",
"111 701 LINE"
);
},
{
closed = 1;
nodes = (
"-19 688 OFFCURVE",
"-11 693 OFFCURVE",
"-11 707 CURVE SMOOTH",
"-11 718 OFFCURVE",
"-19 724 OFFCURVE",
"-28 724 CURVE SMOOTH",
"-36 724 OFFCURVE",
"-44 718 OFFCURVE",
"-44 707 CURVE SMOOTH",
"-44 693 OFFCURVE",
"-36 688 OFFCURVE",
"-28 688 CURVE SMOOTH"
);
},
{
closed = 1;
nodes = (
"56 585 OFFCURVE",
"63 591 OFFCURVE",
"63 604 CURVE SMOOTH",
"63 616 OFFCURVE",
"56 621 OFFCURVE",
"46 621 CURVE SMOOTH",
"38 621 OFFCURVE",
"30 616 OFFCURVE",
"30 604 CURVE SMOOTH",
"30 591 OFFCURVE",
"38 585 OFFCURVE",
"46 585 CURVE SMOOTH"
);
}
);
width = 0;
},
{
anchors = (
{
name = _top.near;
position = "{0, 411}";
},
{
name = _top2;
position = "{6, 417}";
},
{
name = top.far;
position = "{0, 856}";
},
{
name = top.near;
position = "{0, 856}";
}
);
layerId = "DCD2D043-4E01-4B5D-9248-443A06E88532";
paths = (
{
closed = 1;
nodes = (
"-124 664 LINE",
"-159 519 LINE",
"86 612 LINE",
"126 757 LINE"
);
},
{
closed = 1;
nodes = (
"-38 726 OFFCURVE",
"-14 744 OFFCURVE",
"-14 784 CURVE SMOOTH",
"-14 827 OFFCURVE",
"-38 844 OFFCURVE",
"-68 844 CURVE SMOOTH",
"-100 844 OFFCURVE",
"-123 827 OFFCURVE",
"-123 784 CURVE SMOOTH",
"-123 744 OFFCURVE",
"-100 726 OFFCURVE",
"-68 726 CURVE SMOOTH"
);
},
{
closed = 1;
nodes = (
"74 431 OFFCURVE",
"100 448 OFFCURVE",
"100 489 CURVE SMOOTH",
"100 530 OFFCURVE",
"74 549 OFFCURVE",
"46 549 CURVE SMOOTH",
"14 549 OFFCURVE",
"-10 530 OFFCURVE",
"-10 489 CURVE SMOOTH",
"-10 448 OFFCURVE",
"14 431 OFFCURVE",
"46 431 CURVE SMOOTH"
);
}
);
width = 0;
}
);
note = uni065E;
unicode = 065E;
}
{
glyphname = "wavyhamzabelow-ar";
layers = (
{
anchors = (
{
name = _bottom;
position = "{-2, -50}";
},
{
name = bottom;
position = "{0, -286}";
}
);
layerId = "307C4A58-79B8-4138-817C-FBEE21722E1A";
paths = (
{
closed = 1;
nodes = (
"97 -181 LINE",
"82 -186 OFFCURVE",
"14 -196 OFFCURVE",
"-2 -197 CURVE",
"-19 -189 OFFCURVE",
"-32 -172 OFFCURVE",
"-32 -152 CURVE SMOOTH",
"-32 -124 OFFCURVE",
"-13 -104 OFFCURVE",
"16 -104 CURVE SMOOTH",
"36 -104 OFFCURVE",
"54 -108 OFFCURVE",
"70 -117 CURVE",
"90 -66 LINE",
"67 -54 OFFCURVE",
"39 -48 OFFCURVE",
"8 -48 CURVE SMOOTH",
"-60 -48 OFFCURVE",
"-102 -83 OFFCURVE",
"-102 -139 CURVE SMOOTH",
"-102 -171 OFFCURVE",
"-84 -194 OFFCURVE",
"-57 -207 CURVE",
"-64 -207 OFFCURVE",
"-74 -205 OFFCURVE",
"-87 -198 CURVE SMOOTH",
"-99 -191 OFFCURVE",
"-107 -190 OFFCURVE",
"-118 -190 CURVE SMOOTH",
"-127 -190 OFFCURVE",
"-142 -194 OFFCURVE",
"-154 -203 CURVE SMOOTH",
"-165 -212 OFFCURVE",
"-178 -225 OFFCURVE",
"-192 -242 CURVE",
"-165 -270 LINE",
"-148 -255 OFFCURVE",
"-132 -247 OFFCURVE",
"-119 -247 CURVE SMOOTH",
"-110 -247 OFFCURVE",
"-103 -249 OFFCURVE",
"-92 -253 CURVE SMOOTH",
"-78 -258 OFFCURVE",
"-64 -259 OFFCURVE",
"-45 -259 CURVE SMOOTH",
"-9 -259 OFFCURVE",
"40 -252 OFFCURVE",
"97 -239 CURVE"
);
}
);
userData = {
assembly = "NPUSHB[ ]	/* 12 values pushed */
5 10 10 20 31 64 7 2 192 25 20 36 
SVTCA[0]	/* SetFreedomAndProjectionVectorToAxis */
SRP0[ ]	/* SetRefPoint0 */
MDRP[11110]	/* MoveDirectRelPt */
MDRP[01101]	/* MoveDirectRelPt */
SMD[ ]	/* SetMinimumDistance */
MDRP[11100]	/* MoveDirectRelPt */
SHP[0]	/* ShiftPointByLastPoint */
SMD[ ]	/* SetMinimumDistance */
MDRP[01101]	/* MoveDirectRelPt */
SRP2[ ]	/* SetRefPoint2 */
IP[ ]	/* InterpolatePts */
MDAP[1]	/* MoveDirectAbsPt */
MDRP[01101]	/* MoveDirectRelPt */
IUP[1]	/* InterpolateUntPts */
IUP[0]	/* InterpolateUntPts */";
};
width = 97;
},
{
anchors = (
{
name = _bottom;
position = "{2, -59}";
},
{
name = bottom;
position = "{0, -300}";
}
);
layerId = "15908E2C-AB74-4DC1-B0E7-8741EE8F4DA5";
paths = (
{
closed = 1;
nodes = (
"94 -188 LINE",
"73 -193 OFFCURVE",
"9 -203 OFFCURVE",
"-6 -204 CURVE",
"-26 -194 OFFCURVE",
"-36 -178 OFFCURVE",
"-36 -157 CURVE SMOOTH",
"-36 -122 OFFCURVE",
"-13 -106 OFFCURVE",
"16 -106 CURVE SMOOTH",
"36 -106 OFFCURVE",
"53 -110 OFFCURVE",
"66 -118 CURVE",
"81 -73 LINE",
"63 -63 OFFCURVE",
"41 -58 OFFCURVE",
"15 -58 CURVE SMOOTH",
"-49 -58 OFFCURVE",
"-87 -92 OFFCURVE",
"-87 -148 CURVE SMOOTH",
"-87 -177 OFFCURVE",
"-71 -199 OFFCURVE",
"-52 -211 CURVE",
"-65 -211 OFFCURVE",
"-77 -208 OFFCURVE",
"-90 -203 CURVE SMOOTH",
"-103 -198 OFFCURVE",
"-112 -196 OFFCURVE",
"-119 -196 CURVE SMOOTH",
"-128 -196 OFFCURVE",
"-137 -199 OFFCURVE",
"-147 -205 CURVE SMOOTH",
"-156 -210 OFFCURVE",
"-168 -222 OFFCURVE",
"-183 -241 CURVE",
"-160 -262 LINE",
"-143 -247 OFFCURVE",
"-128 -240 OFFCURVE",
"-113 -240 CURVE SMOOTH",
"-106 -240 OFFCURVE",
"-96 -243 OFFCURVE",
"-82 -248 CURVE SMOOTH",
"-68 -253 OFFCURVE",
"-54 -255 OFFCURVE",
"-40 -255 CURVE SMOOTH",
"-14 -255 OFFCURVE",
"59 -245 OFFCURVE",
"94 -237 CURVE"
);
}
);
userData = {
assembly = "NPUSHB[ ]	/* 10 values pushed */
4 10 10 14 30 64 0 192 25 20 
SVTCA[0]	/* SetFreedomAndProjectionVectorToAxis */
MDAP[1]	/* MoveDirectAbsPt */
MDRP[01101]	/* MoveDirectRelPt */
SMD[ ]	/* SetMinimumDistance */
MDRP[11100]	/* MoveDirectRelPt */
SMD[ ]	/* SetMinimumDistance */
MDRP[01101]	/* MoveDirectRelPt */
SHP[0]	/* ShiftPointByLastPoint */
SHP[0]	/* ShiftPointByLastPoint */
MDAP[1]	/* MoveDirectAbsPt */
MDRP[01101]	/* MoveDirectRelPt */
IUP[1]	/* InterpolateUntPts */
IUP[0]	/* InterpolateUntPts */";
};
width = 94;
},
{
anchors = (
{
name = _bottom;
position = "{-1, -74}";
},
{
name = bottom;
position = "{1, -264}";
}
);
layerId = "410295A1-92BC-4707-ABFC-13885E60878B";
paths = (
{
closed = 1;
nodes = (
"90 -199 LINE",
"63 -204 OFFCURVE",
"3 -214 OFFCURVE",
"-11 -215 CURVE",
"-34 -206 OFFCURVE",
"-51 -183 OFFCURVE",
"-51 -155 CURVE SMOOTH",
"-51 -120 OFFCURVE",
"-25 -94 OFFCURVE",
"16 -94 CURVE SMOOTH",
"35 -94 OFFCURVE",
"51 -100 OFFCURVE",
"61 -105 CURVE",
"71 -84 LINE",
"61 -78 OFFCURVE",
"42 -73 OFFCURVE",
"19 -73 CURVE SMOOTH",
"-39 -73 OFFCURVE",
"-73 -105 OFFCURVE",
"-73 -155 CURVE SMOOTH",
"-73 -187 OFFCURVE",
"-59 -208 OFFCURVE",
"-36 -220 CURVE",
"-66 -220 OFFCURVE",
"-78 -216 OFFCURVE",
"-92 -210 CURVE SMOOTH",
"-104 -205 OFFCURVE",
"-110 -203 OFFCURVE",
"-117 -203 CURVE SMOOTH",
"-123 -203 OFFCURVE",
"-127 -204 OFFCURVE",
"-136 -209 CURVE SMOOTH",
"-144 -214 OFFCURVE",
"-154 -223 OFFCURVE",
"-171 -244 CURVE",
"-157 -252 LINE",
"-143 -236 OFFCURVE",
"-130 -225 OFFCURVE",
"-116 -225 CURVE SMOOTH",
"-108 -225 OFFCURVE",
"-96 -230 OFFCURVE",
"-84 -235 CURVE SMOOTH",
"-71 -240 OFFCURVE",
"-56 -242 OFFCURVE",
"-36 -242 CURVE SMOOTH",
"-16 -242 OFFCURVE",
"72 -225 OFFCURVE",
"90 -221 CURVE"
);
}
);
width = 90;
},
{
anchors = (
{
name = _bottom;
position = "{-2, -43}";
},
{
name = bottom;
position = "{0, -303}";
}
);
layerId = "DCD2D043-4E01-4B5D-9248-443A06E88532";
paths = (
{
closed = 1;
nodes = (
"99 -176 LINE",
"73 -181 OFFCURVE",
"18 -191 OFFCURVE",
"1 -192 CURVE",
"-15 -186 OFFCURVE",
"-29 -168 OFFCURVE",
"-29 -149 CURVE SMOOTH",
"-29 -125 OFFCURVE",
"-13 -103 OFFCURVE",
"16 -103 CURVE SMOOTH",
"36 -103 OFFCURVE",
"55 -107 OFFCURVE",
"73 -116 CURVE",
"96 -61 LINE",
"71 -48 OFFCURVE",
"38 -38 OFFCURVE",
"3 -38 CURVE SMOOTH",
"-67 -38 OFFCURVE",
"-112 -77 OFFCURVE",
"-112 -133 CURVE SMOOTH",
"-112 -167 OFFCURVE",
"-92 -190 OFFCURVE",
"-60 -204 CURVE",
"-68 -204 OFFCURVE",
"-76 -203 OFFCURVE",
"-90 -195 CURVE SMOOTH",
"-99 -190 OFFCURVE",
"-109 -186 OFFCURVE",
"-121 -186 CURVE SMOOTH",
"-135 -186 OFFCURVE",
"-145 -190 OFFCURVE",
"-159 -202 CURVE SMOOTH",
"-172 -214 OFFCURVE",
"-184 -227 OFFCURVE",
"-198 -243 CURVE",
"-168 -275 LINE",
"-151 -260 OFFCURVE",
"-135 -252 OFFCURVE",
"-123 -252 CURVE SMOOTH",
"-112 -252 OFFCURVE",
"-106 -253 OFFCURVE",
"-97 -256 CURVE SMOOTH",
"-86 -260 OFFCURVE",
"-71 -262 OFFCURVE",
"-48 -262 CURVE SMOOTH",
"-6 -262 OFFCURVE",
"27 -257 OFFCURVE",
"99 -240 CURVE"
);
}
);
width = 99;
}
);
note = wavyhamza_below;
rightMetricsKey = "=0";
unicode = 065F;
}
{
glyphname = "asterisk-ar";
layers = (
{
layerId = "307C4A58-79B8-4138-817C-FBEE21722E1A";
paths = (
{
closed = 1;
nodes = (
"212 293 LINE",
"279 445 LINE",
"355 292 LINE",
"466 351 LINE",
"357 496 LINE",
"523 508 LINE",
"507 631 LINE",
"325 580 LINE",
"345 760 LINE",
"217 760 LINE",
"237 580 LINE",
"59 631 LINE",
"40 509 LINE",
"205 496 LINE",
"97 351 LINE"
);
}
);
userData = {
assembly = "NPUSHB[ ]	/* 27 values pushed */
8 7 11 13 0 7 2 4 6 15 16 4 5 5 11 0 12 3 3 14 10 10 8 1 14 8 0 
SVTCA[0]	/* SetFreedomAndProjectionVectorToAxis */
MIAP[1]	/* MoveIndirectAbsPt */
MDAP[1]	/* MoveDirectAbsPt */
SHP[1]	/* ShiftPointByLastPoint */
SRP2[ ]	/* SetRefPoint2 */
IP[ ]	/* InterpolatePts */
MDAP[1]	/* MoveDirectAbsPt */
SRP2[ ]	/* SetRefPoint2 */
SLOOP[ ]	/* SetLoopVariable */
IP[ ]	/* InterpolatePts */
SHP[1]	/* ShiftPointByLastPoint */
SHP[1]	/* ShiftPointByLastPoint */
MDAP[1]	/* MoveDirectAbsPt */
SHP[1]	/* ShiftPointByLastPoint */
SRP1[ ]	/* SetRefPoint1 */
SRP2[ ]	/* SetRefPoint2 */
SVTCA[1]	/* SetFreedomAndProjectionVectorToAxis */
SLOOP[ ]	/* SetLoopVariable */
IP[ ]	/* InterpolatePts */
SRP1[ ]	/* SetRefPoint1 */
SHP[1]	/* ShiftPointByLastPoint */
IUP[1]	/* InterpolateUntPts */
IUP[0]	/* InterpolateUntPts */";
};
width = 563;
},
{
layerId = "15908E2C-AB74-4DC1-B0E7-8741EE8F4DA5";
paths = (
{
closed = 1;
nodes = (
"195 308 LINE",
"272 483 LINE",
"358 308 LINE",
"445 355 LINE",
"325 514 LINE",
"510 528 LINE",
"497 622 LINE",
"303 568 LINE",
"324 760 LINE",
"224 760 LINE",
"245 568 LINE",
"54 622 LINE",
"40 528 LINE",
"223 514 LINE",
"105 355 LINE"
);
}
);
userData = {
assembly = "NPUSHB[ ]	/* 24 values pushed */
6 5 2 0 5 13 11 9 6 16 15 2 3 3 9 13 12 8 8 6 0 12 6 0 
SVTCA[0]	/* SetFreedomAndProjectionVectorToAxis */
MIAP[1]	/* MoveIndirectAbsPt */
MDAP[1]	/* MoveDirectAbsPt */
SHP[1]	/* ShiftPointByLastPoint */
SRP2[ ]	/* SetRefPoint2 */
IP[ ]	/* InterpolatePts */
MDAP[1]	/* MoveDirectAbsPt */
SRP2[ ]	/* SetRefPoint2 */
IP[ ]	/* InterpolatePts */
SHP[1]	/* ShiftPointByLastPoint */
SHP[1]	/* ShiftPointByLastPoint */
MDAP[1]	/* MoveDirectAbsPt */
SHP[1]	/* ShiftPointByLastPoint */
SRP1[ ]	/* SetRefPoint1 */
SRP2[ ]	/* SetRefPoint2 */
SVTCA[1]	/* SetFreedomAndProjectionVectorToAxis */
SLOOP[ ]	/* SetLoopVariable */
IP[ ]	/* InterpolatePts */
SRP1[ ]	/* SetRefPoint1 */
SHP[1]	/* ShiftPointByLastPoint */
IUP[1]	/* InterpolateUntPts */
IUP[0]	/* InterpolateUntPts */";
};
width = 550;
},
{
layerId = "410295A1-92BC-4707-ABFC-13885E60878B";
paths = (
{
closed = 1;
nodes = (
"179 317 LINE",
"272 515 LINE",
"374 318 LINE",
"434 349 LINE",
"294 528 LINE",
"505 548 LINE",
"495 615 LINE",
"285 548 LINE",
"308 760 LINE",
"239 760 LINE",
"263 548 LINE",
"57 619 LINE",
"45 552 LINE",
"251 527 LINE",
"116 349 LINE"
);
}
);
width = 537;
},
{
layerId = "DCD2D043-4E01-4B5D-9248-443A06E88532";
paths = (
{
closed = 1;
nodes = (
"246 266 LINE",
"303 437 LINE",
"364 262 LINE",
"514 338 LINE",
"388 493 LINE",
"569 490 LINE",
"549 661 LINE",
"353 585 LINE",
"396 779 LINE",
"211 779 LINE",
"257 585 LINE",
"69 674 LINE",
"40 488 LINE",
"222 493 LINE",
"87 344 LINE"
);
}
);
width = 609;
}
);
note = uni066D;
unicode = 066D;
}
{
glyphname = "percent-ar";
layers = (
{
layerId = "307C4A58-79B8-4138-817C-FBEE21722E1A";
paths = (
{
closed = 1;
nodes = (
"97 492 LINE",
"223 492 LINE",
"223 618 LINE",
"97 618 LINE"
);
},
{
closed = 1;
nodes = (
"50 0 LINE",
"167 0 LINE",
"542 674 LINE",
"425 674 LINE"
);
},
{
closed = 1;
nodes = (
"365 70 LINE",
"491 70 LINE",
"491 196 LINE",
"365 196 LINE"
);
}
);
userData = {
assembly = "NPUSHB[ ]	/* 28 values pushed */
4 5 11 10 1 0 6 7 7 0 10 5 4 13 12 3 0 10 9 0 9 0 9 5 6 18 5 6 
SVTCA[0]	/* SetFreedomAndProjectionVectorToAxis */
MIAP[1]	/* MoveIndirectAbsPt */
MIAP[1]	/* MoveIndirectAbsPt */
SRP2[ ]	/* SetRefPoint2 */
IP[ ]	/* InterpolatePts */
IP[ ]	/* InterpolatePts */
MDAP[1]	/* MoveDirectAbsPt */
MDAP[1]	/* MoveDirectAbsPt */
SRP0[ ]	/* SetRefPoint0 */
MDRP[01101]	/* MoveDirectRelPt */
SRP0[ ]	/* SetRefPoint0 */
MDRP[01101]	/* MoveDirectRelPt */
SRP1[ ]	/* SetRefPoint1 */
SRP2[ ]	/* SetRefPoint2 */
SVTCA[1]	/* SetFreedomAndProjectionVectorToAxis */
SLOOP[ ]	/* SetLoopVariable */
IP[ ]	/* InterpolatePts */
SRP1[ ]	/* SetRefPoint1 */
SHP[1]	/* ShiftPointByLastPoint */
SRP1[ ]	/* SetRefPoint1 */
SHP[1]	/* ShiftPointByLastPoint */
SRP1[ ]	/* SetRefPoint1 */
SHP[1]	/* ShiftPointByLastPoint */
SRP1[ ]	/* SetRefPoint1 */
SHP[1]	/* ShiftPointByLastPoint */
IUP[1]	/* InterpolateUntPts */
IUP[0]	/* InterpolateUntPts */";
};
width = 592;
},
{
layerId = "15908E2C-AB74-4DC1-B0E7-8741EE8F4DA5";
paths = (
{
closed = 1;
nodes = (
"98 503 LINE",
"203 503 LINE",
"203 608 LINE",
"98 608 LINE"
);
},
{
closed = 1;
nodes = (
"50 0 LINE",
"127 0 LINE",
"523 674 LINE",
"446 674 LINE"
);
},
{
closed = 1;
nodes = (
"366 81 LINE",
"471 81 LINE",
"471 186 LINE",
"366 186 LINE"
);
}
);
userData = {
assembly = "NPUSHB[ ]	/* 32 values pushed */
4 5 8 9 1 0 6 7 7 0 9 5 4 13 12 8 11 71 89 0 3 71 89 8 0 8 0 4 7 18 4 6 
SVTCA[0]	/* SetFreedomAndProjectionVectorToAxis */
MIAP[1]	/* MoveIndirectAbsPt */
MIAP[1]	/* MoveIndirectAbsPt */
SRP2[ ]	/* SetRefPoint2 */
IP[ ]	/* InterpolatePts */
IP[ ]	/* InterpolatePts */
MDAP[1]	/* MoveDirectAbsPt */
MDAP[1]	/* MoveDirectAbsPt */
CALL[ ]	/* CallFunction */
CALL[ ]	/* CallFunction */
SRP1[ ]	/* SetRefPoint1 */
SRP2[ ]	/* SetRefPoint2 */
SVTCA[1]	/* SetFreedomAndProjectionVectorToAxis */
SLOOP[ ]	/* SetLoopVariable */
IP[ ]	/* InterpolatePts */
SRP1[ ]	/* SetRefPoint1 */
SHP[1]	/* ShiftPointByLastPoint */
SRP1[ ]	/* SetRefPoint1 */
SHP[1]	/* ShiftPointByLastPoint */
SRP1[ ]	/* SetRefPoint1 */
SHP[1]	/* ShiftPointByLastPoint */
SRP1[ ]	/* SetRefPoint1 */
SHP[1]	/* ShiftPointByLastPoint */
IUP[1]	/* InterpolateUntPts */
IUP[0]	/* InterpolateUntPts */";
};
width = 573;
},
{
layerId = "410295A1-92BC-4707-ABFC-13885E60878B";
paths = (
{
closed = 1;
nodes = (
"109 529 LINE",
"168 529 LINE",
"168 588 LINE",
"109 588 LINE"
);
},
{
closed = 1;
nodes = (
"50 0 LINE",
"79 0 LINE",
"504 674 LINE",
"476 674 LINE"
);
},
{
closed = 1;
nodes = (
"382 82 LINE",
"441 82 LINE",
"441 141 LINE",
"382 141 LINE"
);
}
);
width = 554;
},
{
layerId = "DCD2D043-4E01-4B5D-9248-443A06E88532";
paths = (
{
closed = 1;
nodes = (
"63 462 LINE",
"203 462 LINE",
"203 602 LINE",
"63 602 LINE"
);
},
{
closed = 1;
nodes = (
"50 0 LINE",
"194 0 LINE",
"555 674 LINE",
"411 674 LINE"
);
},
{
closed = 1;
nodes = (
"401 70 LINE",
"541 70 LINE",
"541 210 LINE",
"401 210 LINE"
);
}
);
width = 604.66667;
}
);
note = uni066A;
unicode = 066A;
}
{
glyphname = "rehStroke-ar";
layers = (
{
anchors = (
{
name = bottom;
position = "{133, -400}";
},
{
name = top.far;
position = "{248, 574}";
},
{
name = top.near;
position = "{248, 574}";
}
);
layerId = "307C4A58-79B8-4138-817C-FBEE21722E1A";
paths = (
{
closed = 1;
nodes = (
"34 -148 LINE",
"139 -148 LINE",
"116 -185 OFFCURVE",
"84 -222 OFFCURVE",
"43 -257 CURVE",
"133 -360 LINE",
"224 -281 OFFCURVE",
"271 -216 OFFCURVE",
"299 -148 CURVE",
"386 -148 LINE",
"386 -61 LINE",
"323 -61 LINE",
"324 -49 OFFCURVE",
"325 -28 OFFCURVE",
"325 -16 CURVE SMOOTH",
"325 495 LINE",
"176 495 LINE",
"176 -18 LINE SMOOTH",
"176 -29 OFFCURVE",
"175 -50 OFFCURVE",
"173 -61 CURVE",
"34 -61 LINE"
);
}
);
width = 438;
},
{
anchors = (
{
name = bottom;
position = "{98, -360}";
},
{
name = top.far;
position = "{211, 570}";
},
{
name = top.near;
position = "{211, 570}";
}
);
layerId = "15908E2C-AB74-4DC1-B0E7-8741EE8F4DA5";
paths = (
{
closed = 1;
nodes = (
"34 -148 LINE",
"147 -148 LINE",
"128 -179 OFFCURVE",
"93 -216 OFFCURVE",
"43 -257 CURVE",
"98 -320 LINE",
"166 -259 OFFCURVE",
"213 -207 OFFCURVE",
"238 -148 CURVE",
"316 -148 LINE",
"316 -91 LINE",
"256 -91 LINE",
"259 -79 OFFCURVE",
"260 -63 OFFCURVE",
"260 -44 CURVE SMOOTH",
"260 485 LINE",
"176 485 LINE",
"176 -49 LINE SMOOTH",
"176 -63 OFFCURVE",
"174 -77 OFFCURVE",
"171 -91 CURVE",
"34 -91 LINE"
);
}
);
width = 325;
},
{
anchors = (
{
name = bottom;
position = "{83, -293}";
},
{
name = top.far;
position = "{163, 551}";
},
{
name = top.near;
position = "{163, 551}";
}
);
layerId = "410295A1-92BC-4707-ABFC-13885E60878B";
paths = (
{
closed = 1;
nodes = (
"42 -142 LINE",
"163 -142 LINE",
"150 -170 OFFCURVE",
"113 -205 OFFCURVE",
"74 -237 CURVE",
"87 -254 LINE",
"130 -223 OFFCURVE",
"169 -182 OFFCURVE",
"189 -142 CURVE",
"240 -142 LINE",
"240 -120 LINE",
"198 -120 LINE",
"200 -113 OFFCURVE",
"202 -100 OFFCURVE",
"202 -79 CURVE SMOOTH",
"202 475 LINE",
"178 475 LINE",
"178 -79 LINE SMOOTH",
"178 -100 OFFCURVE",
"176 -109 OFFCURVE",
"173 -120 CURVE",
"42 -120 LINE"
);
}
);
width = 250;
},
{
anchors = (
{
name = bottom;
position = "{171, -423}";
},
{
name = top.far;
position = "{272, 590}";
},
{
name = top.near;
position = "{272, 590}";
}
);
layerId = "DCD2D043-4E01-4B5D-9248-443A06E88532";
paths = (
{
closed = 1;
nodes = (
"34 -148 LINE",
"134 -148 LINE",
"110 -189 OFFCURVE",
"78 -224 OFFCURVE",
"43 -257 CURVE",
"156 -387 LINE",
"262 -296 OFFCURVE",
"310 -222 OFFCURVE",
"340 -148 CURVE",
"433 -148 LINE",
"433 -44 LINE",
"368 -44 LINE",
"368 -32 OFFCURVE",
"368 -4 OFFCURVE",
"368 3 CURVE SMOOTH",
"368 502 LINE",
"177 502 LINE",
"177 3 LINE SMOOTH",
"177 -7 OFFCURVE",
"175 -36 OFFCURVE",
"174 -44 CURVE",
"34 -44 LINE"
);
}
);
width = 493;
}
);
note = uni075B;
unicode = 075B;
category = Letter;
}
{
glyphname = "lamBar-ar";
layers = (
{
anchors = (
{
name = bottom;
position = "{342, -322}";
},
{
name = top.far;
position = "{244, 732}";
},
{
name = top.near;
position = "{244, 732}";
}
);
layerId = "307C4A58-79B8-4138-817C-FBEE21722E1A";
paths = (
{
closed = 1;
nodes = (
"374 435 LINE",
"527 435 LINE",
"527 39 LINE SMOOTH",
"527 -62 OFFCURVE",
"480 -120 OFFCURVE",
"377 -120 CURVE SMOOTH",
"347 -120 LINE SMOOTH",
"267 -120 OFFCURVE",
"214 -58 OFFCURVE",
"214 39 CURVE SMOOTH",
"214 107 OFFCURVE",
"227 190 OFFCURVE",
"248 261 CURVE",
"116 261 LINE",
"84 198 OFFCURVE",
"65 116 OFFCURVE",
"65 40 CURVE SMOOTH",
"65 -126 OFFCURVE",
"166 -240 OFFCURVE",
"337 -240 CURVE SMOOTH",
"381 -240 LINE SMOOTH",
"578 -240 OFFCURVE",
"676 -148 OFFCURVE",
"676 35 CURVE SMOOTH",
"676 435 LINE",
"748 435 LINE",
"748 542 LINE",
"676 542 LINE",
"676 760 LINE",
"527 760 LINE",
"527 542 LINE",
"374 542 LINE"
);
}
);
userData = {
assembly = "NPUSHB[ ]	/* 36 values pushed */
4 8 8 1 29 22 15 15 0 29 6 4 33 32 7 31 0 31 72 89 4 0 18 0 18 0 11 2 11 25 70 89 11 27 2 0 
SVTCA[0]	/* SetFreedomAndProjectionVectorToAxis */
MIAP[1]	/* MoveIndirectAbsPt */
MIAP[1]	/* MoveIndirectAbsPt */
CALL[ ]	/* CallFunction */
SRP1[ ]	/* SetRefPoint1 */
SRP2[ ]	/* SetRefPoint2 */
SVTCA[0]	/* SetFreedomAndProjectionVectorToAxis */
IP[ ]	/* InterpolatePts */
IP[ ]	/* InterpolatePts */
RTG[ ]	/* RoundToGrid */
MDAP[1]	/* MoveDirectAbsPt */
MDAP[1]	/* MoveDirectAbsPt */
SRP1[ ]	/* SetRefPoint1 */
SHP[1]	/* ShiftPointByLastPoint */
CALL[ ]	/* CallFunction */
SRP1[ ]	/* SetRefPoint1 */
SVTCA[0]	/* SetFreedomAndProjectionVectorToAxis */
SHP[1]	/* ShiftPointByLastPoint */
SRP1[ ]	/* SetRefPoint1 */
SRP2[ ]	/* SetRefPoint2 */
SVTCA[1]	/* SetFreedomAndProjectionVectorToAxis */
SLOOP[ ]	/* SetLoopVariable */
IP[ ]	/* InterpolatePts */
SRP1[ ]	/* SetRefPoint1 */
SHP[1]	/* ShiftPointByLastPoint */
SRP1[ ]	/* SetRefPoint1 */
SHP[1]	/* ShiftPointByLastPoint */
SHP[1]	/* ShiftPointByLastPoint */
SRP1[ ]	/* SetRefPoint1 */
SHP[1]	/* ShiftPointByLastPoint */
IUP[1]	/* InterpolateUntPts */
IUP[0]	/* InterpolateUntPts */";
};
width = 776;
},
{
anchors = (
{
name = bottom;
position = "{342, -322}";
},
{
name = top.far;
position = "{244, 732}";
},
{
name = top.near;
position = "{244, 732}";
}
);
layerId = "15908E2C-AB74-4DC1-B0E7-8741EE8F4DA5";
paths = (
{
closed = 1;
nodes = (
"374 485 LINE",
"502 485 LINE",
"502 -3 LINE SMOOTH",
"502 -110 OFFCURVE",
"450 -162 OFFCURVE",
"334 -162 CURVE SMOOTH",
"285 -162 LINE SMOOTH",
"202 -162 OFFCURVE",
"155 -97 OFFCURVE",
"155 16 CURVE SMOOTH",
"155 116 OFFCURVE",
"166 195 OFFCURVE",
"189 252 CURVE",
"106 252 LINE",
"79 188 OFFCURVE",
"65 99 OFFCURVE",
"65 16 CURVE SMOOTH",
"65 -144 OFFCURVE",
"142 -240 OFFCURVE",
"266 -240 CURVE SMOOTH",
"338 -240 LINE SMOOTH",
"510 -240 OFFCURVE",
"587 -157 OFFCURVE",
"587 4 CURVE SMOOTH",
"587 485 LINE",
"656 485 LINE",
"656 542 LINE",
"587 542 LINE",
"587 760 LINE",
"502 760 LINE",
"502 542 LINE",
"374 542 LINE"
);
}
);
userData = {
assembly = "NPUSHB[ ]	/* 39 values pushed */
4 1 1 8 28 21 15 15 0 28 5 4 32 31 4 7 72 89 4 4 1 1 29 72 89 1 19 1 19 3 11 11 25 70 89 11 27 3 0 
SVTCA[0]	/* SetFreedomAndProjectionVectorToAxis */
MIAP[1]	/* MoveIndirectAbsPt */
MIAP[1]	/* MoveIndirectAbsPt */
CALL[ ]	/* CallFunction */
SRP1[ ]	/* SetRefPoint1 */
SRP2[ ]	/* SetRefPoint2 */
SVTCA[0]	/* SetFreedomAndProjectionVectorToAxis */
IP[ ]	/* InterpolatePts */
IP[ ]	/* InterpolatePts */
RTG[ ]	/* RoundToGrid */
MDAP[1]	/* MoveDirectAbsPt */
MDAP[1]	/* MoveDirectAbsPt */
CALL[ ]	/* CallFunction */
SRP1[ ]	/* SetRefPoint1 */
SVTCA[0]	/* SetFreedomAndProjectionVectorToAxis */
SHP[1]	/* ShiftPointByLastPoint */
RTG[ ]	/* RoundToGrid */
MDAP[1]	/* MoveDirectAbsPt */
CALL[ ]	/* CallFunction */
SRP1[ ]	/* SetRefPoint1 */
SRP2[ ]	/* SetRefPoint2 */
SVTCA[1]	/* SetFreedomAndProjectionVectorToAxis */
SLOOP[ ]	/* SetLoopVariable */
IP[ ]	/* InterpolatePts */
SRP1[ ]	/* SetRefPoint1 */
SHP[1]	/* ShiftPointByLastPoint */
SRP1[ ]	/* SetRefPoint1 */
SHP[1]	/* ShiftPointByLastPoint */
SHP[1]	/* ShiftPointByLastPoint */
SRP1[ ]	/* SetRefPoint1 */
SHP[1]	/* ShiftPointByLastPoint */
IUP[1]	/* InterpolateUntPts */
IUP[0]	/* InterpolateUntPts */";
};
width = 687;
},
{
anchors = (
{
name = bottom;
position = "{291, -322}";
},
{
name = top.far;
position = "{264, 732}";
},
{
name = top.near;
position = "{264, 732}";
}
);
layerId = "410295A1-92BC-4707-ABFC-13885E60878B";
paths = (
{
closed = 1;
nodes = (
"372 527 LINE",
"474 527 LINE",
"474 -29 LINE SMOOTH",
"474 -166 OFFCURVE",
"420 -216 OFFCURVE",
"302 -216 CURVE SMOOTH",
"235 -216 LINE SMOOTH",
"126 -216 OFFCURVE",
"89 -140 OFFCURVE",
"89 15 CURVE SMOOTH",
"89 98 OFFCURVE",
"104 186 OFFCURVE",
"125 242 CURVE",
"103 243 LINE",
"77 178 OFFCURVE",
"65 81 OFFCURVE",
"65 7 CURVE SMOOTH",
"65 -156 OFFCURVE",
"116 -240 OFFCURVE",
"231 -240 CURVE SMOOTH",
"301 -240 LINE SMOOTH",
"445 -240 OFFCURVE",
"498 -169 OFFCURVE",
"498 -27 CURVE SMOOTH",
"498 527 LINE",
"564 527 LINE",
"564 547 LINE",
"498 547 LINE",
"498 760 LINE",
"474 760 LINE",
"474 547 LINE",
"372 547 LINE"
);
}
);
width = 598;
},
{
anchors = (
{
name = bottom;
position = "{342, -322}";
},
{
name = top.far;
position = "{244, 732}";
},
{
name = top.near;
position = "{244, 732}";
}
);
layerId = "DCD2D043-4E01-4B5D-9248-443A06E88532";
paths = (
{
closed = 1;
nodes = (
"374 402 LINE",
"544 402 LINE",
"544 67 LINE SMOOTH",
"544 -31 OFFCURVE",
"500 -92 OFFCURVE",
"406 -92 CURVE SMOOTH",
"388 -92 LINE SMOOTH",
"310 -92 OFFCURVE",
"253 -32 OFFCURVE",
"253 54 CURVE SMOOTH",
"253 101 OFFCURVE",
"267 187 OFFCURVE",
"287 267 CURVE",
"123 267 LINE",
"87 205 OFFCURVE",
"65 128 OFFCURVE",
"65 56 CURVE SMOOTH",
"65 -114 OFFCURVE",
"182 -240 OFFCURVE",
"384 -240 CURVE SMOOTH",
"410 -240 LINE SMOOTH",
"623 -240 OFFCURVE",
"735 -142 OFFCURVE",
"735 56 CURVE SMOOTH",
"735 402 LINE",
"809 402 LINE",
"809 542 LINE",
"735 542 LINE",
"735 760 LINE",
"544 760 LINE",
"544 542 LINE",
"374 542 LINE"
);
}
);
width = 835.33333;
}
);
note = uni076A;
unicode = 076A;
}
{
glyphname = "verticalTail-ar";
layers = (
{
layerId = "410295A1-92BC-4707-ABFC-13885E60878B";
paths = (
{
closed = 1;
nodes = (
"39 0 LINE",
"182 0 LINE SMOOTH",
"185 0 OFFCURVE",
"187 2 OFFCURVE",
"187 5 CURVE SMOOTH",
"187 20 LINE SMOOTH",
"187 23 OFFCURVE",
"185 24 OFFCURVE",
"182 24 CURVE SMOOTH",
"39 24 LINE"
);
},
{
closed = 1;
nodes = (
"45 375 LINE",
"21 375 LINE",
"21 -179 LINE SMOOTH",
"21 -249 OFFCURVE",
"13 -292 OFFCURVE",
"-34 -337 CURVE",
"-20 -355 LINE",
"35 -310 OFFCURVE",
"45 -256 OFFCURVE",
"45 -179 CURVE SMOOTH"
);
}
);
width = 177;
},
{
layerId = "15908E2C-AB74-4DC1-B0E7-8741EE8F4DA5";
paths = (
{
closed = 1;
nodes = (
"113 0 LINE",
"253 0 LINE SMOOTH",
"256 0 OFFCURVE",
"258 2 OFFCURVE",
"258 5 CURVE SMOOTH",
"258 74 LINE SMOOTH",
"258 77 OFFCURVE",
"256 78 OFFCURVE",
"253 78 CURVE SMOOTH",
"113 78 LINE"
);
},
{
closed = 1;
nodes = (
"129 385 LINE",
"45 385 LINE",
"45 -149 LINE SMOOTH",
"45 -228 OFFCURVE",
"20 -303 OFFCURVE",
"-40 -358 CURVE",
"15 -420 LINE",
"95 -338 OFFCURVE",
"129 -236 OFFCURVE",
"129 -144 CURVE SMOOTH"
);
}
);
width = 248;
},
{
layerId = "307C4A58-79B8-4138-817C-FBEE21722E1A";
paths = (
{
closed = 1;
nodes = (
"173 0 LINE",
"319 0 LINE SMOOTH",
"322 0 OFFCURVE",
"324 2 OFFCURVE",
"324 5 CURVE SMOOTH",
"324 116 LINE SMOOTH",
"324 119 OFFCURVE",
"322 120 OFFCURVE",
"319 120 CURVE SMOOTH",
"173 120 LINE"
);
},
{
closed = 1;
nodes = (
"189 395 LINE",
"40 395 LINE",
"40 -118 LINE SMOOTH",
"40 -201 OFFCURVE",
"37 -292 OFFCURVE",
"-40 -361 CURVE",
"51 -464 LINE",
"115 -404 OFFCURVE",
"188 -289 OFFCURVE",
"188 -78 CURVE SMOOTH"
);
}
);
width = 314;
},
{
layerId = "DCD2D043-4E01-4B5D-9248-443A06E88532";
paths = (
{
closed = 1;
nodes = (
"222 0 LINE",
"372 0 LINE SMOOTH",
"376 0 OFFCURVE",
"377 2 OFFCURVE",
"377 5 CURVE SMOOTH",
"377 144 LINE SMOOTH",
"377 147 OFFCURVE",
"376 148 OFFCURVE",
"372 148 CURVE SMOOTH",
"222 148 LINE"
);
},
{
closed = 1;
nodes = (
"238 402 LINE",
"47 402 LINE",
"47 -97 LINE SMOOTH",
"47 -221 OFFCURVE",
"2 -308 OFFCURVE",
"-32 -355 CURVE",
"84 -487 LINE",
"186 -382 OFFCURVE",
"238 -250 OFFCURVE",
"238 -78 CURVE SMOOTH"
);
}
);
width = 367;
}
);
leftMetricsKey = "=reh-ar";
unicode = 088E;
}
{
glyphname = righttoleftmark;
layers = (
{
layerId = "307C4A58-79B8-4138-817C-FBEE21722E1A";
paths = (
{
closed = 1;
nodes = (
"17 727 LINE",
"-147 727 LINE",
"-81 790 LINE",
"-104 814 LINE",
"-210 709 LINE",
"-104 604 LINE",
"-81 628 LINE",
"-147 692 LINE",
"-18 692 LINE",
"-18 89 LINE",
"17 89 LINE"
);
}
);
userData = {
assembly = "PUSHB[ ]	/* 6 values pushed */
5 10 1 7 2 10 
SVTCA[0]	/* SetFreedomAndProjectionVectorToAxis */
MDAP[1]	/* MoveDirectAbsPt */
SHP[1]	/* ShiftPointByLastPoint */
SHP[1]	/* ShiftPointByLastPoint */
MDAP[1]	/* MoveDirectAbsPt */
SRP2[ ]	/* SetRefPoint2 */
IP[ ]	/* InterpolatePts */
IUP[1]	/* InterpolateUntPts */
IUP[0]	/* InterpolateUntPts */";
};
width = 0;
},
{
layerId = "15908E2C-AB74-4DC1-B0E7-8741EE8F4DA5";
paths = (
{
closed = 1;
nodes = (
"17 727 LINE",
"-147 727 LINE",
"-81 790 LINE",
"-104 814 LINE",
"-210 709 LINE",
"-104 604 LINE",
"-81 628 LINE",
"-147 692 LINE",
"-18 692 LINE",
"-18 89 LINE",
"17 89 LINE"
);
}
);
userData = {
assembly = "PUSHB[ ]	/* 6 values pushed */
5 10 1 7 2 10 
SVTCA[0]	/* SetFreedomAndProjectionVectorToAxis */
MDAP[1]	/* MoveDirectAbsPt */
SHP[1]	/* ShiftPointByLastPoint */
SHP[1]	/* ShiftPointByLastPoint */
MDAP[1]	/* MoveDirectAbsPt */
SRP2[ ]	/* SetRefPoint2 */
IP[ ]	/* InterpolatePts */
IUP[1]	/* InterpolateUntPts */
IUP[0]	/* InterpolateUntPts */";
};
width = 0;
},
{
layerId = "410295A1-92BC-4707-ABFC-13885E60878B";
paths = (
{
closed = 1;
nodes = (
"17 727 LINE",
"-147 727 LINE",
"-81 790 LINE",
"-104 814 LINE",
"-210 709 LINE",
"-104 604 LINE",
"-81 628 LINE",
"-147 692 LINE",
"-18 692 LINE",
"-18 89 LINE",
"17 89 LINE"
);
}
);
width = 0;
},
{
layerId = "DCD2D043-4E01-4B5D-9248-443A06E88532";
paths = (
{
closed = 1;
nodes = (
"17 727 LINE",
"-147 727 LINE",
"-81 790 LINE",
"-104 814 LINE",
"-210 709 LINE",
"-104 604 LINE",
"-81 628 LINE",
"-147 692 LINE",
"-18 692 LINE",
"-18 89 LINE",
"17 89 LINE"
);
}
);
width = 0;
}
);
note = uni200F;
unicode = 200F;
}
{
glyphname = zerowidthnonjoiner;
layers = (
{
layerId = "307C4A58-79B8-4138-817C-FBEE21722E1A";
paths = (
{
closed = 1;
nodes = (
"-18 814 LINE",
"-18 89 LINE",
"18 89 LINE",
"18 814 LINE"
);
}
);
userData = {
assembly = "PUSHB[ ]	/* 2 values pushed */
2 3 
SVTCA[0]	/* SetFreedomAndProjectionVectorToAxis */
MDAP[1]	/* MoveDirectAbsPt */
MDAP[1]	/* MoveDirectAbsPt */
IUP[1]	/* InterpolateUntPts */
IUP[0]	/* InterpolateUntPts */";
};
width = 0;
},
{
layerId = "15908E2C-AB74-4DC1-B0E7-8741EE8F4DA5";
paths = (
{
closed = 1;
nodes = (
"-18 814 LINE",
"-18 89 LINE",
"18 89 LINE",
"18 814 LINE"
);
}
);
userData = {
assembly = "PUSHB[ ]	/* 2 values pushed */
2 3 
SVTCA[0]	/* SetFreedomAndProjectionVectorToAxis */
MDAP[1]	/* MoveDirectAbsPt */
MDAP[1]	/* MoveDirectAbsPt */
IUP[1]	/* InterpolateUntPts */
IUP[0]	/* InterpolateUntPts */";
};
width = 0;
},
{
layerId = "410295A1-92BC-4707-ABFC-13885E60878B";
paths = (
{
closed = 1;
nodes = (
"-18 814 LINE",
"-18 89 LINE",
"18 89 LINE",
"18 814 LINE"
);
}
);
width = 0;
},
{
layerId = "DCD2D043-4E01-4B5D-9248-443A06E88532";
paths = (
{
closed = 1;
nodes = (
"-18 814 LINE",
"-18 89 LINE",
"18 89 LINE",
"18 814 LINE"
);
}
);
width = 0;
}
);
note = uni200C;
unicode = 200C;
}
{
glyphname = semicolonreversed;
layers = (
{
layerId = "15908E2C-AB74-4DC1-B0E7-8741EE8F4DA5";
paths = (
{
closed = 1;
nodes = (
"73 35 OFFCURVE",
"109 -58 OFFCURVE",
"141 -129 CURVE",
"207 -129 LINE",
"188 -54 OFFCURVE",
"166 46 OFFCURVE",
"156 116 CURVE",
"62 116 LINE",
"55 105 LINE"
);
},
{
closed = 1;
nodes = (
"168 532 OFFCURVE",
"141 550 OFFCURVE",
"107 550 CURVE SMOOTH",
"72 550 OFFCURVE",
"44 532 OFFCURVE",
"44 482 CURVE SMOOTH",
"44 434 OFFCURVE",
"72 414 OFFCURVE",
"107 414 CURVE SMOOTH",
"141 414 OFFCURVE",
"168 434 OFFCURVE",
"168 482 CURVE SMOOTH"
);
}
);
userData = {
com.schriftgestaltung.Glyphs.category = Punctuation;
com.schriftgestaltung.Glyphs.subCategory = Other;
};
width = 237;
},
{
layerId = "410295A1-92BC-4707-ABFC-13885E60878B";
paths = (
{
closed = 1;
nodes = (
"128 30 OFFCURVE",
"150 -60 OFFCURVE",
"178 -129 CURVE",
"200 -129 LINE",
"171 -32 OFFCURVE",
"155 40 OFFCURVE",
"144 116 CURVE",
"116 116 LINE",
"113 104 LINE"
);
},
{
closed = 1;
nodes = (
"153 517 OFFCURVE",
"148 532 OFFCURVE",
"128 532 CURVE SMOOTH",
"104 532 OFFCURVE",
"101 517 OFFCURVE",
"101 501 CURVE SMOOTH",
"101 484 OFFCURVE",
"104 470 OFFCURVE",
"128 470 CURVE SMOOTH",
"148 470 OFFCURVE",
"153 484 OFFCURVE",
"153 501 CURVE SMOOTH"
);
}
);
userData = {
com.schriftgestaltung.Glyphs.category = Punctuation;
com.schriftgestaltung.Glyphs.subCategory = Other;
};
width = 239;
},
{
layerId = "307C4A58-79B8-4138-817C-FBEE21722E1A";
paths = (
{
closed = 1;
nodes = (
"79 34 OFFCURVE",
"114 -56 OFFCURVE",
"147 -129 CURVE",
"254 -129 LINE",
"235 -50 OFFCURVE",
"215 47 OFFCURVE",
"205 116 CURVE",
"68 116 LINE",
"61 105 LINE"
);
},
{
closed = 1;
nodes = (
"228 534 OFFCURVE",
"190 556 OFFCURVE",
"142 556 CURVE SMOOTH",
"96 556 OFFCURVE",
"57 534 OFFCURVE",
"57 473 CURVE SMOOTH",
"57 414 OFFCURVE",
"96 390 OFFCURVE",
"142 390 CURVE SMOOTH",
"190 390 OFFCURVE",
"228 414 OFFCURVE",
"228 473 CURVE"
);
}
);
userData = {
com.schriftgestaltung.Glyphs.category = Punctuation;
com.schriftgestaltung.Glyphs.subCategory = Other;
};
width = 285;
},
{
associatedMasterId = "410295A1-92BC-4707-ABFC-13885E60878B";
layerId = m004;
paths = (
{
closed = 1;
nodes = (
"128 30 OFFCURVE",
"150 -60 OFFCURVE",
"178 -129 CURVE",
"200 -129 LINE",
"171 -32 OFFCURVE",
"155 40 OFFCURVE",
"144 116 CURVE",
"116 116 LINE",
"113 104 LINE"
);
},
{
closed = 1;
nodes = (
"153 517 OFFCURVE",
"148 532 OFFCURVE",
"128 532 CURVE SMOOTH",
"104 532 OFFCURVE",
"101 517 OFFCURVE",
"101 501 CURVE SMOOTH",
"101 484 OFFCURVE",
"104 470 OFFCURVE",
"128 470 CURVE SMOOTH",
"148 470 OFFCURVE",
"153 484 OFFCURVE",
"153 501 CURVE SMOOTH"
);
}
);
userData = {
com.schriftgestaltung.Glyphs.category = Punctuation;
com.schriftgestaltung.Glyphs.subCategory = Other;
};
width = 239;
},
{
layerId = "DCD2D043-4E01-4B5D-9248-443A06E88532";
paths = (
{
closed = 1;
nodes = (
"65 63 OFFCURVE",
"100 -65 OFFCURVE",
"133 -139 CURVE",
"269 -139 LINE",
"250 -48 OFFCURVE",
"230 66 OFFCURVE",
"221 146 CURVE",
"54 146 LINE",
"47 135 LINE"
);
},
{
closed = 1;
nodes = (
"252 535 OFFCURVE",
"206 560 OFFCURVE",
"149 560 CURVE SMOOTH",
"95 560 OFFCURVE",
"48 535 OFFCURVE",
"48 467 CURVE SMOOTH",
"48 400 OFFCURVE",
"95 373 OFFCURVE",
"149 373 CURVE SMOOTH",
"206 373 OFFCURVE",
"252 400 OFFCURVE",
"252 467 CURVE"
);
}
);
userData = {
com.schriftgestaltung.Glyphs.category = Punctuation;
com.schriftgestaltung.Glyphs.subCategory = Other;
};
width = 297;
}
);
unicode = 204F;
}
{
glyphname = "number-ar";
layers = (
{
layerId = "307C4A58-79B8-4138-817C-FBEE21722E1A";
paths = (
{
closed = 1;
nodes = (
"844 -120 LINE",
"734 -120 LINE",
"734 -79 OFFCURVE",
"748 -38 OFFCURVE",
"776 5 CURVE",
"676 70 LINE",
"635 16 OFFCURVE",
"614 -47 OFFCURVE",
"614 -120 CURVE",
"20 -120 LINE",
"20 -195 OFFCURVE",
"61 -240 OFFCURVE",
"130 -240 CURVE SMOOTH",
"844 -240 LINE"
);
}
);
userData = {
assembly = "NPUSHB[ ]	/* 17 values pushed */
10 5 4 5 11 3 13 12 10 4 1 4 70 89 7 1 27 
SVTCA[0]	/* SetFreedomAndProjectionVectorToAxis */
MIAP[1]	/* MoveIndirectAbsPt */
MDRP[00100]	/* MoveDirectRelPt */
CALL[ ]	/* CallFunction */
SRP1[ ]	/* SetRefPoint1 */
SVTCA[0]	/* SetFreedomAndProjectionVectorToAxis */
SHP[1]	/* ShiftPointByLastPoint */
SRP1[ ]	/* SetRefPoint1 */
SRP2[ ]	/* SetRefPoint2 */
SVTCA[1]	/* SetFreedomAndProjectionVectorToAxis */
SLOOP[ ]	/* SetLoopVariable */
IP[ ]	/* InterpolatePts */
SRP1[ ]	/* SetRefPoint1 */
SHP[1]	/* ShiftPointByLastPoint */
IUP[1]	/* InterpolateUntPts */
IUP[0]	/* InterpolateUntPts */";
};
width = 864;
},
{
layerId = "15908E2C-AB74-4DC1-B0E7-8741EE8F4DA5";
paths = (
{
closed = 1;
nodes = (
"858 -115 LINE",
"748 -115 LINE",
"748 -74 OFFCURVE",
"762 -33 OFFCURVE",
"790 10 CURVE",
"715 54 LINE",
"680 8 OFFCURVE",
"662 -48 OFFCURVE",
"662 -115 CURVE",
"34 -115 LINE",
"34 -168 OFFCURVE",
"54 -194 OFFCURVE",
"94 -194 CURVE SMOOTH",
"858 -194 LINE"
);
}
);
userData = {
assembly = "NPUSHB[ ]	/* 16 values pushed */
9 4 3 4 10 3 12 11 9 3 1 3 70 89 6 1 
SVTCA[0]	/* SetFreedomAndProjectionVectorToAxis */
MDAP[1]	/* MoveDirectAbsPt */
MDRP[01100]	/* MoveDirectRelPt */
CALL[ ]	/* CallFunction */
SRP1[ ]	/* SetRefPoint1 */
SVTCA[0]	/* SetFreedomAndProjectionVectorToAxis */
SHP[1]	/* ShiftPointByLastPoint */
SRP1[ ]	/* SetRefPoint1 */
SRP2[ ]	/* SetRefPoint2 */
SVTCA[1]	/* SetFreedomAndProjectionVectorToAxis */
SLOOP[ ]	/* SetLoopVariable */
IP[ ]	/* InterpolatePts */
SRP1[ ]	/* SetRefPoint1 */
SHP[1]	/* ShiftPointByLastPoint */
IUP[1]	/* InterpolateUntPts */
IUP[0]	/* InterpolateUntPts */";
};
width = 908;
},
{
layerId = "410295A1-92BC-4707-ABFC-13885E60878B";
paths = (
{
closed = 1;
nodes = (
"872 -110 LINE",
"762 -110 LINE",
"762 -69 OFFCURVE",
"777 -21 OFFCURVE",
"805 14 CURVE",
"788 32 LINE",
"759 2 OFFCURVE",
"741 -50 OFFCURVE",
"741 -110 CURVE",
"48 -110 LINE",
"48 -126 OFFCURVE",
"51 -134 OFFCURVE",
"67 -134 CURVE SMOOTH",
"872 -134 LINE"
);
}
);
width = 952;
},
{
layerId = "DCD2D043-4E01-4B5D-9248-443A06E88532";
paths = (
{
closed = 1;
nodes = (
"844 -123 LINE",
"734 -123 LINE",
"734 -83 OFFCURVE",
"748 -41 OFFCURVE",
"778 5 CURVE",
"661 84 LINE",
"614 21 OFFCURVE",
"591 -47 OFFCURVE",
"591 -123 CURVE",
"20 -123 LINE",
"20 -213 OFFCURVE",
"74 -271 OFFCURVE",
"163 -271 CURVE SMOOTH",
"844 -271 LINE"
);
}
);
width = 864;
}
);
note = uni0600;
unicode = 0600;
}
{
glyphname = "footnotemarker-ar";
layers = (
{
anchors = (
{
name = digits;
position = "{620, 0}";
}
);
layerId = "307C4A58-79B8-4138-817C-FBEE21722E1A";
paths = (
{
closed = 1;
nodes = (
"458 -60 LINE",
"425 72 OFFCURVE",
"327 167 OFFCURVE",
"222 167 CURVE SMOOTH",
"118 167 OFFCURVE",
"50 103 OFFCURVE",
"50 2 CURVE SMOOTH",
"50 -119 OFFCURVE",
"138 -180 OFFCURVE",
"314 -180 CURVE SMOOTH",
"1083 -180 LINE SMOOTH",
"1156 -180 OFFCURVE",
"1193 -140 OFFCURVE",
"1193 -60 CURVE"
);
},
{
closed = 1;
nodes = (
"274 45 OFFCURVE",
"309 17 OFFCURVE",
"337 -60 CURVE",
"276 -60 OFFCURVE",
"234 -54 OFFCURVE",
"211 -43 CURVE SMOOTH",
"188 -32 OFFCURVE",
"176 -17 OFFCURVE",
"176 4 CURVE SMOOTH",
"176 32 OFFCURVE",
"195 45 OFFCURVE",
"222 45 CURVE SMOOTH"
);
}
);
userData = {
assembly = "NPUSHB[ ]	/* 23 values pushed */
11 18 15 5 5 18 0 3 22 21 11 18 3 18 70 89 8 12 70 89 8 3 27 
SVTCA[0]	/* SetFreedomAndProjectionVectorToAxis */
MIAP[1]	/* MoveIndirectAbsPt */
MDRP[00100]	/* MoveDirectRelPt */
CALL[ ]	/* CallFunction */
CALL[ ]	/* CallFunction */
SRP1[ ]	/* SetRefPoint1 */
SVTCA[0]	/* SetFreedomAndProjectionVectorToAxis */
SHP[1]	/* ShiftPointByLastPoint */
SRP1[ ]	/* SetRefPoint1 */
SRP2[ ]	/* SetRefPoint2 */
SVTCA[1]	/* SetFreedomAndProjectionVectorToAxis */
SLOOP[ ]	/* SetLoopVariable */
IP[ ]	/* InterpolatePts */
SRP1[ ]	/* SetRefPoint1 */
SHP[1]	/* ShiftPointByLastPoint */
SRP1[ ]	/* SetRefPoint1 */
SHP[1]	/* ShiftPointByLastPoint */
IUP[1]	/* InterpolateUntPts */
IUP[0]	/* InterpolateUntPts */";
};
width = 1243;
},
{
anchors = (
{
name = digits;
position = "{600, 0}";
}
);
layerId = "15908E2C-AB74-4DC1-B0E7-8741EE8F4DA5";
paths = (
{
closed = 1;
nodes = (
"432 -60 LINE",
"400 75 OFFCURVE",
"315 157 OFFCURVE",
"202 157 CURVE SMOOTH",
"111 157 OFFCURVE",
"50 102 OFFCURVE",
"50 22 CURVE SMOOTH",
"50 -86 OFFCURVE",
"125 -139 OFFCURVE",
"294 -139 CURVE SMOOTH",
"1113 -139 LINE SMOOTH",
"1157 -139 OFFCURVE",
"1173 -116 OFFCURVE",
"1173 -60 CURVE"
);
},
{
closed = 1;
nodes = (
"266 75 OFFCURVE",
"312 35 OFFCURVE",
"344 -60 CURVE",
"277 -60 OFFCURVE",
"225 -52 OFFCURVE",
"190 -39 CURVE SMOOTH",
"155 -26 OFFCURVE",
"137 -7 OFFCURVE",
"137 17 CURVE SMOOTH",
"137 56 OFFCURVE",
"159 75 OFFCURVE",
"202 75 CURVE SMOOTH"
);
}
);
userData = {
assembly = "NPUSHB[ ]	/* 22 values pushed */
16 7 13 19 0 19 7 3 22 23 10 14 70 89 10 19 13 4 13 70 89 4 
SVTCA[0]	/* SetFreedomAndProjectionVectorToAxis */
MDAP[1]	/* MoveDirectAbsPt */
CALL[ ]	/* CallFunction */
SRP1[ ]	/* SetRefPoint1 */
SVTCA[0]	/* SetFreedomAndProjectionVectorToAxis */
SHP[1]	/* ShiftPointByLastPoint */
RTG[ ]	/* RoundToGrid */
MDAP[1]	/* MoveDirectAbsPt */
CALL[ ]	/* CallFunction */
SRP1[ ]	/* SetRefPoint1 */
SRP2[ ]	/* SetRefPoint2 */
SVTCA[1]	/* SetFreedomAndProjectionVectorToAxis */
SLOOP[ ]	/* SetLoopVariable */
IP[ ]	/* InterpolatePts */
SRP1[ ]	/* SetRefPoint1 */
SHP[1]	/* ShiftPointByLastPoint */
SRP1[ ]	/* SetRefPoint1 */
SHP[1]	/* ShiftPointByLastPoint */
IUP[1]	/* InterpolateUntPts */
IUP[0]	/* InterpolateUntPts */";
};
width = 1223;
},
{
anchors = (
{
name = digits;
position = "{600, 0}";
}
);
layerId = "410295A1-92BC-4707-ABFC-13885E60878B";
paths = (
{
closed = 1;
nodes = (
"406 -60 LINE",
"360 85 OFFCURVE",
"281 147 OFFCURVE",
"182 147 CURVE SMOOTH",
"108 147 OFFCURVE",
"50 101 OFFCURVE",
"50 42 CURVE SMOOTH",
"50 -46 OFFCURVE",
"112 -84 OFFCURVE",
"293 -84 CURVE SMOOTH",
"1143 -84 LINE SMOOTH",
"1158 -84 OFFCURVE",
"1153 -78 OFFCURVE",
"1153 -60 CURVE"
);
},
{
closed = 1;
nodes = (
"270 123 OFFCURVE",
"337 69 OFFCURVE",
"383 -60 CURVE",
"256 -60 OFFCURVE",
"225 -59 OFFCURVE",
"178 -52 CURVE SMOOTH",
"101 -40 OFFCURVE",
"74 -10 OFFCURVE",
"74 38 CURVE SMOOTH",
"74 86 OFFCURVE",
"116 123 OFFCURVE",
"182 123 CURVE SMOOTH"
);
}
);
width = 1204;
},
{
anchors = (
{
name = digits;
position = "{670, 0}";
}
);
layerId = "DCD2D043-4E01-4B5D-9248-443A06E88532";
paths = (
{
closed = 1;
nodes = (
"496 -60 LINE",
"462 78 OFFCURVE",
"372 182 OFFCURVE",
"238 182 CURVE SMOOTH",
"137 182 OFFCURVE",
"50 104 OFFCURVE",
"50 -11 CURVE SMOOTH",
"50 -141 OFFCURVE",
"147 -207 OFFCURVE",
"328 -207 CURVE SMOOTH",
"1136 -207 LINE SMOOTH",
"1196 -207 OFFCURVE",
"1247 -156 OFFCURVE",
"1247 -60 CURVE"
);
},
{
closed = 1;
nodes = (
"290 33 OFFCURVE",
"330 4 OFFCURVE",
"353 -60 CURVE",
"267 -60 OFFCURVE",
"242 -54 OFFCURVE",
"224 -45 CURVE SMOOTH",
"208 -37 OFFCURVE",
"202 -25 OFFCURVE",
"202 -6 CURVE SMOOTH",
"202 17 OFFCURVE",
"222 33 OFFCURVE",
"248 33 CURVE SMOOTH"
);
}
);
width = 1297;
}
);
leftMetricsKey = "=50";
note = uni0602;
rightMetricsKey = "=50";
unicode = 0602;
}
{
glyphname = "samvat-ar";
layers = (
{
anchors = (
{
name = digits;
position = "{500, 0}";
}
);
layerId = "410295A1-92BC-4707-ABFC-13885E60878B";
paths = (
{
closed = 1;
nodes = (
"1802 22 LINE SMOOTH",
"1735 22 OFFCURVE",
"1689 35 OFFCURVE",
"1653 85 CURVE",
"1655 92 OFFCURVE",
"1658 107 OFFCURVE",
"1658 133 CURVE SMOOTH",
"1658 395 LINE",
"1634 395 LINE",
"1634 130 LINE SMOOTH",
"1634 58 OFFCURVE",
"1592 12 OFFCURVE",
"1519 12 CURVE SMOOTH",
"1439 12 OFFCURVE",
"1415 64 OFFCURVE",
"1388 139 CURVE SMOOTH",
"1367 195 OFFCURVE",
"1347 244 OFFCURVE",
"1279 244 CURVE SMOOTH",
"1203 244 OFFCURVE",
"1141 154 OFFCURVE",
"1141 78 CURVE SMOOTH",
"1141 18 OFFCURVE",
"1184 -25 OFFCURVE",
"1306 -63 CURVE",
"1333 -60 LINE",
"50 -60 LINE",
"54 -85 LINE",
"1393 -85 LINE",
"1398 -62 LINE",
"1299 -42 OFFCURVE",
"1165 -9 OFFCURVE",
"1165 80 CURVE SMOOTH",
"1165 144 OFFCURVE",
"1216 221 OFFCURVE",
"1278 221 CURVE SMOOTH",
"1333 221 OFFCURVE",
"1355 171 OFFCURVE",
"1371 119 CURVE SMOOTH",
"1397 39 OFFCURVE",
"1435 -12 OFFCURVE",
"1519 -12 CURVE SMOOTH",
"1582 -12 OFFCURVE",
"1622 18 OFFCURVE",
"1642 64 CURVE",
"1676 11 OFFCURVE",
"1740 -2 OFFCURVE",
"1799 -2 CURVE SMOOTH",
"1871 -2 LINE",
"1871 473 LINE",
"1847 471 LINE",
"1847 22 LINE"
);
}
);
width = 1956;
},
{
anchors = (
{
name = digits;
position = "{540, 0}";
}
);
layerId = "15908E2C-AB74-4DC1-B0E7-8741EE8F4DA5";
paths = (
{
closed = 1;
nodes = (
"2033 66 LINE SMOOTH",
"1972 66 OFFCURVE",
"1936 87 OFFCURVE",
"1903 144 CURVE",
"1903 155 OFFCURVE",
"1904 166 OFFCURVE",
"1904 177 CURVE SMOOTH",
"1904 395 LINE",
"1819 395 LINE",
"1819 182 LINE SMOOTH",
"1819 109 OFFCURVE",
"1782 59 OFFCURVE",
"1720 59 CURVE SMOOTH",
"1649 59 OFFCURVE",
"1608 133 OFFCURVE",
"1571 194 CURVE SMOOTH",
"1530 260 OFFCURVE",
"1481 319 OFFCURVE",
"1404 319 CURVE SMOOTH",
"1307 319 OFFCURVE",
"1218 219 OFFCURVE",
"1218 142 CURVE SMOOTH",
"1218 54 OFFCURVE",
"1288 -8 OFFCURVE",
"1415 -72 CURVE",
"1411 -60 LINE",
"50 -60 LINE",
"67 -144 LINE",
"1541 -144 LINE",
"1562 -79 LINE",
"1419 -1 OFFCURVE",
"1305 67 OFFCURVE",
"1305 142 CURVE SMOOTH",
"1305 188 OFFCURVE",
"1363 236 OFFCURVE",
"1398 236 CURVE SMOOTH",
"1448 236 OFFCURVE",
"1495 160 OFFCURVE",
"1522 120 CURVE SMOOTH",
"1577 39 OFFCURVE",
"1611 -22 OFFCURVE",
"1723 -22 CURVE SMOOTH",
"1788 -22 OFFCURVE",
"1840 6 OFFCURVE",
"1872 58 CURVE",
"1925 5 OFFCURVE",
"1973 -12 OFFCURVE",
"2033 -12 CURVE SMOOTH",
"2179 -12 LINE",
"2179 473 LINE",
"2094 473 LINE",
"2094 66 LINE"
);
}
);
width = 2264;
},
{
anchors = (
{
name = digits;
position = "{570, 0}";
}
);
layerId = "307C4A58-79B8-4138-817C-FBEE21722E1A";
paths = (
{
closed = 1;
nodes = (
"2183 137 LINE SMOOTH",
"2129 137 OFFCURVE",
"2103 151 OFFCURVE",
"2071 196 CURVE",
"2073 210 OFFCURVE",
"2074 225 OFFCURVE",
"2074 241 CURVE SMOOTH",
"2074 434 LINE",
"1925 434 LINE",
"1925 270 LINE SMOOTH",
"1925 182 OFFCURVE",
"1896 142 OFFCURVE",
"1831 142 CURVE SMOOTH",
"1764 142 OFFCURVE",
"1730 196 OFFCURVE",
"1694 252 CURVE SMOOTH",
"1645 327 OFFCURVE",
"1593 392 OFFCURVE",
"1502 392 CURVE SMOOTH",
"1382 392 OFFCURVE",
"1240 263 OFFCURVE",
"1240 147 CURVE SMOOTH",
"1240 77 OFFCURVE",
"1285 19 OFFCURVE",
"1462 -85 CURVE",
"1513 -60 LINE",
"50 -60 LINE",
"68 -183 LINE",
"1598 -183 LINE",
"1623 -66 LINE",
"1462 24 OFFCURVE",
"1383 94 OFFCURVE",
"1383 161 CURVE SMOOTH",
"1383 206 OFFCURVE",
"1437 259 OFFCURVE",
"1483 259 CURVE SMOOTH",
"1533 259 OFFCURVE",
"1585 187 OFFCURVE",
"1612 147 CURVE SMOOTH",
"1672 56 OFFCURVE",
"1714 7 OFFCURVE",
"1831 7 CURVE SMOOTH",
"1924 7 OFFCURVE",
"1979 33 OFFCURVE",
"2028 92 CURVE",
"2068 42 OFFCURVE",
"2121 17 OFFCURVE",
"2186 17 CURVE SMOOTH",
"2394 17 LINE",
"2394 512 LINE",
"2245 512 LINE",
"2245 137 LINE"
);
}
);
width = 2479;
},
{
anchors = (
{
name = digits;
position = "{570, 0}";
}
);
layerId = "DCD2D043-4E01-4B5D-9248-443A06E88532";
paths = (
{
closed = 1;
nodes = (
"2344 163 LINE SMOOTH",
"2298 163 OFFCURVE",
"2277 174 OFFCURVE",
"2244 209 CURVE",
"2247 225 OFFCURVE",
"2248 243 OFFCURVE",
"2248 262 CURVE SMOOTH",
"2248 439 LINE",
"2056 439 LINE",
"2056 279 LINE SMOOTH",
"2056 182 OFFCURVE",
"2030 153 OFFCURVE",
"1967 153 CURVE SMOOTH",
"1896 153 OFFCURVE",
"1851 226 OFFCURVE",
"1817 278 CURVE SMOOTH",
"1754 374 OFFCURVE",
"1706 424 OFFCURVE",
"1617 424 CURVE SMOOTH",
"1503 424 OFFCURVE",
"1342 300 OFFCURVE",
"1342 174 CURVE SMOOTH",
"1342 82 OFFCURVE",
"1419 -16 OFFCURVE",
"1587 -106 CURVE",
"1606 -60 LINE",
"50 -60 LINE",
"74 -215 LINE",
"1750 -215 LINE",
"1792 -85 LINE",
"1590 14 OFFCURVE",
"1520 114 OFFCURVE",
"1520 172 CURVE SMOOTH",
"1520 218 OFFCURVE",
"1572 255 OFFCURVE",
"1601 255 CURVE SMOOTH",
"1649 255 OFFCURVE",
"1690 190 OFFCURVE",
"1717 150 CURVE SMOOTH",
"1783 51 OFFCURVE",
"1832 5 OFFCURVE",
"1973 5 CURVE SMOOTH",
"2094 5 OFFCURVE",
"2153 31 OFFCURVE",
"2194 93 CURVE",
"2232 41 OFFCURVE",
"2277 15 OFFCURVE",
"2349 15 CURVE SMOOTH",
"2598 15 LINE",
"2598 517 LINE",
"2406 517 LINE",
"2406 163 LINE"
);
}
);
width = 2683;
}
);
rightMetricsKey = "seen-ar";
unicode = 0604;
}
{
glyphname = "cuberoot-ar";
layers = (
{
components = (
{
name = radical.rtlm;
}
);
layerId = "410295A1-92BC-4707-ABFC-13885E60878B";
paths = (
{
closed = 1;
nodes = (
"278 445 LINE",
"300 445 LINE",
"245 625 LINE",
"250 621 OFFCURVE",
"257 620 OFFCURVE",
"264 620 CURVE SMOOTH",
"273 620 OFFCURVE",
"282 623 OFFCURVE",
"288 629 CURVE",
"295 624 OFFCURVE",
"308 619 OFFCURVE",
"326 619 CURVE SMOOTH",
"369 619 OFFCURVE",
"390 648 OFFCURVE",
"390 702 CURVE SMOOTH",
"390 708 LINE",
"369 708 LINE",
"369 683 OFFCURVE",
"365 666 OFFCURVE",
"359 656 CURVE SMOOTH",
"352 645 OFFCURVE",
"342 638 OFFCURVE",
"325 638 CURVE SMOOTH",
"318 638 OFFCURVE",
"308 639 OFFCURVE",
"300 644 CURVE",
"309 658 OFFCURVE",
"313 678 OFFCURVE",
"313 708 CURVE",
"291 708 LINE",
"291 690 OFFCURVE",
"289 668 OFFCURVE",
"283 656 CURVE SMOOTH",
"277 644 OFFCURVE",
"270 639 OFFCURVE",
"258 639 CURVE SMOOTH",
"251 639 OFFCURVE",
"240 641 OFFCURVE",
"237 651 CURVE SMOOTH",
"220 708 LINE",
"197 708 LINE"
);
}
);
width = 618;
},
{
components = (
{
name = radical.rtlm;
}
);
layerId = "15908E2C-AB74-4DC1-B0E7-8741EE8F4DA5";
paths = (
{
closed = 1;
nodes = (
"283 415 LINE",
"341 415 LINE",
"272 607 LINE",
"276 604 OFFCURVE",
"283 603 OFFCURVE",
"289 603 CURVE SMOOTH",
"296 603 OFFCURVE",
"306 606 OFFCURVE",
"312 613 CURVE",
"321 606 OFFCURVE",
"333 603 OFFCURVE",
"347 603 CURVE SMOOTH",
"391 603 OFFCURVE",
"409 630 OFFCURVE",
"409 699 CURVE SMOOTH",
"409 705 LINE",
"363 705 LINE",
"363 673 OFFCURVE",
"361 658 OFFCURVE",
"356 650 CURVE SMOOTH",
"352 643 OFFCURVE",
"348 641 OFFCURVE",
"340 641 CURVE SMOOTH",
"335 641 OFFCURVE",
"328 641 OFFCURVE",
"326 643 CURVE",
"329 654 OFFCURVE",
"329 674 OFFCURVE",
"329 705 CURVE",
"283 705 LINE",
"283 703 OFFCURVE",
"283 662 OFFCURVE",
"281 654 CURVE SMOOTH",
"279 646 OFFCURVE",
"275 641 OFFCURVE",
"269 641 CURVE SMOOTH",
"266 641 OFFCURVE",
"263 641 OFFCURVE",
"261 642 CURVE",
"241 705 LINE",
"184 705 LINE"
);
}
);
width = 618;
},
{
components = (
{
name = radical.rtlm;
}
);
layerId = "307C4A58-79B8-4138-817C-FBEE21722E1A";
paths = (
{
closed = 1;
nodes = (
"269 494 LINE",
"357 494 LINE",
"308 634 LINE",
"318 627 OFFCURVE",
"325 624 OFFCURVE",
"333 624 CURVE SMOOTH",
"342 624 OFFCURVE",
"352 628 OFFCURVE",
"357 639 CURVE",
"366 630 OFFCURVE",
"377 625 OFFCURVE",
"390 625 CURVE SMOOTH",
"424 625 OFFCURVE",
"436 654 OFFCURVE",
"436 734 CURVE SMOOTH",
"436 740 LINE",
"378 740 LINE",
"378 707 OFFCURVE",
"378 689 OFFCURVE",
"376 683 CURVE SMOOTH",
"374 677 OFFCURVE",
"371 675 OFFCURVE",
"367 675 CURVE SMOOTH",
"364 675 OFFCURVE",
"361 676 OFFCURVE",
"359 678 CURVE",
"357 687 OFFCURVE",
"357 732 OFFCURVE",
"357 740 CURVE",
"301 740 LINE",
"301 730 OFFCURVE",
"301 696 OFFCURVE",
"301 689 CURVE SMOOTH",
"301 683 OFFCURVE",
"300 677 OFFCURVE",
"296 677 CURVE SMOOTH",
"293 677 OFFCURVE",
"291 678 OFFCURVE",
"288 685 CURVE",
"271 740 LINE",
"187 740 LINE"
);
}
);
width = 630;
},
{
components = (
{
name = radical.rtlm;
}
);
layerId = "DCD2D043-4E01-4B5D-9248-443A06E88532";
paths = (
{
closed = 1;
nodes = (
"324 523 LINE",
"432 523 LINE",
"372 672 LINE",
"388 662 OFFCURVE",
"396 660 OFFCURVE",
"405 660 CURVE SMOOTH",
"415 660 OFFCURVE",
"427 665 OFFCURVE",
"433 677 CURVE",
"447 665 OFFCURVE",
"458 661 OFFCURVE",
"473 661 CURVE SMOOTH",
"513 661 OFFCURVE",
"527 689 OFFCURVE",
"527 775 CURVE SMOOTH",
"527 782 LINE",
"457 782 LINE",
"457 746 OFFCURVE",
"456 729 OFFCURVE",
"453 723 CURVE SMOOTH",
"451 719 OFFCURVE",
"448 717 OFFCURVE",
"445 717 CURVE SMOOTH",
"440 717 OFFCURVE",
"437 719 OFFCURVE",
"435 721 CURVE",
"433 727 OFFCURVE",
"432 750 OFFCURVE",
"432 782 CURVE",
"365 782 LINE",
"365 746 OFFCURVE",
"365 735 OFFCURVE",
"365 732 CURVE SMOOTH",
"365 726 OFFCURVE",
"364 721 OFFCURVE",
"358 721 CURVE SMOOTH",
"356 721 OFFCURVE",
"352 722 OFFCURVE",
"349 729 CURVE",
"330 782 LINE",
"227 782 LINE"
);
}
);
width = 700;
}
);
leftMetricsKey = "=10";
rightMetricsKey = "=22";
unicode = 0606;
}
{
glyphname = "perthousand-ar";
layers = (
{
components = (
{
name = "percent-ar";
}
);
layerId = "410295A1-92BC-4707-ABFC-13885E60878B";
paths = (
{
closed = 1;
nodes = (
"511 82 LINE",
"570 82 LINE",
"570 141 LINE",
"511 141 LINE"
);
}
);
width = 620;
},
{
components = (
{
name = "percent-ar";
}
);
layerId = "15908E2C-AB74-4DC1-B0E7-8741EE8F4DA5";
paths = (
{
closed = 1;
nodes = (
"546 81 LINE",
"651 81 LINE",
"651 186 LINE",
"546 186 LINE"
);
}
);
width = 701;
},
{
components = (
{
name = "percent-ar";
}
);
layerId = "307C4A58-79B8-4138-817C-FBEE21722E1A";
paths = (
{
closed = 1;
nodes = (
"575 70 LINE",
"701 70 LINE",
"701 196 LINE",
"575 196 LINE"
);
}
);
width = 751;
},
{
components = (
{
name = "percent-ar";
}
);
layerId = "DCD2D043-4E01-4B5D-9248-443A06E88532";
paths = (
{
closed = 1;
nodes = (
"608 70 LINE",
"748 70 LINE",
"748 210 LINE",
"608 210 LINE"
);
}
);
width = 798;
}
);
leftMetricsKey = "percent-ar";
rightMetricsKey = "percent-ar";
unicode = 0609;
}
{
glyphname = "sallallahouAlayheWassallamcomb-ar";
layers = (
{
anchors = (
{
name = _top.near;
position = "{111, 705}";
},
{
name = top.near;
position = "{116, 900}";
}
);
layerId = "307C4A58-79B8-4138-817C-FBEE21722E1A";
paths = (
{
closed = 1;
nodes = (
"44 719 OFFCURVE",
"57 737 OFFCURVE",
"66 756 CURVE",
"232 756 LINE",
"232 815 LINE SMOOTH",
"232 874 OFFCURVE",
"206 900 OFFCURVE",
"157 900 CURVE SMOOTH",
"114 900 OFFCURVE",
"85 880 OFFCURVE",
"66 841 CURVE",
"66 885 LINE",
"18 871 LINE",
"18 795 LINE SMOOTH",
"18 771 OFFCURVE",
"11 744 OFFCURVE",
"0 727 CURVE",
"25 702 LINE"
);
},
{
closed = 1;
nodes = (
"73 802 LINE",
"92 842 OFFCURVE",
"118 862 OFFCURVE",
"150 862 CURVE SMOOTH",
"178 862 OFFCURVE",
"192 847 OFFCURVE",
"192 816 CURVE SMOOTH",
"192 795 LINE",
"73 795 LINE"
);
}
);
width = 232;
},
{
anchors = (
{
name = _top.near;
position = "{113, 701}";
},
{
name = top.near;
position = "{114, 884}";
}
);
layerId = "15908E2C-AB74-4DC1-B0E7-8741EE8F4DA5";
paths = (
{
closed = 1;
nodes = (
"34 724 OFFCURVE",
"46 741 OFFCURVE",
"55 760 CURVE",
"212 760 LINE",
"212 807 LINE SMOOTH",
"212 854 OFFCURVE",
"189 884 OFFCURVE",
"143 884 CURVE SMOOTH",
"109 884 OFFCURVE",
"82 868 OFFCURVE",
"55 829 CURVE",
"55 878 LINE",
"21 868 LINE",
"21 783 LINE SMOOTH",
"21 766 OFFCURVE",
"14 747 OFFCURVE",
"0 726 CURVE",
"17 710 LINE"
);
},
{
closed = 1;
nodes = (
"55 795 LINE",
"78 832 OFFCURVE",
"108 852 OFFCURVE",
"137 852 CURVE SMOOTH",
"164 852 OFFCURVE",
"178 835 OFFCURVE",
"178 806 CURVE SMOOTH",
"178 791 LINE",
"55 791 LINE"
);
}
);
width = 212;
},
{
anchors = (
{
name = _top.near;
position = "{101, 718}";
},
{
name = top.near;
position = "{98, 868}";
}
);
layerId = "410295A1-92BC-4707-ABFC-13885E60878B";
paths = (
{
closed = 1;
nodes = (
"24 729 OFFCURVE",
"35 744 OFFCURVE",
"44 764 CURVE",
"178 764 LINE",
"178 799 LINE SMOOTH",
"178 854 OFFCURVE",
"150 868 OFFCURVE",
"123 868 CURVE SMOOTH",
"96 868 OFFCURVE",
"65 854 OFFCURVE",
"44 812 CURVE",
"44 871 LINE",
"24 865 LINE",
"24 771 LINE SMOOTH",
"24 760 OFFCURVE",
"17 749 OFFCURVE",
"0 725 CURVE",
"9 718 LINE"
);
},
{
closed = 1;
nodes = (
"45 789 LINE",
"69 824 OFFCURVE",
"93 842 OFFCURVE",
"117 842 CURVE SMOOTH",
"132 842 OFFCURVE",
"150 835 OFFCURVE",
"150 798 CURVE SMOOTH",
"150 787 LINE",
"45 787 LINE"
);
}
);
width = 178;
},
{
anchors = (
{
name = _top.near;
position = "{125, 693}";
},
{
name = top.near;
position = "{123, 921}";
}
);
layerId = "DCD2D043-4E01-4B5D-9248-443A06E88532";
paths = (
{
closed = 1;
nodes = (
"50 716 OFFCURVE",
"65 735 OFFCURVE",
"73 753 CURVE",
"249 753 LINE",
"249 811 LINE SMOOTH",
"249 883 OFFCURVE",
"213 913 OFFCURVE",
"167 913 CURVE SMOOTH",
"124 913 OFFCURVE",
"88 887 OFFCURVE",
"73 849 CURVE",
"73 900 LINE",
"16 883 LINE",
"16 803 LINE SMOOTH",
"16 775 OFFCURVE",
"9 743 OFFCURVE",
"0 728 CURVE",
"30 697 LINE"
);
},
{
closed = 1;
nodes = (
"78 807 LINE",
"100 842 OFFCURVE",
"125 864 OFFCURVE",
"152 864 CURVE SMOOTH",
"174 864 OFFCURVE",
"189 850 OFFCURVE",
"189 823 CURVE SMOOTH",
"189 799 LINE",
"78 799 LINE"
);
}
);
width = 249;
}
);
leftMetricsKey = "=0";
note = uni0610;
rightMetricsKey = "=0";
unicode = 0610;
}
{
glyphname = "rehHahabove-ar";
layers = (
{
anchors = (
{
name = _top.near;
position = "{0, 585}";
},
{
name = _top2;
position = "{0, 585}";
},
{
name = top.near;
position = "{-15, 891}";
}
);
layerId = "307C4A58-79B8-4138-817C-FBEE21722E1A";
paths = (
{
closed = 1;
nodes = (
"-109 629 LINE",
"-111 635 OFFCURVE",
"-112 639 OFFCURVE",
"-112 646 CURVE SMOOTH",
"-112 684 OFFCURVE",
"-73 700 OFFCURVE",
"-9 717 CURVE",
"0 704 OFFCURVE",
"10 694 OFFCURVE",
"22 685 CURVE",
"51 722 LINE",
"26 741 OFFCURVE",
"18 763 OFFCURVE",
"11 804 CURVE SMOOTH",
"3 853 OFFCURVE",
"-26 877 OFFCURVE",
"-77 877 CURVE SMOOTH",
"-112 877 OFFCURVE",
"-145 867 OFFCURVE",
"-166 856 CURVE",
"-145 814 LINE",
"-123 825 OFFCURVE",
"-104 831 OFFCURVE",
"-89 831 CURVE SMOOTH",
"-63 831 OFFCURVE",
"-46 817 OFFCURVE",
"-38 787 CURVE SMOOTH",
"-34 771 OFFCURVE",
"-30 761 OFFCURVE",
"-28 756 CURVE",
"-131 727 OFFCURVE",
"-167 692 OFFCURVE",
"-167 640 CURVE SMOOTH",
"-167 628 OFFCURVE",
"-164 616 OFFCURVE",
"-159 605 CURVE"
);
},
{
closed = 1;
nodes = (
"107 602 OFFCURVE",
"138 636 OFFCURVE",
"138 687 CURVE SMOOTH",
"138 881 LINE",
"81 866 LINE",
"81 690 LINE SMOOTH",
"81 663 OFFCURVE",
"67 649 OFFCURVE",
"48 649 CURVE SMOOTH",
"34 649 OFFCURVE",
"22 653 OFFCURVE",
"12 660 CURVE",
"-11 623 LINE",
"6 611 OFFCURVE",
"24 602 OFFCURVE",
"59 602 CURVE SMOOTH"
);
}
);
userData = {
assembly = "NPUSHB[ ]	/* 13 values pushed */
23 21 0 5 5 15 0 0 41 36 30 9 15 
SVTCA[0]	/* SetFreedomAndProjectionVectorToAxis */
MDAP[1]	/* MoveDirectAbsPt */
MDRP[01101]	/* MoveDirectRelPt */
MDAP[1]	/* MoveDirectAbsPt */
MDRP[01101]	/* MoveDirectRelPt */
MDRP[01100]	/* MoveDirectRelPt */
SHP[1]	/* ShiftPointByLastPoint */
MDAP[1]	/* MoveDirectAbsPt */
SRP2[ ]	/* SetRefPoint2 */
IP[ ]	/* InterpolatePts */
MDAP[1]	/* MoveDirectAbsPt */
SRP2[ ]	/* SetRefPoint2 */
IP[ ]	/* InterpolatePts */
SHP[1]	/* ShiftPointByLastPoint */
IUP[1]	/* InterpolateUntPts */
IUP[0]	/* InterpolateUntPts */";
};
width = 0;
},
{
anchors = (
{
name = _top.near;
position = "{0, 593}";
},
{
name = _top2;
position = "{0, 589}";
},
{
name = top.near;
position = "{-3, 882}";
}
);
layerId = "15908E2C-AB74-4DC1-B0E7-8741EE8F4DA5";
paths = (
{
closed = 1;
nodes = (
"-121 621 LINE",
"-124 626 OFFCURVE",
"-125 634 OFFCURVE",
"-125 643 CURVE SMOOTH",
"-125 689 OFFCURVE",
"-66 712 OFFCURVE",
"-5 730 CURVE",
"2 718 OFFCURVE",
"12 707 OFFCURVE",
"26 696 CURVE",
"52 724 LINE",
"32 738 OFFCURVE",
"23 752 OFFCURVE",
"14 788 CURVE SMOOTH",
"0 845 OFFCURVE",
"-20 869 OFFCURVE",
"-77 869 CURVE SMOOTH",
"-104 869 OFFCURVE",
"-137 861 OFFCURVE",
"-161 846 CURVE",
"-147 818 LINE",
"-122 831 OFFCURVE",
"-99 838 OFFCURVE",
"-77 838 CURVE SMOOTH",
"-45 838 OFFCURVE",
"-35 824 OFFCURVE",
"-25 786 CURVE SMOOTH",
"-22 775 OFFCURVE",
"-20 767 OFFCURVE",
"-19 762 CURVE",
"-118 731 OFFCURVE",
"-161 692 OFFCURVE",
"-161 640 CURVE SMOOTH",
"-161 625 OFFCURVE",
"-158 613 OFFCURVE",
"-153 603 CURVE"
);
},
{
closed = 1;
nodes = (
"102 610 OFFCURVE",
"127 644 OFFCURVE",
"127 697 CURVE SMOOTH",
"127 865 LINE",
"93 855 LINE",
"93 695 LINE SMOOTH",
"93 663 OFFCURVE",
"79 641 OFFCURVE",
"55 641 CURVE SMOOTH",
"46 641 OFFCURVE",
"36 643 OFFCURVE",
"25 648 CURVE",
"15 621 LINE",
"29 614 OFFCURVE",
"42 610 OFFCURVE",
"55 610 CURVE SMOOTH"
);
}
);
userData = {
assembly = "NPUSHB[ ]	/* 14 values pushed */
2 13 13 0 8 17 23 23 40 30 8 8 35 30 
SVTCA[0]	/* SetFreedomAndProjectionVectorToAxis */
MDAP[1]	/* MoveDirectAbsPt */
MDRP[01101]	/* MoveDirectRelPt */
SHP[1]	/* ShiftPointByLastPoint */
MDAP[1]	/* MoveDirectAbsPt */
SRP0[ ]	/* SetRefPoint0 */
MDRP[01100]	/* MoveDirectRelPt */
SHP[0]	/* ShiftPointByLastPoint */
MDAP[1]	/* MoveDirectAbsPt */
MDRP[01101]	/* MoveDirectRelPt */
SRP2[ ]	/* SetRefPoint2 */
IP[ ]	/* InterpolatePts */
IP[ ]	/* InterpolatePts */
SRP1[ ]	/* SetRefPoint1 */
SHP[1]	/* ShiftPointByLastPoint */
IUP[1]	/* InterpolateUntPts */
IUP[0]	/* InterpolateUntPts */";
};
width = 0;
},
{
anchors = (
{
name = _top.near;
position = "{0, 561}";
},
{
name = _top2;
position = "{0, 556}";
},
{
name = top.near;
position = "{1, 881}";
}
);
layerId = "410295A1-92BC-4707-ABFC-13885E60878B";
paths = (
{
closed = 1;
nodes = (
"-132 613 LINE",
"-135 618 OFFCURVE",
"-137 628 OFFCURVE",
"-137 640 CURVE SMOOTH",
"-137 699 OFFCURVE",
"-60 731 OFFCURVE",
"-4 752 CURVE",
"1 736 OFFCURVE",
"11 720 OFFCURVE",
"30 707 CURVE",
"44 720 LINE",
"28 730 OFFCURVE",
"13 742 OFFCURVE",
"6 780 CURVE SMOOTH",
"-3 828 OFFCURVE",
"-23 861 OFFCURVE",
"-77 861 CURVE SMOOTH",
"-96 861 OFFCURVE",
"-129 853 OFFCURVE",
"-156 836 CURVE",
"-149 820 LINE",
"-122 835 OFFCURVE",
"-94 843 OFFCURVE",
"-77 843 CURVE SMOOTH",
"-35 843 OFFCURVE",
"-22 817 OFFCURVE",
"-13 789 CURVE SMOOTH",
"-10 779 OFFCURVE",
"-9 774 OFFCURVE",
"-8 769 CURVE",
"-103 737 OFFCURVE",
"-155 692 OFFCURVE",
"-155 640 CURVE SMOOTH",
"-155 623 OFFCURVE",
"-152 610 OFFCURVE",
"-147 601 CURVE"
);
},
{
closed = 1;
nodes = (
"101 618 OFFCURVE",
"116 648 OFFCURVE",
"116 703 CURVE SMOOTH",
"116 849 LINE",
"98 844 LINE",
"98 703 LINE SMOOTH",
"98 661 OFFCURVE",
"90 636 OFFCURVE",
"64 636 CURVE SMOOTH",
"55 636 OFFCURVE",
"49 638 OFFCURVE",
"40 642 CURVE",
"34 625 LINE",
"45 620 OFFCURVE",
"53 618 OFFCURVE",
"64 618 CURVE SMOOTH"
);
}
);
width = 0;
},
{
anchors = (
{
name = _top.near;
position = "{0, 562}";
},
{
name = _top2;
position = "{0, 562}";
},
{
name = top.near;
position = "{-14, 889}";
}
);
layerId = "DCD2D043-4E01-4B5D-9248-443A06E88532";
paths = (
{
closed = 1;
nodes = (
"-101 634 LINE",
"-103 641 OFFCURVE",
"-103 643 OFFCURVE",
"-103 648 CURVE SMOOTH",
"-103 681 OFFCURVE",
"-78 693 OFFCURVE",
"-12 708 CURVE",
"-2 695 OFFCURVE",
"9 685 OFFCURVE",
"19 678 CURVE",
"50 721 LINE",
"21 744 OFFCURVE",
"16 770 OFFCURVE",
"10 810 CURVE SMOOTH",
"2 861 OFFCURVE",
"-26 882 OFFCURVE",
"-77 882 CURVE SMOOTH",
"-117 882 OFFCURVE",
"-150 871 OFFCURVE",
"-169 863 CURVE",
"-144 811 LINE",
"-123 821 OFFCURVE",
"-108 826 OFFCURVE",
"-97 826 CURVE SMOOTH",
"-72 826 OFFCURVE",
"-55 813 OFFCURVE",
"-46 785 CURVE SMOOTH",
"-41 768 OFFCURVE",
"-36 756 OFFCURVE",
"-34 752 CURVE",
"-139 724 OFFCURVE",
"-171 692 OFFCURVE",
"-171 640 CURVE SMOOTH",
"-171 630 OFFCURVE",
"-168 618 OFFCURVE",
"-163 606 CURVE"
);
},
{
closed = 1;
nodes = (
"128 583 OFFCURVE",
"165 620 OFFCURVE",
"165 680 CURVE SMOOTH",
"165 892 LINE",
"97 873 LINE",
"97 687 LINE SMOOTH",
"97 652 OFFCURVE",
"79 641 OFFCURVE",
"59 641 CURVE SMOOTH",
"47 641 OFFCURVE",
"32 648 OFFCURVE",
"23 657 CURVE",
"-8 613 LINE",
"11 598 OFFCURVE",
"32 583 OFFCURVE",
"74 583 CURVE SMOOTH"
);
}
);
width = 0;
}
);
note = uni0612;
unicode = 0612;
}
